<svg id="eHNtTs2gFmn1" xmlns="http://www.w3.org/2000/svg" xmlns:xlink="http://www.w3.org/1999/xlink" viewBox="0 0 52000 12000" shape-rendering="geometricPrecision" text-rendering="geometricPrecision">
	<style>
		<![CDATA[
		#eHNtTs2gFmn14_to {
			animation: eHNtTs2gFmn14_to__to 3000ms linear 1 reverse forwards;
			animation-delay: 0.5s
		}

		@keyframes eHNtTs2gFmn14_to__to {
			0% {
				transform: translate(5154.068481px, 2314.470825px)
			}

			80% {
				transform: translate(5154.068481px, 2314.470825px);
				animation-timing-function: cubic-bezier(0.96, 0.02, 0.88, 0.26)
			}

			100% {
				transform: translate(4985.746023px, -12416.219462px)
			}
		}

		#eHNtTs2gFmn15_to {
			animation: eHNtTs2gFmn15_to__to 3000ms linear 1 reverse forwards;
			animation-delay: 0.5s
		}

		@keyframes eHNtTs2gFmn15_to__to {
			0% {
				transform: translate(3249.357178px, 6439.687012px)
			}

			80% {
				transform: translate(3249.357178px, 6439.687012px);
				animation-timing-function: cubic-bezier(0.96, 0.02, 0.88, 0.26)
			}

			100% {
				transform: translate(-16076.140902px, 8259.3785px)
			}
		}

		#eHNtTs2gFmn16_to {
			animation: eHNtTs2gFmn16_to__to 3000ms linear 1 reverse forwards;
			animation-delay: 0.5s
		}

		@keyframes eHNtTs2gFmn16_to__to {
			0% {
				transform: translate(8020.216064px, 5871.115967px)
			}

			80% {
				transform: translate(8020.216064px, 5871.115967px);
				animation-timing-function: cubic-bezier(0.96, 0.02, 0.88, 0.26)
			}

			100% {
				transform: translate(28363.155794px, 6086.910986px)
			}
		}

		#eHNtTs2gFmn17_to {
			animation: eHNtTs2gFmn17_to__to 3000ms linear 1 reverse forwards;
			animation-delay: 0.5s
		}

		@keyframes eHNtTs2gFmn17_to__to {
			0% {
				transform: translate(7585.445801px, 4407.448242px)
			}

			80% {
				transform: translate(7585.445801px, 4407.448242px);
				animation-timing-function: cubic-bezier(0.96, 0.02, 0.88, 0.26)
			}

			100% {
				transform: translate(35396.920818px, 4814.10166px)
			}
		}

		#eHNtTs2gFmn18_to {
			animation: eHNtTs2gFmn18_to__to 3000ms linear 1 reverse forwards;
			animation-delay: 0.5s
		}

		@keyframes eHNtTs2gFmn18_to__to {
			0% {
				transform: translate(3264.533569px, 3664.577026px)
			}

			80% {
				transform: translate(3264.533569px, 3664.577026px);
				animation-timing-function: cubic-bezier(0.96, 0.02, 0.88, 0.26)
			}

			100% {
				transform: translate(-3954.148493px, -10808.9368px)
			}
		}

		#eHNtTs2gFmn19_to {
			animation: eHNtTs2gFmn19_to__to 3000ms linear 1 reverse forwards;
			animation-delay: 0.5s
		}

		@keyframes eHNtTs2gFmn19_to__to {
			0% {
				transform: translate(5017.091675px, 7530.35791px)
			}

			80% {
				transform: translate(5017.091675px, 7530.35791px);
				animation-timing-function: cubic-bezier(0.96, 0.02, 0.88, 0.26)
			}

			100% {
				transform: translate(-8088.683659px, 31568.37736px)
			}
		}

		#eHNtTs2gFmn20_to {
			animation: eHNtTs2gFmn20_to__to 3000ms linear 1 reverse forwards;
			animation-delay: 0.5s
		}

		@keyframes eHNtTs2gFmn20_to__to {
			0% {
				transform: translate(2624.770142px, 4814.035522px)
			}

			80% {
				transform: translate(2624.770142px, 4814.035522px);
				animation-timing-function: cubic-bezier(0.96, 0.02, 0.88, 0.26)
			}

			100% {
				transform: translate(-12110.992637px, -8799.46689px)
			}
		}

		#eHNtTs2gFmn21_to {
			animation: eHNtTs2gFmn21_to__to 3000ms linear 1 reverse forwards;
			animation-delay: 0.5s
		}

		@keyframes eHNtTs2gFmn21_to__to {
			0% {
				transform: translate(6603.383057px, 2726.748779px)
			}

			80% {
				transform: translate(6603.383057px, 2726.748779px);
				animation-timing-function: cubic-bezier(0.96, 0.02, 0.88, 0.26)
			}

			100% {
				transform: translate(27825.708901px, -1531.006788px)
			}
		}

		#eHNtTs2gFmn22_to {
			animation: eHNtTs2gFmn22_to__to 3000ms linear 1 reverse forwards;
			animation-delay: 0.5s
		}

		@keyframes eHNtTs2gFmn22_to__to {
			0% {
				transform: translate(6208.67627px, 7296.003418px)
			}

			80% {
				transform: translate(6208.67627px, 7296.003418px);
				animation-timing-function: cubic-bezier(0.96, 0.02, 0.88, 0.26)
			}

			100% {
				transform: translate(5620.755977px, 23761.616021px)
			}
		}

		#eHNtTs2gFmn23_to {
			animation: eHNtTs2gFmn23_to__to 3000ms linear 1 reverse forwards;
			animation-delay: 0.5s
		}

		@keyframes eHNtTs2gFmn23_to__to {
			0% {
				transform: translate(4580.603516px, 5462.360107px)
			}

			80% {
				transform: translate(4580.603516px, 5462.360107px);
				animation-timing-function: cubic-bezier(0.96, 0.02, 0.88, 0.26)
			}

			100% {
				transform: translate(-1977.527484px, -8966.171922px)
			}
		}

		#eHNtTs2gFmn24_to {
			animation: eHNtTs2gFmn24_to__to 3000ms linear 1 reverse forwards;
			animation-delay: 0.5s
		}

		@keyframes eHNtTs2gFmn24_to__to {
			0% {
				transform: translate(6040.955811px, 5459.514893px)
			}

			80% {
				transform: translate(6040.955811px, 5459.514893px);
				animation-timing-function: cubic-bezier(0.96, 0.02, 0.88, 0.26)
			}

			100% {
				transform: translate(-658.176189px, 22905.627355px)
			}
		}

		#eHNtTs2gFmn25_to {
			animation: eHNtTs2gFmn25_to__to 3000ms linear 1 reverse forwards;
			animation-delay: 0.5s
		}

		@keyframes eHNtTs2gFmn25_to__to {
			0% {
				transform: translate(5309.69519px, 4217.741943px)
			}

			80% {
				transform: translate(5309.69519px, 4217.741943px);
				animation-timing-function: cubic-bezier(0.96, 0.02, 0.88, 0.26)
			}

			100% {
				transform: translate(21274.330006px, 4872.58872px)
			}
		}
		
		#eG0eUWNgh9a2_to {
			animation: eG0eUWNgh9a2_to__to 3000ms linear 1 normal forwards;
			animation-delay: 0.5s
		}

		@keyframes eG0eUWNgh9a2_to__to {
			0% {
				transform: translate(4145.55647px, 270.425003px)
			}

			3.333333% {
				transform: translate(4145.55647px, 270.425003px);
				animation-timing-function: cubic-bezier(0.075, 0.82, 0.165, 1)
			}

			36.666667% {
				transform: translate(3556.800049px, 270.425003px)
			}

			100% {
				transform: translate(3556.800049px, 270.425003px)
			}
		}

		#eG0eUWNgh9a2 {
			animation: eG0eUWNgh9a2_c_o 3000ms linear 1 normal forwards;
			animation-delay: 0.5s
		}

		@keyframes eG0eUWNgh9a2_c_o {
			0% {
				opacity: 0
			}

			3.333333% {
				opacity: 0;
				animation-timing-function: cubic-bezier(0.075, 0.82, 0.165, 1)
			}

			36.666667% {
				opacity: 1
			}

			100% {
				opacity: 1
			}
		}

		#eG0eUWNgh9a7_to {
			animation: eG0eUWNgh9a7_to__to 3000ms linear 1 normal forwards;
			animation-delay: 0.5s
		}

		@keyframes eG0eUWNgh9a7_to__to {
			0% {
				transform: translate(2131.041547px, 272.199993px);
				animation-timing-function: cubic-bezier(0.075, 0.82, 0.165, 1)
			}

			33.333333% {
				transform: translate(1546.900024px, 272.199993px)
			}

			100% {
				transform: translate(1546.900024px, 272.199993px)
			}
		}

		#eG0eUWNgh9a7 {
			animation: eG0eUWNgh9a7_c_o 3000ms linear 1 normal forwards;
			animation-delay: 0.5s
		}

		@keyframes eG0eUWNgh9a7_c_o {
			0% {
				opacity: 0;
				animation-timing-function: cubic-bezier(0.075, 0.82, 0.165, 1)
			}

			33.333333% {
				opacity: 1
			}

			100% {
				opacity: 1
			}
		}
		]]>
	</style>
	<g transform="translate(0, 6000)">
		<g id="eHNtTs2gFmn13" clip-rule="evenodd" transform="translate(0, -5000)">
			<g id="eHNtTs2gFmn14_to" transform="translate(4985.746023,-12416.219462)">
				<path id="eHNtTs2gFmn14" d="M5313.93,528.087C5371.195,593.367,5425.45,657.789,5477.992,723.358C5650.734,938.928,5807.44,1166.878,5946.838,1405.369C6118.718,1699.079,6263.202,2007.987,6378.465,2328.177C6379.947,2333.051,6381.715,2337.83,6383.761,2342.492C6391.781,2356.808,6386.481,2364.683,6373.025,2372.414C6323.206,2401.045,6273.673,2431.396,6224.711,2461.747C5824.116,2711.619,5454.939,3008.653,5125.101,3346.472C5019.447,3454.702,4917.376,3566.221,4821.744,3683.47C4802.955,3707.21,4777.769,3725.094,4749.162,3735.009C4500.947,3823.402,4259.225,3929.076,4025.778,4051.248C3997.144,4065.563,3968.513,4081.884,3939.88,4096.488C3924.417,4104.36,3919.839,4101.925,3920.698,4086.466C3925.709,3994.269,3927.282,3901.931,3935.013,3809.738C3940.883,3738.158,3947.037,3667.578,3954.768,3596.572C3969.084,3466.297,3988.41,3336.739,4012.033,3207.607C4063.504,2925.817,4136.932,2648.482,4231.641,2378.14C4366.542,1992.444,4543.507,1622.771,4759.328,1275.81C4904.114,1041.722,5066.243,818.817,5244.351,608.969C5265.824,582.344,5286.727,554.569,5313.928,528.086Z" transform="translate(-5154.068481,-2314.470825)" clip-rule="evenodd" fill="rgb(47,189,236)" stroke="none" stroke-width="1" stroke-linejoin="round" stroke-miterlimit="2" />
			</g>
			<g id="eHNtTs2gFmn15_to" transform="translate(-16076.140902,8259.3785)">
				<path id="eHNtTs2gFmn15" d="M1321.5,7303.96C1342.258,7248.987,1361.014,7197.878,1380.911,7147.201C1473.084,6911.526,1581.33,6682.456,1704.881,6461.61C1846.91,6207.686,2008.348,5965.119,2187.761,5736.076C2253.186,5652.613,2320.039,5570.297,2391.334,5491.701C2409.087,5472.09,2409.372,5472.519,2432.85,5485.402C2696.981,5630.49,2971.727,5755.349,3254.731,5858.906C3470.428,5937.824,3690.553,6004.077,3913.982,6057.326C4070.023,6094.402,4227.212,6125.612,4385.692,6149.664C4400.246,6151.948,4413.884,6158.247,4425.059,6167.843C4520.5,6246.392,4618.469,6322.171,4718.967,6395.183C4836.36,6480.078,4957.043,6560.247,5080.017,6636.978C5110.938,6656.164,5141.145,6676.634,5177.222,6700.112C4787.753,6911.815,4375.154,7077.882,3947.622,7195.017C3521.711,7312.141,3083.802,7380.202,2642.432,7397.875C2199.985,7416.587,1756.841,7385.082,1321.492,7303.96Z" transform="translate(-3249.357178,-6439.687012)" clip-rule="evenodd" fill="rgb(251,114,153)" stroke="none" stroke-width="1" stroke-linejoin="round" stroke-miterlimit="2" />
			</g>
			<g id="eHNtTs2gFmn16_to" transform="translate(28363.155794,6086.910986)">
				<path id="eHNtTs2gFmn16" d="M6839.16,4339.43C6848.32,4337.713,6854.334,4344.585,6861.207,4348.738C7092.799,4487.456,7314.209,4642.508,7523.748,4812.718C7647.01,4912.931,7765.258,5018.007,7880.36,5127.669C7962.676,5205.836,8041.413,5287.434,8119.006,5370.038C8233.535,5491.821,8341.811,5618.803,8443.836,5750.988C8592.106,5941.687,8728.05,6141.657,8850.84,6349.681C9015.813,6629.189,9156.024,6922.591,9269.868,7226.534C9277.17,7246.145,9285.042,7265.76,9291.629,7285.66C9297.211,7302.695,9295.352,7306.418,9278.173,7309.568C9240.091,7316.581,9201.868,7323.883,9163.644,7329.035C9094.356,7339.63,9024.923,7350.367,8955.346,7359.101C8890.83,7367.117,8826.17,7373.798,8761.366,7379.141C8676.756,7386.158,8591.865,7391.739,8507.114,7397.324C8478.483,7399.041,8449.849,7398.612,8422.078,7399.185C8367.534,7400.473,8312.845,7402.476,8258.446,7402.908C8158.232,7403.623,8058.881,7402.046,7959.242,7397.039C7850.345,7391.598,7741.592,7383.438,7632.98,7372.557C7474.55,7356.904,7317.073,7334.475,7160.552,7305.271C7142.372,7301.837,7138.364,7294.391,7138.935,7278.358C7141.655,7209.069,7135.644,7139.778,7132.636,7070.633C7127.339,6952.382,7117.462,6834.275,7104.005,6716.456C7091.407,6607.083,7076.042,6498.136,7057.907,6389.621C7041.016,6289.411,7020.972,6189.198,6998.64,6090.417C6962.134,5927.647,6917.468,5767.02,6866.503,5608.255C6832.003,5500.314,6794.923,5393.517,6751.974,5288.296C6746.001,5273.95,6744.455,5258.143,6747.537,5242.912C6769.107,5123.231,6786.619,5002.931,6800.075,4882.006C6810.574,4787.139,6818.976,4692.081,6825.274,4596.832C6830.711,4515.231,6832.717,4433.344,6836.44,4351.599C6836.011,4347.161,6835.293,4342.868,6839.16,4339.43Z" transform="translate(-8020.216064,-5871.115967)" clip-rule="evenodd" fill="rgb(251,114,153)" stroke="none" stroke-width="1" stroke-linejoin="round" stroke-miterlimit="2" />
			</g>
			<g id="eHNtTs2gFmn17_to" transform="translate(35396.920818,4814.10166)">
				<path id="eHNtTs2gFmn17" d="M9583.67,4230.92C9582.707,4234.103,9581.413,4237.175,9579.803,4240.083C9517.528,4303.931,9458.405,4370.929,9392.836,4431.631C9343.448,4477.297,9296.205,4524.972,9246.528,4570.497C9085.241,4717.711,8915.806,4855.741,8739.026,4983.941C8589.377,5092.552,8434.811,5193.671,8275.331,5287.297C8240.975,5307.626,8240.546,5308.196,8214.203,5279.281C8132.028,5189.23,8045.848,5103.051,7957.519,5019.014C7795.507,4864.821,7624.871,4719.951,7446.438,4585.097C7255.332,4440.841,7055.741,4308.178,6848.744,4187.83C6650.847,4072.906,6446.345,3969.748,6236.309,3878.889C6054.21,3799.961,5868.816,3729.958,5680.133,3668.877C5649.352,3658.855,5618.146,3649.691,5587.221,3637.238C6035.051,3541.636,6492.863,3500.965,6950.531,3516.125C7872.406,3542.575,8774.961,3787.584,9583.671,4230.92Z" transform="translate(-7585.445801,-4407.448242)" clip-rule="evenodd" fill="rgb(251,114,153)" stroke="none" stroke-width="1" stroke-linejoin="round" stroke-miterlimit="2" />
			</g>
			<g id="eHNtTs2gFmn18_to" transform="translate(-3954.148493,-10808.9368)">
				<path id="eHNtTs2gFmn18" d="M3923.99,5507.32C3791.997,5363.323,3667.752,5212.41,3551.775,5055.224C3316.67,4737.697,3115.842,4396.171,2952.652,4036.354C2792.81,3684.571,2670.356,3316.971,2587.309,2939.604C2561.255,2821.785,2538.491,2703.389,2520.452,2584.138C2502.414,2464.887,2489.102,2347.21,2478.365,2227.955C2467.34,2104.552,2462.759,1980.864,2457.178,1857.172C2455.316,1818.234,2457.178,1817.946,2493.11,1825.966C2779.042,1888.744,3059.855,1972.918,3333.172,2077.783C3529.094,2153.236,3720.78,2239.259,3907.384,2335.47C3955.918,2360.522,4003.73,2386.721,4051.69,2412.775C4075.598,2425.661,4075.742,2425.947,4067.293,2451.142C4020.625,2591.581,3981.399,2733.885,3946.181,2877.758C3909.246,3030.462,3878.754,3184.693,3854.702,3340.45C3837.666,3450.396,3824.354,3560.772,3812.9,3671.293C3805.598,3740.152,3802.019,3809.3,3797.726,3878.444C3791.568,3982.236,3789.565,4086.169,3786.127,4189.961C3781.978,4317.087,3788.133,4443.784,3795.864,4570.481C3801.016,4656.376,3808.365,4742.27,3817.911,4828.168C3829.65,4936.683,3844.777,5044.721,3863.291,5152.279C3882.332,5262.8,3903.52,5373.032,3929.43,5482.264C3930.199,5486.376,3930.678,5490.538,3930.863,5494.718C3933.727,5501.161,3935.874,5507.889,3923.99,5507.315Z" transform="translate(-3264.533569,-3664.577026)" clip-rule="evenodd" fill="rgb(47,189,236)" stroke="none" stroke-width="1" stroke-linejoin="round" stroke-miterlimit="2" />
			</g>
			<g id="eHNtTs2gFmn19_to" transform="translate(-8088.683659,31568.37736)">
				<path id="eHNtTs2gFmn19" d="M6420.13,5979.74C6415.404,6018.822,6398.654,6054.184,6385.627,6090.402C6307.336,6309.926,6215.243,6524.282,6109.901,6732.188C6016.095,6916.545,5912.49,7095.753,5799.532,7269.038C5678.818,7453.566,5547.711,7631.084,5406.843,7800.734C5339.272,7882.523,5269.077,7962.025,5196.257,8039.236C5137.276,8101.94,5078.15,8164.5,5016.304,8224.485C4834.251,8401.912,4641.073,8567.55,4437.94,8720.392C4273.315,8843.926,4102.237,8958.615,3925.427,9063.974C3882.481,9089.17,3888.636,9089.025,3874.606,9045.362C3804.103,8823.473,3747.446,8597.418,3704.963,8368.502C3684.634,8260.276,3667.595,8151.473,3654.712,8042.244C3642.829,7941.172,3632.666,7839.96,3626.082,7738.314C3619.494,7636.672,3614.054,7539.324,3614.054,7439.54C3614.054,7410.909,3614.054,7410.909,3644.12,7403.893C3983.831,7331.79,4316.566,7230.044,4638.507,7099.822C4860.598,7007.91,5077.731,6904.457,5289.024,6789.881C5545.708,6653.162,5784.787,6490.533,6015.846,6315.45C6146.407,6216.478,6271.816,6111.257,6392.07,5999.781C6399.137,5990.594,6408.897,5983.836,6419.986,5980.455L6420.13,5979.74Z" transform="translate(-5017.091675,-7530.35791)" clip-rule="evenodd" fill="rgb(251,114,153)" stroke="none" stroke-width="1" stroke-linejoin="round" stroke-miterlimit="2" />
			</g>
			<g id="eHNtTs2gFmn20_to" transform="translate(-12110.992637,-8799.46689)">
				<path id="eHNtTs2gFmn20" d="M4207.88,5987.35C2966.59,5740.161,1911.07,5156.595,1041.33,4236.65C1048.404,4227.42,1057.788,4220.209,1068.532,4215.751C1285.618,4098.503,1509.868,3995.033,1739.951,3905.952C1980.633,3813.151,2227.279,3736.628,2478.224,3676.898C2527.184,3665.253,2576.193,3653.993,2625.25,3643.113C2648.011,3637.957,2650.875,3639.675,2659.465,3662.868C2705.275,3787.989,2754.235,3911.821,2808.064,4033.796C2880.026,4197.092,2959.528,4356.763,3046.569,4512.809C3118.149,4641.27,3194.501,4766.726,3275.623,4889.173C3355.604,5010,3440.114,5127.584,3529.161,5241.918C3634.144,5377.064,3744.949,5507.387,3861.577,5632.89C3924.282,5700.602,3989.133,5766.456,4053.41,5833.313C4101.655,5882.99,4153.623,5928.8,4204.159,5976.472C4207.456,5979.024,4208.922,5983.317,4207.879,5987.352Z" transform="translate(-2624.770142,-4814.035522)" clip-rule="evenodd" fill="rgb(251,114,153)" stroke="none" stroke-width="1" stroke-linejoin="round" stroke-miterlimit="2" />
			</g>
			<g id="eHNtTs2gFmn21_to" transform="translate(27825.708901,-1531.006788)">
				<path id="eHNtTs2gFmn21" d="M5039.19,3632.36C5860.01,2710.914,6954.32,2075.6,8161.51,1819.67C8166.897,1828.173,8168.795,1838.433,8166.806,1848.301C8164.516,1987.022,8156.07,2125.173,8143.187,2263.465C8130.301,2401.757,8112.836,2536.611,8089.931,2672.187C8067.693,2803.509,8040.636,2933.882,8008.759,3063.299C7976.023,3195.577,7938.944,3325.853,7897.524,3454.123C7888.361,3482.757,7894.375,3487.764,7851.141,3479.892C7732.413,3458.514,7613.112,3440.62,7493.24,3426.207C7357.668,3409.886,7221.238,3398.435,7085.666,3390.704C6950.091,3382.973,6810.655,3380.538,6673.077,3383.687C6532.495,3386.981,6392.056,3393.998,6251.758,3405.878C6131.504,3416.185,6011.68,3429.642,5892.429,3447.251C5724.359,3471.97,5557.34,3503.894,5391.37,3543.026C5284.143,3568.366,5178.349,3599.003,5072.266,3628.921C5061.996,3633.935,5050.277,3635.153,5039.195,3632.359Z" transform="translate(-6603.383057,-2726.748779)" clip-rule="evenodd" fill="rgb(47,189,236)" stroke="none" stroke-width="1" stroke-linejoin="round" stroke-miterlimit="2" />
			</g>
			<g id="eHNtTs2gFmn22_to" transform="translate(5620.755977,23761.616021)">
				<path id="eHNtTs2gFmn22" d="M6695.87,5517.04C6709.327,5556.122,6722.927,5593.342,6735.096,5631.569C6802.282,5838.992,6857.443,6050.124,6900.301,6263.903C6924.065,6384.157,6944.823,6505.128,6960.571,6626.67C6972.454,6717.006,6981.329,6807.911,6989.204,6898.676C7006.377,7106.884,7011.824,7315.893,7005.525,7524.712C7002.232,7643.248,6995.359,7761.499,6983.191,7879.603C6972.454,7984.972,6960.43,8090.048,6944.682,8194.558C6925.353,8323.402,6900.875,8452.245,6872.241,8581.089C6837.167,8738.563,6793.933,8894.323,6745.544,9048.362C6743.844,9054.423,6741.838,9060.397,6739.534,9066.256C6738.564,9071.291,6734.117,9074.967,6728.988,9074.967C6726.52,9074.967,6724.125,9074.115,6722.21,9072.555C6710.33,9065.827,6698.161,9059.384,6686.563,9052.37C6495.86,8937.54,6311.798,8812.027,6135.256,8676.432C6025.5,8591.778,5918.847,8503.351,5815.294,8411.158C5688.741,8298.635,5569.201,8179.24,5451.524,8057.695C5440.643,8046.385,5430.195,8034.646,5420.029,8022.621C5405.714,8005.012,5405.714,8004.583,5420.029,7986.833C5507.356,7887.334,5590.533,7784.545,5670.703,7679.324C5775.685,7541.606,5874.275,7399.302,5966.472,7252.421C6060,7103.919,6146.328,6951.214,6225.447,6794.31C6317.242,6613.935,6399.155,6428.699,6470.821,6239.425C6557.649,6012.002,6629.382,5779.098,6685.563,5542.236C6686.854,5533.113,6690.396,5524.453,6695.87,5517.04Z" transform="translate(-6208.67627,-7296.003418)" clip-rule="evenodd" fill="rgb(251,114,153)" stroke="none" stroke-width="1" stroke-linejoin="round" stroke-miterlimit="2" />
			</g>
			<g id="eHNtTs2gFmn23_to" transform="translate(-1977.527484,-8966.171922)">
				<path id="eHNtTs2gFmn23" d="M3921.7,4340.13C4318.978,4587.325,4648.623,4929.468,4880.873,5335.66C5099.864,5716.862,5223.68,6145.332,5241.779,6584.59C4697.871,6247.206,4284.535,5734.689,4070.009,5131.66C3980.821,4877.981,3905.233,4466.827,3921.695,4340.131Z" transform="translate(-4580.603516,-5462.360107)" clip-rule="evenodd" fill="rgb(47,189,236)" stroke="none" stroke-width="1" stroke-linejoin="round" stroke-miterlimit="2" />
			</g>
			<g id="eHNtTs2gFmn24_to" transform="translate(-658.176189,22905.627355)">
				<path id="eHNtTs2gFmn24" d="M5382.78,6576.87C5397.159,6158.965,5509.983,5750.294,5712.046,5384.21C5944.377,4956.622,6284.752,4597.289,6699.132,4342.15C6684.826,4749.848,6577.063,5148.863,6384.18,5508.33C6151.91,5947.584,5806.054,6316.626,5382.78,6576.88Z" transform="translate(-6040.955811,-5459.514893)" clip-rule="evenodd" fill="rgb(251,114,153)" stroke="none" stroke-width="1" stroke-linejoin="round" stroke-miterlimit="2" />
			</g>
			<g id="eHNtTs2gFmn25_to" transform="translate(21274.330006,4872.58872)">
				<path id="eHNtTs2gFmn25" d="M6630.7,4218.04C5801.606,4641.15,4817.78,4641.15,3988.69,4218.04C4817.59,3794.135,5801.8,3794.135,6630.7,4218.04Z" transform="translate(-5309.69519,-4217.741943)" clip-rule="evenodd" fill="rgb(251,114,153)" stroke="none" stroke-width="1" stroke-linejoin="round" stroke-miterlimit="2" />
			</g>
		</g>
		<g transform="translate(8000, -3000) scale(10)">
			<g id="eG0eUWNgh9a2_to" transform="translate(4145.55647,270.425003)">
				<g id="eG0eUWNgh9a2" transform="translate(-3291.800049,-270.425003)" opacity="0">
					<path d="M3143.9,503.5h-74.3l-57.7-145.9-49.1-146.5L2914.6,359l-56.4,144.5h-74.3L2613.6,39.4h98.1l109.4,334.8L2933.8,39.4h57l116,334.8L3212.9,39.4h98.1L3143.9,503.5Z" fill="#2fbdec" />
					<path d="M3450.9,84.5c0,63-95.5,63-95.5,0c.1-63,95.5-63,95.5,0Zm-88.2,90.8v328.2h80.9v-328.2h-80.9Z" fill="#2fbdec" />
					<path d="M3612,40.1v267.8l110.1-131.3h96.8v4.6L3685.6,330.5l151.8,167.1v6h-97.5l-128-147.8v147.8h-80.9v-463.5h81Z" fill="#2fbdec" />
					<path d="M3970,84.5c0,63-95.5,63-95.5,0c.1-63,95.5-63,95.5,0Zm-88.1,90.8v328.2h80.9v-328.2h-80.9Z" fill="#2fbdec" />
				</g>
			</g>
			<g id="eG0eUWNgh9a7_to" transform="translate(2131.041547,272.199993)">
				<g id="eG0eUWNgh9a7" transform="translate(-1281.900024,-272.199993)" opacity="0">
					<path d="M476.7,274.1c-1.3,120-74.9,240-238,240s-238.7-117.4-238.7-239.2C0,128.4,106.1,30.3,240.7,30.3c158.5,1.2,237.4,123.1,236,243.8ZM238.7,434c109.4,0,150.5-82.2,151.8-158.5c1.3-77.6-43.1-163.8-149.8-165.7-98.8,0-157.1,74.3-154.5,166.4c2,76.1,43.1,157.8,152.5,157.8Z" fill="#fb7299" />
					<path d="M665,84.5v92.8h90.2v69.6h-90.8v141.3c0,31.2,17.2,46.4,42.4,46.4c12.6,0,27.2-4,39.1-9.9l22.5,69c-23.2,9.3-42.4,13.3-67,13.9C630.5,510.3,584,469.8,584,388.3v-141.3h-61v-69.6h61v-84.2l81-8.7Z" fill="#fb7299" />
					<path d="M1143.1,340.4c0,94.1-64.3,170.4-170.4,170.4s-169.7-76.2-169.7-170.4C803,246.9,868,170,972.1,170c104,0,171,77,171,170.4Zm-259.3,0c0,49.7,29.8,96.1,88.8,96.1s88.8-46.4,88.8-96.1c0-49.1-34.5-96.8-88.8-96.8-58.3,0-88.8,47.8-88.8,96.8Z" fill="#fb7299" />
					<path d="M1428.1,503.5v-175c0-43.1-22.5-82.2-67-82.2-43.8,0-69.6,39.1-69.6,82.2v175h-80.9v-327.5h74.9l6,39.8c17.2-33.1,55-45.1,86.2-45.1c39.1,0,78.2,15.9,96.8,61c29.2-46.4,67-59.7,109.4-59.7c92.8,0,138.6,57,138.6,155.1v176.4h-80.9v-176.3c0-43.1-17.9-79.6-61.7-79.6s-70.9,37.8-70.9,80.9v175h-80.9Z" fill="#fb7299" />
					<path d="M2063.3,176.7h77.6v326.9h-76.3l-4-47.7c-18.6,38.5-69.6,57-106.1,57.7-96.8.7-168.4-59-168.4-173.7c0-112.7,74.9-171.7,170.4-171.1c43.8,0,85.5,20.6,104.1,53l2.7-45.1ZM1867,339.7c0,62.3,43.1,99.4,96.8,99.4c127.3,0,127.3-198.2,0-198.2-53.7.1-96.8,36.5-96.8,98.8Z" fill="#fb7299" />
					<path d="M2563.8,40.1v463.4h-75.6l-5.3-45.1c-25.2,39.1-65.6,52.4-105.4,52.4-96.1,0-168.4-63.6-168.4-171.1c0-112.7,70.9-171.1,166.4-171.1c34.5,0,88.2,18.6,107.4,52.4v-181l80.9.1v0ZM2290,339.7c0,57,41.1,96.1,92.8,96.1c51.1,0,94.8-37.1,94.8-96.1c0-57-43.8-95.5-94.8-95.5-51.7.1-92.8,36.5-92.8,95.5Z" fill="#fb7299" />
				</g>
			</g>
		</g>
	</g>
</svg>
