<svg width="219" height="18" viewBox="0 0 219 18" fill="none" xmlns="http://www.w3.org/2000/svg">
<path d="M5.27406 10.2215L2.84599 12.7774L2.84599 16.7938H0L0 1.09039L2.84427 1.09039L2.84427 9.14552L10.4114 1.09039L13.6059 1.09039L7.17645 8.11247L14.0012 16.7938H10.6762L5.27406 10.2215Z" fill=currentColor />
<path d="M15.4662 4.81366H18.2012V16.7938H15.4662L15.4662 4.81366Z" fill=currentColor />
<path d="M32.0666 16.7938L28.9391 12.195C28.8075 12.2097 28.6118 12.2168 28.3483 12.2168L24.8933 12.2168L24.8933 16.7938H22.0487L22.0487 1.09039L28.3481 1.09039C29.5373 1.06264 30.7189 1.29161 31.8163 1.76243C32.7414 2.16044 33.5298 2.83229 34.0807 3.69213C34.6203 4.58694 34.8937 5.62371 34.8675 6.67547C34.8954 7.75643 34.6017 8.82047 34.0257 9.72613C33.433 10.6045 32.588 11.2714 31.6082 11.6338L35.131 16.7932L32.0666 16.7938ZM31.0395 4.36565C30.3969 3.82707 29.4565 3.55778 28.2182 3.55778L24.8933 3.55778V9.81756L28.2182 9.81756C29.457 9.81756 30.3975 9.54494 31.0395 8.9997C31.3629 8.71428 31.6178 8.35632 31.7845 7.95356C31.9513 7.5508 32.0253 7.11407 32.0009 6.67724C32.0261 6.2419 31.9524 5.80651 31.7855 5.40538C31.6187 5.00424 31.3633 4.64832 31.0395 4.36565Z" fill=currentColor />
<path d="M47.9696 13.1589L40.3136 13.1589L38.8042 16.7937H35.8742L42.7629 1.09033L45.5627 1.09033L52.4746 16.7937L49.5016 16.7937L47.9696 13.1589ZM47.0277 10.8714L44.1416 4.00694L41.2775 10.8714L47.0277 10.8714Z" fill=currentColor />
<path d="M16.8254 0L17.3938 1.18152L18.6653 1.37084L17.7452 2.29071L17.9624 3.58924L16.8254 2.97599L15.6883 3.58924L15.9056 2.29071L14.9855 1.37084L16.257 1.18152L16.8254 0Z" fill=currentColor />
<path d="M59.9561 10.2214L57.5283 12.7773V16.7937H54.6837V1.09033L57.5274 1.09033V9.14546L65.0945 1.09033L68.2879 1.09033L61.859 8.11241L68.6838 16.7934H65.3588L59.9561 10.2214Z" fill=currentColor />
<path d="M70.1484 4.81366H72.8826V16.7938H70.1484V4.81366Z" fill=currentColor />
<path d="M86.7491 16.7937L83.6217 12.195C83.4898 12.2097 83.2941 12.2167 83.0306 12.2167L79.5756 12.2167V16.7937H76.7319V1.09035L83.0315 1.09035C84.2202 1.06283 85.4012 1.29179 86.4981 1.7624C87.4231 2.16041 88.2115 2.83226 88.7625 3.6921C89.3018 4.58699 89.5751 5.62372 89.549 6.67544C89.5768 7.7564 89.2832 8.82044 88.7071 9.7261C88.1147 10.6045 87.2697 11.2714 86.29 11.6338L89.8127 16.7932L86.7491 16.7937ZM85.7221 4.36561C85.0795 3.82704 84.1391 3.55775 82.9008 3.55775L79.5759 3.55775V9.81753L82.9008 9.81753C84.1396 9.81753 85.0801 9.54491 85.7221 8.99967C86.0453 8.7141 86.3001 8.35611 86.4667 7.95338C86.6334 7.55065 86.7075 7.11399 86.6832 6.6772C86.7084 6.2419 86.6346 5.80655 86.4679 5.40543C86.3011 5.0043 86.0458 4.64836 85.7221 4.36561Z" fill=currentColor />
<path d="M102.652 13.1589L94.9958 13.1589L93.4864 16.7937H90.5565L97.4451 1.09033L100.245 1.09033L107.157 16.7937L104.183 16.7937L102.652 13.1589ZM101.71 10.8714L98.823 4.00694L95.9589 10.8714L101.71 10.8714Z" fill=currentColor />
<path d="M73.0195 2.14066L71.5221 0.604858L70.0247 2.14066L71.5221 3.67645L73.0195 2.14066Z" fill=currentColor />
<path d="M124.965 16.9002L119.612 13.7025L114.259 16.9002L115.571 10.6901L110.952 6.45675L117.114 5.81645L119.612 0.00323486L122.11 5.81704L128.273 6.45734L123.654 10.6901L124.965 16.9002ZM119.612 12.3417L123.294 14.5407L122.393 10.27L125.57 7.35957L121.331 6.9186L119.613 2.92043L117.894 6.9186L113.655 7.35957L116.832 10.27L115.931 14.5407L119.612 12.3417Z" fill=currentColor />
<path d="M133.818 1.08097L140.107 1.08097C141.608 1.04932 143.094 1.39522 144.435 2.08845C145.646 2.72187 146.656 3.69537 147.348 4.8954C148.052 6.14254 148.41 7.56304 148.385 9.00381C148.41 10.4447 148.052 11.8653 147.348 13.1125C146.656 14.3125 145.646 15.286 144.435 15.9195C143.094 16.6127 141.608 16.9585 140.107 16.9266H133.818V1.08097ZM140.021 15.4782C141.254 15.5071 142.474 15.2232 143.575 14.6518C144.557 14.1335 145.375 13.3409 145.936 12.3655C146.508 11.3436 146.798 10.1816 146.775 9.00381C146.797 7.8261 146.506 6.66442 145.934 5.643C145.373 4.66769 144.555 3.87508 143.573 3.35669C142.472 2.78544 141.252 2.50158 140.019 2.53031L135.451 2.53031V15.4782L140.021 15.4782Z" fill=currentColor />
<path d="M154.641 16.01C153.43 15.3404 152.422 14.3419 151.728 13.124C151.021 11.8731 150.659 10.4492 150.68 9.00379C150.659 7.55854 151.022 6.13469 151.728 4.88392C152.422 3.66572 153.43 2.66711 154.641 1.99759C155.921 1.30826 157.344 0.947134 158.789 0.945138C160.234 0.943141 161.659 1.30033 162.94 1.98613C164.146 2.65837 165.15 3.65657 165.842 4.87245C166.555 6.12517 166.922 7.55327 166.903 9.0035C166.922 10.4538 166.555 11.882 165.842 13.1348C165.15 14.3508 164.146 15.3488 162.94 16.0206C161.659 16.7066 160.234 17.064 158.789 17.062C157.344 17.0601 155.921 16.6989 154.641 16.0094V16.01ZM162.112 14.7197C163.082 14.17 163.884 13.355 164.429 12.3655C164.994 11.3408 165.284 10.1807 165.268 9.00379C165.283 7.82714 164.994 6.66746 164.429 5.64298C163.884 4.65351 163.082 3.83856 162.112 3.28877C161.091 2.7315 159.953 2.44006 158.796 2.44006C157.64 2.44006 156.501 2.7315 155.48 3.28877C154.504 3.83744 153.694 4.65215 153.141 5.64298C152.569 6.66523 152.276 7.82609 152.291 9.00438C152.276 10.1828 152.569 11.3438 153.141 12.3661C153.694 13.357 154.504 14.1717 155.48 14.7203C156.501 15.2776 157.64 15.569 158.796 15.569C159.953 15.569 161.091 15.2776 162.112 14.7203V14.7197Z" fill=currentColor />
<path d="M172.11 15.2968C170.991 14.1197 170.432 12.4068 170.432 10.1582V1.08093L172.066 1.08093V10.0903C172.066 11.9326 172.471 13.3059 173.28 14.2102C174.089 15.1145 175.259 15.5672 176.79 15.5684C178.334 15.5684 179.511 15.1157 180.321 14.2102C181.13 13.3047 181.535 11.9314 181.535 10.0903V1.08093L183.124 1.08093V10.1582C183.124 12.4072 182.568 14.1201 181.457 15.2968C180.347 16.4735 178.791 17.062 176.79 17.0624C174.787 17.0624 173.227 16.4739 172.11 15.2968Z" fill=currentColor />
<path d="M198.926 9.0038H200.493V15.0481C199.743 15.7136 198.873 16.2213 197.933 16.5421C196.931 16.8917 195.879 17.0676 194.821 17.0625C193.366 17.0852 191.93 16.7266 190.649 16.0206C189.438 15.3513 188.43 14.3528 187.736 13.1346C187.023 11.8818 186.657 10.4535 186.675 9.00321C186.657 7.55298 187.023 6.12489 187.736 4.87216C188.43 3.65407 189.438 2.65551 190.649 1.98584C191.938 1.27858 193.381 0.92028 194.843 0.944848C195.949 0.932155 197.049 1.12775 198.087 1.52194C199.038 1.88267 199.892 2.46815 200.581 3.23086L199.566 4.29508C198.345 3.0576 196.792 2.43887 194.909 2.43887C193.727 2.42127 192.561 2.71341 191.521 3.2876C190.534 3.83349 189.713 4.64865 189.15 5.64299C188.572 6.66306 188.275 7.82478 188.29 9.00439C188.273 10.181 188.571 11.3398 189.15 12.3558C189.716 13.3442 190.532 14.1574 191.511 14.7097C192.545 15.2921 193.709 15.5885 194.888 15.5699C196.327 15.6151 197.742 15.1857 198.926 14.3449V9.0038Z" fill=currentColor />
<path d="M214.794 12.6936L206.187 12.6936L204.333 16.9269H202.634L209.696 1.08124L211.306 1.08124L218.369 16.9269H216.647L214.794 12.6936ZM214.198 11.3357L210.491 2.82397L206.783 11.3357L214.198 11.3357Z" fill=currentColor />
</svg>
