<svg width="215" height="49" viewBox="0 0 215 49" fill="#E97183" xmlns="http://www.w3.org/2000/svg">
	<g class="logo">
		<path d="M30.7275 4.2824C31.9708 4.29273 32.7935 4.32422 33.3263 4.38255C33.7551 4.429 34.4916 4.52502 34.9635 4.59522C35.4355 4.66491 36.1699 4.79189 36.5961 4.87758C37.0223 4.96275 37.4506 5.06961 37.5473 5.11555C37.6444 5.16149 37.7806 5.27196 37.8498 5.36178C37.9184 5.45159 38.0093 5.67511 38.0519 5.85784C38.0935 6.04109 38.3539 7.37546 38.6294 8.8234C38.9932 10.7359 39.1216 11.5118 39.0977 11.6599C39.0728 11.7912 39.0263 11.9175 38.96 12.0336C38.9017 12.1266 38.7916 12.2463 38.7152 12.2995C38.6387 12.3532 38.4823 12.4187 38.368 12.4456C38.1933 12.4869 38.0363 12.4631 37.3804 12.2959C36.8281 12.1585 36.2729 12.0328 35.7151 11.919C35.1972 11.8155 34.6774 11.7221 34.1558 11.6387C33.6728 11.5689 33.1883 11.5097 32.7026 11.4612C32.1491 11.4112 31.5946 11.3744 31.0394 11.3507C30.5196 11.3301 29.7815 11.3404 29.2462 11.3755C28.7038 11.4122 28.1627 11.4651 27.6235 11.534C27.2311 11.5887 26.636 11.694 26.3007 11.7688C25.9655 11.8437 25.3703 12.0068 24.979 12.1322C24.5876 12.2577 24.0398 12.4538 23.7617 12.5689C23.4836 12.6841 22.9987 12.906 22.6842 13.0629C22.3698 13.2194 21.8989 13.4774 21.638 13.6359C21.272 13.8664 20.9145 14.1098 20.5662 14.3658C20.2195 14.6213 19.64 15.1324 19.1852 15.583C18.7549 16.0104 18.2445 16.5576 18.0506 16.7987C17.7827 17.1423 17.5272 17.4953 17.2845 17.8569C17.0568 18.1976 16.666 18.8826 16.4154 19.3797C16.1342 19.9296 15.8931 20.4989 15.694 21.0831C15.5485 21.5234 15.3925 22.0691 15.3489 22.2962C15.3052 22.5233 15.2397 22.895 15.2028 23.1221C15.1602 23.3854 15.1368 24.0229 15.1384 24.8772C15.1399 26.0035 15.1592 26.3385 15.2564 26.9606C15.3203 27.3684 15.4523 28.01 15.5495 28.3873C15.6467 28.7642 15.813 29.302 15.9185 29.5818C16.0241 29.8616 16.2023 30.2998 16.3151 30.5554C16.4279 30.8109 16.6763 31.2935 16.8671 31.6275C17.0579 31.9615 17.3541 32.4297 17.5256 32.6682C17.6972 32.9056 18.036 33.3268 18.2793 33.6035C18.5225 33.8797 18.955 34.3159 19.2408 34.5719C19.5267 34.8279 19.9867 35.2053 20.2632 35.4107C20.6085 35.6615 20.9639 35.8981 21.3287 36.12C21.6385 36.3053 22.1723 36.5964 22.5153 36.7668C22.8584 36.9371 23.3729 37.1689 23.6588 37.2819C23.9447 37.3945 24.4478 37.571 24.7763 37.6727C25.1053 37.7749 25.5964 37.9035 25.8678 37.9582C26.1396 38.0124 26.6656 38.0986 27.0372 38.1492C27.5362 38.2163 28.0663 38.2405 29.0643 38.2421C30.0653 38.2431 30.6043 38.2194 31.1433 38.1507C31.5435 38.1001 32.187 38.001 32.5726 37.9318C32.9583 37.8616 33.5862 37.7119 33.9677 37.5989C34.3492 37.4853 34.9339 37.2866 35.2671 37.156C35.6906 36.9869 36.1092 36.8059 36.5223 36.613C36.8788 36.4442 37.4282 36.1639 37.7422 35.9904C38.1284 35.7739 38.5096 35.5488 38.8856 35.3152C39.2734 35.0695 39.6554 34.8147 40.0312 34.5513C40.4546 34.2457 40.8706 33.9301 41.2786 33.6045C41.79 33.1947 42.0115 33.0491 42.1918 33.0063C42.3685 32.9645 42.4928 32.965 42.6731 33.0104C42.8342 33.0507 42.9834 33.1384 43.117 33.2711C43.2298 33.3826 43.3337 33.5447 43.353 33.6391C43.3722 33.732 43.6336 35.0953 43.9351 36.6697C44.4294 39.2569 44.4767 39.5543 44.4247 39.7592C44.3935 39.8836 44.3301 40.0415 44.2854 40.1102C44.2402 40.1783 43.894 40.4648 43.5162 40.7467C43.0713 41.0752 42.6178 41.3919 42.156 41.6965C41.7149 41.9799 41.2658 42.2508 40.8093 42.509C40.4381 42.7155 39.8664 43.0102 39.5374 43.1645C39.2084 43.3189 38.6938 43.5455 38.3939 43.6678C38.0935 43.7907 37.5327 43.9982 37.1465 44.1304C36.7609 44.262 36.1611 44.4494 35.8149 44.5464C35.4682 44.644 34.8274 44.8055 34.3913 44.9057C33.9547 45.0063 33.2676 45.1447 32.8642 45.2133C32.3615 45.2964 31.8571 45.3685 31.3512 45.4296C30.7727 45.4967 30.1698 45.5205 29.0123 45.521C27.833 45.521 27.2695 45.4993 26.6994 45.4296C26.2155 45.3688 25.7331 45.296 25.2529 45.2113C24.7212 45.1077 24.1926 44.9893 23.6676 44.8561C23.1313 44.7174 22.5997 44.5616 22.0735 44.389C21.6293 44.2355 21.1894 44.0699 20.7544 43.8924C20.3028 43.6993 19.8567 43.4939 19.4165 43.2766C18.9746 43.055 18.5392 42.8209 18.1109 42.5745C17.7287 42.3476 17.3516 42.1123 16.9799 41.8689C16.3376 41.4396 15.7134 40.9842 15.1088 40.5041C14.8024 40.2502 14.5009 39.9907 14.2044 39.7256C13.8078 39.3682 13.4264 38.9947 13.0609 38.606C12.7452 38.2614 12.4387 37.9086 12.142 37.5478C11.8614 37.1942 11.5902 36.8334 11.3286 36.4658C11.0793 36.1112 10.8401 35.7497 10.6113 35.3818C10.447 35.1124 10.1435 34.5544 9.93608 34.1429C9.69694 33.6607 9.47555 33.17 9.27235 32.6718C9.10146 32.2379 8.94408 31.7989 8.80041 31.3555C8.65693 30.8769 8.52488 30.3949 8.40435 29.9101C8.28873 29.4444 8.18475 28.9759 8.0925 28.505C8.02372 28.114 7.96289 27.7216 7.91006 27.3281C7.85146 26.8259 7.80881 26.322 7.7822 25.8172C7.75504 25.2182 7.75539 24.6182 7.78324 24.0193C7.80923 23.5185 7.8664 22.8454 7.9111 22.5223C7.95528 22.1991 8.02753 21.749 8.07171 21.5219C8.11589 21.2948 8.24219 20.7491 8.35238 20.3088C8.46257 19.869 8.61485 19.311 8.69126 19.0699C8.76766 18.8289 8.95893 18.306 9.1159 17.9085C9.27339 17.511 9.5868 16.8193 9.81238 16.3707C10.0418 15.9159 10.2855 15.4683 10.5432 15.0286C10.7194 14.7385 11.0037 14.2925 11.1752 14.037C11.3473 13.7815 11.7158 13.2699 11.9944 12.9009C12.2724 12.5313 12.722 11.9738 12.9923 11.662C13.2631 11.3497 13.8447 10.7457 14.2839 10.3193C14.7231 9.89297 15.3634 9.32153 15.7065 9.05053C16.0495 8.77901 16.5994 8.36915 16.9279 8.14047C17.285 7.893 17.649 7.65546 18.0194 7.42812C18.2912 7.265 18.7938 6.98573 19.1369 6.80713C19.5801 6.58166 20.0309 6.37094 20.4883 6.1753C20.8885 6.00651 21.5205 5.76286 21.8932 5.63485C22.3397 5.4834 22.7904 5.34397 23.2445 5.21672C23.6925 5.09608 24.1425 4.98319 24.5944 4.8781C25.077 4.77145 25.5623 4.67679 26.0497 4.59419C26.4785 4.52295 27.1801 4.429 27.609 4.38564C28.0378 4.34228 28.5055 4.29789 28.6485 4.28705C28.7914 4.27621 29.727 4.27414 30.7275 4.2824Z" />
		<path fill-rule="evenodd" clip-rule="evenodd" d="M55.3406 20.6773C56.0423 20.6732 56.931 20.6943 57.3157 20.7237C57.7003 20.7537 58.4108 20.8234 58.8947 20.8796C59.3781 20.9354 60.1265 21.0397 60.5579 21.1109C60.9888 21.1826 61.809 21.3556 62.3807 21.4955C62.9524 21.6348 63.7331 21.8558 64.1162 21.9858C64.5305 22.1286 64.9381 22.29 65.3376 22.4695C65.6266 22.6053 66.0544 22.8345 66.2877 22.9785C66.5216 23.123 66.8912 23.3724 67.1105 23.5334C67.3293 23.694 67.6968 24.0042 67.9265 24.222C68.1864 24.4718 68.4344 24.7334 68.6698 25.0061C68.8486 25.2188 69.1532 25.6256 69.3476 25.9095C69.5419 26.1934 69.8361 26.7044 70.0019 27.0451C70.1714 27.393 70.384 27.9443 70.4874 28.3021C70.5887 28.6531 70.7171 29.1909 70.7727 29.4981C70.8283 29.8057 70.8876 30.3199 70.9042 30.6415C70.9209 30.9631 70.9812 34.2538 71.0394 37.9534C71.1329 43.9857 71.1355 44.7084 71.0654 44.9495C71.0201 45.1028 70.924 45.2757 70.8419 45.3521C70.7618 45.4264 70.6386 45.5178 70.5669 45.556C70.4785 45.6035 70.1651 45.6319 69.5794 45.6458C69.1079 45.6561 67.9619 45.6391 67.0325 45.6066C66.1037 45.5741 65.1562 45.5235 64.9275 45.4935C64.6905 45.4626 64.44 45.3955 64.3454 45.3376C64.2392 45.267 64.1481 45.1763 64.0772 45.0708C64.0211 44.9799 63.9587 44.7951 63.9384 44.6604C63.9187 44.5257 63.8916 44.4152 63.8797 44.4152C63.8672 44.4152 63.6884 44.5071 63.4826 44.6191C63.2768 44.7311 62.8911 44.9061 62.625 45.0078C62.3599 45.1095 61.8131 45.2741 61.4103 45.3743C61.008 45.4739 60.442 45.5937 60.1525 45.6401C59.7726 45.7016 59.2715 45.7258 58.3526 45.7279C57.5844 45.73 56.852 45.7041 56.5074 45.6623C56.0814 45.6071 55.6569 45.5417 55.234 45.4662C54.7549 45.3762 54.2783 45.2735 53.8047 45.158C53.4129 45.0606 53.0231 44.956 52.6352 44.8442C52.2852 44.7341 51.9385 44.6136 51.5957 44.4828C51.1785 44.3184 50.7676 44.1384 50.3639 43.9434C49.9364 43.7275 49.5201 43.4904 49.1165 43.2331C48.7282 42.9769 48.3503 42.7057 47.9834 42.4201C47.6105 42.1127 47.2548 41.7853 46.9179 41.4393C46.618 41.127 46.2157 40.6526 46.0239 40.3852C45.8138 40.0876 45.6205 39.7786 45.4449 39.4597C45.3051 39.1896 45.1835 38.9106 45.0811 38.6245C44.9856 38.3206 44.9037 38.0126 44.8357 37.7015C44.7391 37.2535 44.7266 37.0666 44.7484 36.4461C44.7692 35.8608 44.8056 35.599 44.9319 35.1159C45.0182 34.7855 45.1715 34.3132 45.2723 34.068C45.3732 33.8218 45.6143 33.3835 45.8077 33.0944C46.001 32.8054 46.3389 32.3914 46.5587 32.1751C46.8431 31.9068 47.1487 31.6615 47.4725 31.4416C47.7557 31.2547 48.1263 31.0395 48.2968 30.9641C48.4678 30.8882 48.7708 30.77 48.9709 30.7008C49.171 30.6322 49.6622 30.4954 50.0624 30.3973C50.4626 30.2992 51.1056 30.1722 51.4918 30.1155C51.8774 30.0587 52.6789 29.9849 53.2719 29.9513C54.1077 29.9038 54.629 29.9043 55.5849 29.9523C56.2637 29.9869 57.1467 30.0494 57.547 30.0912C57.9472 30.1325 58.7076 30.2264 59.2362 30.2987C59.7648 30.371 60.5486 30.4882 60.9774 30.5589C61.4062 30.6291 62.0611 30.7463 62.4327 30.8185C63.0408 30.9368 63.6447 31.0752 64.2435 31.2335C64.3345 31.2604 64.3386 31.2206 64.3215 30.4954C64.3038 29.7324 64.3028 29.7278 64.1094 29.3246C63.9727 29.0407 63.8095 28.8115 63.5637 28.5581C63.3703 28.3588 62.967 28.0321 62.6666 27.8323C62.2613 27.5727 61.8417 27.3357 61.4098 27.1225C61.0184 26.9321 60.4763 26.7034 60.205 26.6141C59.8869 26.5093 59.4113 26.4107 58.8635 26.3369C58.1447 26.2388 57.7756 26.2213 56.4555 26.2207C55.1545 26.2197 54.8099 26.2352 54.3764 26.3152C54.0906 26.3679 53.5994 26.4918 53.2849 26.5903C52.7517 26.7571 52.695 26.7653 52.4398 26.7096C52.2891 26.6771 52.0978 26.5934 52.0146 26.5238C51.9315 26.4541 51.5635 26.0096 51.1965 25.5363C50.7578 24.968 50.3234 24.3964 49.8935 23.8215C49.4403 23.2134 49.2334 22.8892 49.1752 22.6961C49.1014 22.4504 49.1009 22.3993 49.1742 22.149C49.2189 21.9972 49.3166 21.8124 49.3914 21.7381C49.4663 21.6637 49.6596 21.5533 49.8207 21.4929C49.9819 21.432 50.4684 21.2936 50.9018 21.1852C51.3916 21.0649 51.8857 20.9626 52.3831 20.8786C52.7775 20.8168 53.1735 20.7662 53.5708 20.7268C53.8426 20.7036 54.6389 20.6809 55.3406 20.6773ZM55.26 35.1288C54.7169 35.1314 54.0854 35.1629 53.8556 35.198C53.6269 35.2336 53.3463 35.2924 53.2319 35.3291C53.1181 35.3657 52.8899 35.4633 52.7246 35.5454C52.5594 35.6274 52.3348 35.7745 52.2262 35.8721C52.1092 35.9774 51.958 36.2009 51.8566 36.4203C51.7184 36.7182 51.6841 36.857 51.6825 37.1316C51.681 37.4037 51.7106 37.5343 51.8306 37.782C51.9372 38.0014 52.1253 38.2342 52.4772 38.5822C52.8171 38.9187 53.1004 39.1438 53.378 39.2992C53.6009 39.4236 54.0084 39.6176 54.2834 39.7302C54.5589 39.8427 55.0001 39.9893 55.2642 40.0554C55.5292 40.1225 55.9986 40.2154 56.3084 40.2629C56.6582 40.3166 57.206 40.3506 57.7549 40.3527C58.3671 40.3553 58.8141 40.3279 59.2102 40.265C59.5701 40.2038 59.9259 40.1211 60.2757 40.0172C60.645 39.8926 61.0071 39.7478 61.3604 39.5836C61.7132 39.4158 62.0556 39.2274 62.3859 39.0194C62.625 38.8614 63.0148 38.5414 63.2529 38.3086C63.4914 38.0763 63.7841 37.7552 63.9041 37.5962C64.1151 37.317 64.1219 37.2963 64.1219 36.9148C64.1219 36.5215 64.1219 36.5215 63.7711 36.4131C63.4586 36.3201 63.1445 36.2331 62.8287 36.1519C62.3207 36.0287 61.8094 35.9189 61.2955 35.8226C60.4988 35.6803 59.6996 35.5521 58.8983 35.438C58.0979 35.3244 57.1743 35.2067 56.8453 35.1773C56.5163 35.1479 55.8032 35.1262 55.26 35.1288Z" />
		<path d="M75.8228 -0.129076C76.1648 -0.13507 76.506 -0.0931893 76.8363 -0.00467107C77.1595 0.0806082 77.4747 0.19374 77.7781 0.333438C78.0432 0.463004 78.2615 0.611154 78.3498 0.721105C78.4289 0.819182 78.5162 0.998303 78.5453 1.11857C78.5791 1.26053 78.5858 2.136 78.564 3.58394C78.5458 4.81869 78.5027 8.3149 78.4694 11.3528C78.4356 14.3906 78.4039 20.6743 78.3987 25.3159C78.3935 29.9576 78.4008 36.3688 78.4153 39.563C78.4413 45.3599 78.4413 45.3703 78.3337 45.5767C78.2745 45.6903 78.1227 45.8529 77.9959 45.9381C77.8467 46.0387 77.5546 46.1482 77.1679 46.2478C76.6367 46.3856 76.4865 46.4027 75.8165 46.4027C75.1606 46.4021 74.9938 46.3836 74.5301 46.2612C74.2156 46.1764 73.906 46.0742 73.6029 45.9551C73.3617 45.855 73.1237 45.7089 72.9906 45.5804C72.8373 45.4322 72.7572 45.3016 72.7198 45.138C72.684 44.9831 72.6782 43.9326 72.7032 41.9892C72.724 40.3848 72.7567 36.0529 72.7765 32.3621C72.7983 28.3667 72.7895 23.0096 72.7557 19.1216C72.724 15.5299 72.6741 11.1282 72.645 9.33955C72.6159 7.55092 72.5701 5.11085 72.5441 3.9174C72.5124 2.48753 72.514 1.66936 72.5483 1.51811C72.5764 1.39216 72.6585 1.21252 72.7302 1.11961C72.8014 1.02669 73.0369 0.831571 73.2541 0.686003C73.4869 0.531679 73.73 0.393358 73.9818 0.272011C74.1647 0.189419 74.5411 0.0660484 74.8186 -0.00157361C75.1469 -0.0845342 75.4841 -0.127353 75.8228 -0.129076Z" />
		<path fill-rule="evenodd" clip-rule="evenodd" d="M83.7428 16.7017C84.0043 16.7024 84.2653 16.7266 84.5224 16.774C84.7225 16.8158 85.0734 16.9392 85.3021 17.0491C85.5307 17.1586 85.8514 17.3563 86.0141 17.4889C86.1778 17.6216 86.418 17.8683 86.5495 18.0371C86.6794 18.2059 86.8665 18.5131 86.9648 18.7201C87.0625 18.9265 87.1815 19.2925 87.2298 19.5326C87.2912 19.8392 87.3083 20.1014 87.288 20.4101C87.2643 20.6998 87.2103 20.9863 87.1269 21.2649C87.0413 21.5214 86.9305 21.769 86.7964 22.0041C86.6872 22.1827 86.4492 22.479 86.2667 22.6623C86.0848 22.8455 85.801 23.0763 85.6378 23.1749C85.4363 23.2919 85.2261 23.3934 85.0089 23.4784C84.827 23.546 84.4928 23.6296 84.2657 23.6642C84.0161 23.7001 83.7635 23.7091 83.512 23.6911C83.2924 23.6666 83.0744 23.6294 82.8592 23.5796C82.6877 23.5372 82.3717 23.418 82.1575 23.3142C81.8561 23.1687 81.6617 23.021 81.2978 22.6597C80.9361 22.3004 80.7843 22.1037 80.6377 21.8059C80.5247 21.5726 80.43 21.331 80.3545 21.0832C80.2895 20.8458 80.2635 20.5737 80.2666 20.1541C80.2703 19.6621 80.2947 19.4897 80.407 19.1475C80.4813 18.9204 80.6232 18.6013 80.7214 18.4393C80.8202 18.2767 80.9881 18.0382 81.0941 17.9091C81.2006 17.7801 81.4309 17.5674 81.6055 17.4358C81.8209 17.28 82.049 17.1423 82.2875 17.0244C82.513 16.9207 82.7479 16.8386 82.9891 16.7792C83.2377 16.7325 83.4898 16.7066 83.7428 16.7017ZM84.6809 18.2958C84.6047 18.2986 84.5317 18.3272 84.4741 18.3768C84.4294 18.4217 84.393 18.5317 84.394 18.622C84.3951 18.7123 84.4278 19.0246 84.4673 19.3173C84.5068 19.609 84.5682 19.8836 84.604 19.9264C84.643 19.9729 84.7329 19.9982 84.8244 19.9889C84.9102 19.9806 85.0042 19.9347 85.0339 19.8872C85.0723 19.8268 85.0682 19.6115 85.0214 19.1645C84.9845 18.8145 84.9206 18.4759 84.88 18.4119C84.8584 18.3783 84.8291 18.3503 84.7945 18.3301C84.7599 18.3099 84.721 18.2981 84.6809 18.2958ZM82.4954 18.5539C82.433 18.5539 82.3394 18.5998 82.289 18.6555C82.2038 18.7485 82.2012 18.799 82.2578 19.2621C82.2927 19.5398 82.3337 19.8557 82.3498 19.9641C82.3691 20.088 82.4226 20.1887 82.4954 20.2361C82.53 20.2624 82.5713 20.2787 82.6146 20.2833C82.6579 20.288 82.7017 20.2808 82.7412 20.2625C82.8124 20.2356 82.8862 20.1747 82.9049 20.1262C82.9231 20.0782 82.9008 19.7458 82.8545 19.387C82.801 18.9709 82.7412 18.702 82.6897 18.6442C82.6384 18.5913 82.5692 18.5591 82.4954 18.5539Z" />
		<path d="M86.5496 25.077C87.1827 25.0826 87.3006 25.0976 87.4592 25.1895C87.559 25.2478 87.691 25.3702 87.7523 25.4605C87.8142 25.5508 87.8885 25.7702 87.9186 25.9478C87.954 26.1605 87.9763 29.3898 87.9846 35.4076C87.9914 40.4328 87.9779 44.614 87.9545 44.6992C87.9311 44.7844 87.8682 44.916 87.8142 44.9924C87.7354 45.0911 87.6405 45.1759 87.5335 45.2433C87.3807 45.3372 87.2029 45.3687 86.482 45.4281C86.0044 45.4673 85.3988 45.536 85.1358 45.5804C84.8734 45.6242 84.4757 45.7042 84.2522 45.7569C83.9118 45.8374 83.8053 45.8431 83.5885 45.7936C83.4187 45.7574 83.2635 45.6721 83.1426 45.5484C82.9991 45.4059 82.9399 45.2903 82.8905 45.0564C82.8551 44.8887 82.3863 40.6899 81.8499 35.7272C81.0334 28.1736 80.8832 26.6653 80.9279 26.4707C80.9632 26.3163 81.0464 26.1739 81.1742 26.0464C81.3536 25.8688 81.4258 25.8409 82.1654 25.6654C82.6113 25.5595 83.0593 25.4623 83.509 25.3738C83.9144 25.302 84.3217 25.2411 84.7304 25.191C85.1021 25.1466 85.4997 25.1012 85.614 25.0904C85.7284 25.0795 86.1494 25.0733 86.5496 25.077Z" />
		<path fill-rule="evenodd" clip-rule="evenodd" d="M97.9999 1.89078C98.0664 1.88511 98.2301 1.9073 98.3637 1.93982C98.4983 1.97286 98.6703 2.04306 98.7473 2.09571C98.8237 2.14888 98.9349 2.26967 98.9941 2.36517C99.055 2.46222 99.1147 2.67128 99.1319 2.84162C99.148 3.00835 99.0435 7.17563 98.8996 12.1012C98.7556 17.0273 98.634 21.2663 98.6293 21.5218C98.6251 21.7773 98.6241 22.2703 98.6277 22.6182C98.634 23.2495 98.634 23.2495 99.1147 22.9961C99.421 22.8369 99.7336 22.6902 100.052 22.5563C100.303 22.4535 100.806 22.2889 101.169 22.1898C101.533 22.0906 102.088 21.9606 102.402 21.9012C102.83 21.8207 103.26 21.7871 104.117 21.768C104.97 21.7494 105.443 21.7639 105.976 21.8248C106.368 21.8702 107.023 21.9797 107.431 22.0674C107.838 22.1562 108.522 22.3426 108.951 22.4824C109.379 22.6223 110.012 22.8748 110.357 23.0435C110.702 23.2123 111.228 23.5128 111.527 23.711C111.825 23.9092 112.259 24.2225 112.491 24.4073C112.793 24.6558 113.085 24.9176 113.364 25.192C113.664 25.4959 113.95 25.813 114.222 26.1423C114.483 26.4694 114.73 26.8069 114.964 27.154C115.148 27.4348 115.375 27.8003 115.468 27.966C115.56 28.1317 115.725 28.4688 115.834 28.7145C115.943 28.9602 116.095 29.3474 116.172 29.5745C116.249 29.8016 116.391 30.3049 116.487 30.6931C116.583 31.0808 116.702 31.7079 116.751 32.0868C116.819 32.6216 116.832 33.0051 116.81 33.8073C116.795 34.3751 116.744 35.0834 116.698 35.3817C116.631 35.78 116.551 36.176 116.459 36.569C116.369 36.9408 116.272 37.3108 116.167 37.6788C116.092 37.9343 115.928 38.3989 115.802 38.7112C115.654 39.0709 115.49 39.424 115.31 39.7694C115.124 40.1102 114.923 40.4434 114.71 40.7683C114.47 41.1206 114.217 41.4643 113.952 41.7986C113.645 42.1692 113.32 42.5248 112.979 42.864C112.629 43.2029 112.264 43.525 111.883 43.8293C111.538 44.0949 111.184 44.3497 110.822 44.5933C110.536 44.7822 109.998 45.0852 109.627 45.2664C109.255 45.4476 108.706 45.6804 108.405 45.7831C108.105 45.8864 107.542 46.0485 107.153 46.1434C106.764 46.2384 106.191 46.3592 105.879 46.4113C105.42 46.4877 105.033 46.5053 103.832 46.5043C102.4 46.5027 102.328 46.4981 101.702 46.3577C101.281 46.2607 100.865 46.1472 100.453 46.0175C100.063 45.8852 99.6806 45.7295 99.3091 45.5514C98.9776 45.3845 98.654 45.2026 98.3393 45.0063C97.9141 44.7327 97.9141 44.7327 97.8787 44.9407C97.8543 45.0837 97.7821 45.2096 97.648 45.3433C97.5274 45.4703 97.3705 45.5575 97.1984 45.5932C97.0591 45.6241 96.5591 45.6634 96.0871 45.6799C95.6157 45.6969 94.5346 45.7449 93.6859 45.7867C92.5284 45.844 92.085 45.8487 91.9135 45.8064C91.7877 45.7749 91.6224 45.6918 91.5465 45.6216C91.4616 45.5413 91.385 45.4527 91.3178 45.3573C91.2378 45.2354 91.2258 45.0346 91.2118 43.5661C91.203 42.656 91.256 33.1801 91.3293 22.5093C91.4254 8.53787 91.48 3.04087 91.5226 2.87259C91.5606 2.72186 91.6515 2.56907 91.7768 2.44466C91.9239 2.29858 92.0393 2.23767 92.2498 2.19637C92.4021 2.16592 92.9358 2.11843 93.4364 2.08952C94.2071 2.04859 94.9781 2.01315 95.7493 1.98318L97.5165 1.91453C97.7166 1.90679 97.9344 1.89595 97.9999 1.89078ZM104.319 27.1793C103.922 27.1824 103.422 27.2144 103.208 27.2506C102.994 27.2867 102.631 27.3786 102.402 27.4545C102.174 27.5309 101.729 27.7151 101.415 27.8648C101.1 28.0145 100.649 28.2572 100.411 28.4038C100.173 28.5504 99.8341 28.7806 99.6579 28.9153C99.4812 29.05 99.188 29.3117 99.0061 29.4965C98.8242 29.6813 98.5877 29.9601 98.4796 30.1165C98.372 30.2729 98.1901 30.5862 98.0752 30.8134C97.9603 31.0405 97.7945 31.4287 97.7062 31.6765C97.6184 31.9242 97.5087 32.3305 97.4619 32.5798C97.4115 32.8472 97.3652 33.448 97.3491 34.0443C97.332 34.6673 97.345 35.2542 97.3824 35.5727C97.4156 35.8571 97.4894 36.2851 97.5466 36.5225C97.6038 36.7605 97.7363 37.1528 97.8403 37.3949C97.9442 37.636 98.1485 38.0412 98.293 38.2946C98.4738 38.6062 98.6931 38.8941 98.9458 39.1515C99.2117 39.4236 99.5149 39.657 99.8466 39.8448C100.127 40.0084 100.572 40.2412 100.834 40.3625C101.096 40.4838 101.533 40.6532 101.804 40.7394C102.076 40.825 102.485 40.9236 102.714 40.9577C102.943 40.9923 103.469 41.0197 103.884 41.0186C104.298 41.0181 104.871 40.9814 105.157 40.9386C105.443 40.8952 105.887 40.7858 106.144 40.696C106.402 40.6057 106.799 40.4384 107.028 40.3243C107.256 40.2108 107.612 40.0038 107.819 39.8649C108.026 39.7261 108.42 39.3998 108.694 39.1391C108.969 38.8785 109.342 38.4691 109.523 38.2291C109.705 37.9885 109.981 37.5461 110.138 37.2452C110.295 36.9443 110.505 36.4632 110.606 36.1767C110.706 35.8897 110.83 35.4019 110.881 35.0927C110.947 34.6993 110.975 34.258 110.975 33.6267C110.975 32.9675 110.95 32.5979 110.882 32.2587C110.807 31.9251 110.708 31.5973 110.585 31.2779C110.474 30.994 110.273 30.5759 110.139 30.3488C109.991 30.1 109.831 29.8588 109.659 29.6261C109.528 29.4558 109.265 29.1615 109.075 28.9726C108.862 28.7634 108.636 28.5675 108.399 28.3862C108.217 28.2525 107.838 28.029 107.558 27.8891C107.245 27.7359 106.924 27.6011 106.596 27.4854C106.348 27.4028 105.896 27.2996 105.592 27.2547C105.275 27.2082 104.732 27.1762 104.319 27.1793Z" />
		<path d="M121.945 23.4571L120.308 23.3281C120.134 23.3141 119.927 23.3348 119.78 23.3812C119.627 23.4316 119.49 23.5195 119.38 23.6368C119.293 23.7354 119.197 23.9041 119.167 24.011C119.136 24.1184 118.874 26.529 118.585 29.3681C118.084 34.2699 118.058 34.5926 118.053 35.769C118.05 36.5655 118.073 37.1834 118.118 37.4982C118.183 37.897 118.265 38.2931 118.361 38.6855C118.455 39.0685 118.596 39.5568 118.673 39.7695C118.768 40.024 118.875 40.2738 118.994 40.518C119.134 40.784 119.288 41.0425 119.455 41.2923C119.635 41.5535 119.828 41.8053 120.034 42.0465C120.226 42.2614 120.431 42.4656 120.646 42.6582C120.887 42.8605 121.136 43.0522 121.394 43.2327C121.634 43.3994 122.048 43.6415 122.313 43.7706C122.578 43.8996 123.071 44.0947 123.409 44.2042C123.81 44.331 124.215 44.4419 124.624 44.5366C125.037 44.6243 125.454 44.6972 125.872 44.755C126.323 44.8138 126.716 44.8308 127.169 44.8117C127.646 44.7911 127.99 44.7415 128.468 44.6238C128.826 44.5361 129.34 44.3921 129.612 44.3038C129.883 44.2155 130.349 44.0302 130.646 43.8924C130.943 43.754 131.192 43.641 131.198 43.641C131.204 43.641 131.224 43.7102 131.24 43.7943C131.258 43.8785 131.362 44.0369 131.472 44.1469C131.631 44.3048 131.736 44.358 131.981 44.4065C132.15 44.4396 133.013 44.5258 133.9 44.598C135.192 44.7033 135.558 44.7178 135.753 44.6713C135.916 44.6312 136.064 44.5473 136.182 44.4287C136.284 44.3265 136.393 44.1603 136.424 44.0581C136.454 43.9564 136.89 39.8005 137.392 34.8223C138.211 26.7128 138.299 25.7428 138.244 25.4982C138.201 25.3041 138.13 25.1724 137.999 25.0424C137.879 24.9231 137.73 24.8395 137.571 24.8018C137.437 24.7698 136.569 24.679 135.642 24.6005C134.334 24.4895 133.904 24.4699 133.72 24.5112C133.557 24.5484 133.419 24.6294 133.272 24.775C133.101 24.9448 133.049 25.0439 132.999 25.2922C132.965 25.4615 132.681 28.1752 132.368 31.3224C131.798 37.0447 131.798 37.045 131.5 37.4394C131.267 37.7348 131.02 38.0185 130.759 38.2896C130.515 38.5404 130.178 38.8486 130.009 38.9751C129.84 39.1015 129.464 39.3204 129.175 39.4613C128.887 39.6028 128.498 39.7571 128.312 39.8041C128.086 39.8619 127.76 39.8908 127.325 39.8908C126.968 39.8913 126.536 39.864 126.365 39.8304C126.194 39.7964 125.842 39.6663 125.582 39.5403C125.199 39.355 125.043 39.2425 124.763 38.9482C124.546 38.7118 124.351 38.4557 124.181 38.1832C124.051 37.9628 123.877 37.6077 123.795 37.395C123.713 37.1823 123.614 36.8334 123.575 36.6207C123.526 36.3538 123.506 35.833 123.511 34.9431C123.517 33.7171 123.541 33.4259 123.982 29.1105C124.364 25.3732 124.436 24.5277 124.392 24.3357C124.356 24.1752 124.273 24.0373 124.127 23.8928C123.956 23.7224 123.858 23.6713 123.606 23.6228C123.436 23.5898 122.688 23.5155 121.945 23.4571Z" />
		<path d="M156.831 21.3438C156.465 21.3144 155.576 21.2932 154.856 21.2973C154.136 21.3015 153.476 21.3133 153.391 21.3237C153.305 21.3335 152.97 21.3779 152.646 21.4223C152.323 21.4661 151.691 21.5926 151.243 21.7031C150.795 21.8135 150.229 21.9725 149.986 22.0551C149.743 22.1382 149.363 22.2786 149.143 22.3664C148.811 22.5052 148.483 22.655 148.161 22.8155C147.843 22.974 147.334 23.2563 147.03 23.4421C146.727 23.6285 146.404 23.8376 146.313 23.9067C146.147 24.0327 146.147 24.0327 146.092 23.8355C146.061 23.7271 146.036 23.612 146.036 23.58C146.036 23.5475 145.944 23.4298 145.832 23.3183C145.694 23.1815 145.552 23.0984 145.396 23.0627C145.207 23.0199 144.925 23.0452 143.821 23.2047C143.081 23.3121 141.984 23.4819 141.384 23.5831C140.784 23.6837 140.204 23.7916 140.095 23.8216C139.985 23.8525 139.809 23.9635 139.703 24.0693C139.575 24.1958 139.492 24.3393 139.456 24.4916C139.409 24.6981 139.586 25.7408 141.126 34.3494C142.073 39.6441 142.876 44.1009 142.91 44.2537C142.943 44.406 143.018 44.596 143.075 44.676C143.151 44.7727 143.243 44.8558 143.347 44.9217C143.46 44.9844 143.581 45.0297 143.707 45.0559C143.831 45.0781 144.293 45.0254 145.007 44.9093C145.615 44.8097 146.453 44.6811 146.868 44.6238C147.282 44.5671 147.76 44.4922 147.929 44.4587C148.17 44.4106 148.279 44.3559 148.429 44.2068C148.555 44.0856 148.643 43.9309 148.683 43.7613C148.739 43.5295 148.67 42.9545 147.908 37.2629C147.448 33.8296 147.069 30.9487 147.066 30.862C147.062 30.7675 147.16 30.5006 147.307 30.2023C147.443 29.9261 147.653 29.5674 147.773 29.4053C147.894 29.2427 148.154 28.9515 148.352 28.7574C148.551 28.5634 148.864 28.3042 149.051 28.1814C149.236 28.0585 149.564 27.8644 149.778 27.7498C149.993 27.6352 150.433 27.4355 150.756 27.3064C151.105 27.1689 151.461 27.0483 151.821 26.9451C152.084 26.8749 152.521 26.7763 152.793 26.7262C153.189 26.6529 153.565 26.6354 154.69 26.6364C155.479 26.6364 156.281 26.6637 156.524 26.6983C156.856 26.7448 157.016 26.7448 157.224 26.6968C157.415 26.6529 157.546 26.5822 157.672 26.4531C157.824 26.2978 157.935 26.033 158.418 24.6707C158.732 23.7906 159.019 22.9569 159.057 22.8175C159.115 22.6162 159.116 22.512 159.068 22.3029C159.025 22.1191 158.95 21.9844 158.816 21.8517C158.649 21.6855 158.557 21.6468 158.061 21.5307C157.751 21.4579 157.197 21.3743 156.831 21.3438Z" />
	</g>
	<g class="text">
		<path d="M161.365 40.3497C161.022 40.2372 160.847 40.2145 160.207 40.2C159.58 40.1856 159.389 40.2 159.068 40.2857C158.809 40.36 158.557 40.4555 158.314 40.5712C158.071 40.6977 157.839 40.845 157.622 41.0115C157.443 41.1529 157.167 41.425 157.008 41.616C156.848 41.8069 156.614 42.1724 156.486 42.4279C156.359 42.6835 156.221 43.0551 156.179 43.2538C156.137 43.4526 156.102 43.8728 156.102 44.1877C156.102 44.5913 156.132 44.8804 156.205 45.1684C156.287 45.4594 156.394 45.7428 156.525 46.0155C156.706 46.382 156.828 46.5395 157.266 46.9725C157.696 47.3979 157.87 47.53 158.232 47.7092C158.507 47.8407 158.792 47.9478 159.085 48.0292C159.379 48.1025 159.668 48.1319 160.099 48.1309C160.43 48.1304 160.865 48.0958 161.065 48.0545C161.265 48.0132 161.639 47.8754 161.897 47.7484C162.154 47.6214 162.507 47.4005 162.681 47.257C162.856 47.114 163.132 46.8321 163.293 46.6308C163.454 46.4295 163.667 46.0981 163.766 45.8942C163.873 45.667 163.96 45.4308 164.026 45.1886C164.071 45.0048 164.121 44.6331 164.136 44.3637C164.156 44.0364 164.14 43.7349 164.09 43.4567C164.048 43.2275 163.955 42.8961 163.883 42.7196C163.811 42.543 163.674 42.2664 163.578 42.1043C163.482 41.9422 163.205 41.6103 162.962 41.3671C162.702 41.1065 162.366 40.8329 162.145 40.7033C161.939 40.582 161.588 40.4225 161.365 40.3497Z" />
		<path d="M175.052 15.3569C174.948 15.2929 174.755 15.2403 174.573 15.2263C174.387 15.2124 173.938 15.2537 173.435 15.3311C172.978 15.4018 171.937 15.5655 171.122 15.6945C170.308 15.8236 169.524 15.9562 169.381 15.9888C169.191 16.0321 169.063 16.1054 168.906 16.2613C168.753 16.4136 168.677 16.5421 168.64 16.7104C168.597 16.9097 168.668 17.4568 169.099 20.3166C169.426 22.4779 169.59 23.6992 169.556 23.7199C169.527 23.7374 169.336 23.7808 169.131 23.8159C168.925 23.851 168.119 24.0048 167.337 24.1581C166.267 24.3677 165.877 24.4647 165.752 24.5515C165.661 24.615 165.558 24.7027 165.522 24.7461C165.487 24.7899 165.423 24.9402 165.38 25.0806C165.303 25.3283 165.308 25.3769 165.561 26.784C165.679 27.4473 165.803 28.1094 165.934 28.7704C166.034 29.2494 166.066 29.3278 166.234 29.4946C166.355 29.6185 166.51 29.7039 166.68 29.7398C166.902 29.7909 167.025 29.7811 167.562 29.6721C168.14 29.5575 168.719 29.4468 169.299 29.3402C169.911 29.2272 170.417 29.141 170.424 29.1482C170.432 29.1554 170.616 30.3463 170.834 31.7942C171.025 33.0557 171.301 34.8754 171.491 36.1305L171.569 36.6465C171.774 37.9917 171.976 39.1361 172.084 39.5517C172.192 39.9607 172.321 40.3637 172.472 40.7591C172.604 41.0777 172.755 41.3877 172.926 41.6872C173.061 41.9112 173.322 42.2973 173.508 42.5451C173.693 42.7929 174.104 43.2513 174.421 43.5636C174.737 43.8759 175.183 44.263 175.411 44.4236C175.64 44.5846 175.996 44.8117 176.204 44.9284C176.481 45.0791 176.764 45.2184 177.052 45.346C177.381 45.4864 177.714 45.6162 178.051 45.7352C178.342 45.8364 178.991 46.0196 179.493 46.143C180.009 46.2696 180.529 46.3803 181.052 46.4749C181.465 46.5415 181.88 46.5947 182.297 46.6344C182.626 46.6623 183.288 46.6861 183.768 46.6861C184.249 46.6861 184.81 46.6608 185.015 46.6293C185.221 46.5978 185.437 46.5487 185.494 46.5198C185.583 46.4671 185.666 46.4048 185.742 46.334C185.821 46.2607 185.92 46.0847 185.963 45.9432C186.033 45.7099 186.027 45.5091 185.908 43.7731C185.833 42.6804 185.744 41.7486 185.702 41.6005C185.661 41.4565 185.563 41.2799 185.483 41.204C185.403 41.1281 185.268 41.0383 185.182 41.0032C185.079 40.9614 184.645 40.9361 183.908 40.9284C183.188 40.9206 182.588 40.8855 182.219 40.8303C181.905 40.7828 181.371 40.6532 181.034 40.5412C180.697 40.4302 180.185 40.2186 179.896 40.0715C179.554 39.897 179.258 39.6978 179.042 39.4975C178.86 39.3287 178.632 39.0592 178.536 38.8992C178.438 38.7392 178.31 38.4687 178.25 38.2983C178.167 38.064 178.001 36.822 177.568 33.188C177.253 30.5476 176.989 28.3295 176.983 28.2588C176.981 28.2318 176.979 28.2105 176.985 28.1926C177.011 28.1247 177.166 28.106 177.905 28.0162C178.42 27.9532 179.39 27.8443 180.062 27.7725C180.734 27.7013 181.81 27.596 182.453 27.5382C183.097 27.4814 183.761 27.4066 183.93 27.373C184.169 27.325 184.281 27.2692 184.426 27.1252C184.55 27.0013 184.631 26.8589 184.668 26.7019C184.709 26.5228 184.694 26.05 184.603 24.7419C184.538 23.7942 184.47 22.926 184.451 22.8124C184.432 22.6988 184.372 22.5249 184.316 22.4252C184.261 22.3261 184.13 22.1888 184.026 22.1217C183.899 22.0386 183.735 21.9911 183.522 21.9746C183.349 21.9612 182.681 21.9999 182.037 22.0603C181.394 22.1207 180.423 22.2167 179.88 22.274C179.337 22.3308 178.322 22.4469 177.625 22.5311C176.927 22.6157 176.343 22.672 176.328 22.6565C176.312 22.641 176.131 21.2179 175.925 19.4943C175.719 17.7702 175.523 16.2216 175.489 16.0523C175.456 15.8829 175.382 15.6816 175.327 15.6042C175.272 15.5273 175.148 15.4158 175.052 15.3569Z" />
		<path d="M191.159 21.16C190.587 21.0635 189.85 20.9298 189.522 20.8632C189.027 20.7626 188.885 20.7512 188.697 20.7972C188.556 20.8317 188.398 20.9236 188.278 21.0408C188.147 21.1693 188.068 21.3066 188.031 21.4718C187.98 21.6876 188.002 21.843 188.228 22.9069C188.406 23.7257 188.595 24.5419 188.797 25.3552C189.002 26.1669 189.22 26.9755 189.449 27.7808C189.689 28.5969 189.941 29.4093 190.206 30.2178C190.493 31.075 190.793 31.9275 191.108 32.775C191.412 33.5801 191.729 34.3803 192.059 35.1753C192.358 35.8844 192.666 36.5899 192.982 37.2918C193.233 37.8451 193.804 39.0184 194.251 39.8986C194.698 40.7787 195.305 41.9288 195.6 42.4537C195.896 42.9787 196.431 43.8965 196.79 44.4927C197.107 45.0222 197.431 45.5476 197.762 46.0687C197.937 46.3397 198.138 46.5968 198.206 46.6411C198.315 46.7009 198.432 46.7462 198.553 46.7759C198.697 46.8141 198.85 46.8143 198.994 46.7764C199.121 46.7446 199.242 46.6941 199.354 46.6267C199.43 46.574 199.599 46.3696 199.73 46.1729C200.05 45.6708 200.363 45.1646 200.669 44.6543C201.105 43.9319 201.531 43.204 201.947 42.4708C202.264 41.9076 202.964 40.5645 203.504 39.4856C204.043 38.4068 204.688 37.0595 204.936 36.4917C205.185 35.9238 205.604 34.925 205.868 34.272C206.189 33.4682 206.497 32.6594 206.792 31.8459C207.075 31.0502 207.346 30.25 207.603 29.4455C207.804 28.807 208.073 27.9124 208.201 27.4582C208.553 26.1922 208.875 24.9186 209.169 23.6383C209.259 23.2408 209.386 22.6488 209.454 22.322C209.557 21.8192 209.567 21.6907 209.518 21.479C209.479 21.3061 209.402 21.1714 209.269 21.0408C209.149 20.9236 208.991 20.8317 208.85 20.7972C208.662 20.7512 208.52 20.7626 208.025 20.8632C207.697 20.9298 206.96 21.0635 206.388 21.16C205.816 21.2571 205.273 21.3515 205.179 21.3712C205.086 21.3903 204.921 21.4935 204.813 21.6009C204.675 21.7382 204.596 21.8776 204.547 22.0716C204.509 22.2239 204.365 22.7541 204.228 23.2512C204.091 23.7483 203.823 24.6542 203.633 25.2643C203.406 25.982 203.169 26.6961 202.921 27.4066C202.72 27.9744 202.357 28.95 202.113 29.5746C201.869 30.1992 201.465 31.1862 201.214 31.7684C200.963 32.3507 200.592 33.1833 200.389 33.6195C200.186 34.0552 199.747 34.9554 199.413 35.6193C199.08 36.2836 198.791 36.8272 198.773 36.8272C198.755 36.8272 198.398 36.136 197.98 35.2915C197.563 34.447 197.065 33.4074 196.873 32.9815C196.681 32.5556 196.397 31.9052 196.24 31.5361C195.759 30.3964 195.305 29.2456 194.878 28.0848C194.712 27.6265 194.408 26.7407 194.201 26.1166C193.784 24.8371 193.4 23.5468 193.051 22.2472C192.953 21.8672 192.897 21.7511 192.742 21.5967C192.636 21.4914 192.475 21.3934 192.375 21.3727C192.278 21.3526 191.731 21.2571 191.159 21.16Z" />
	</g>
</svg>
