<svg width="263" height="49" viewBox="0 0 263 49" fill="#F06E8E" xmlns="http://www.w3.org/2000/svg">
	<g class="logo">
		<path fill-rule="evenodd" clip-rule="evenodd" d="M100.401 46.9149C101.053 47.2447 102.084 47.6393 102.694 47.7917C104.221 48.174 107.35 48.0118 109.202 47.4545C111.155 46.8666 112.616 46.0223 114.208 44.5602C116.876 42.1117 118.185 39.2853 118.388 35.5376C118.587 31.8576 117.371 28.8587 114.664 26.3524C111.144 23.0929 105.847 22.1452 101.242 23.9514C100.52 24.2346 99.8968 24.4345 99.8576 24.3957C99.8184 24.3569 99.9156 20.2885 100.074 15.355C100.424 4.42617 100.465 3.55696 100.087 3.29584C100.041 3.26404 99.9889 3.24125 99.9302 3.21042C99.6169 3.04586 98.5746 3.02099 96.374 3.12557C93.8449 3.24578 93.1941 3.33924 92.9041 3.62389C92.573 3.94957 92.5363 5.52595 92.4001 25.3309C92.283 42.3468 92.3062 46.749 92.5142 46.995C92.7308 47.251 93.2697 47.2904 95.6676 47.2258C98.2819 47.1553 98.5914 47.1078 98.888 46.7315C99.2157 46.3157 99.2179 46.316 100.401 46.9149ZM112.488 35.1053C112.456 38.155 111.014 40.5016 108.41 41.7446C106.982 42.426 104.968 42.6868 103.646 42.3616C102.622 42.1093 100.568 41.0839 100.13 40.6057C98.1882 38.485 97.9953 33.9638 99.7406 31.4743C100.87 29.8629 103.614 28.5044 105.739 28.5044C108.512 28.5044 110.66 29.7701 111.823 32.0895C112.432 33.304 112.504 33.6271 112.488 35.1053Z" />
		<path d="M73.4712 46.9541L74.406 47.4275C75.2007 47.8301 75.5687 47.8887 76.8629 47.8147C77.4805 47.7796 77.9326 47.913 78.2642 47.7689C79.304 47.3173 79.1591 44.1381 79.2164 24.4839C79.2763 3.9246 79.3611 1.78315 78.5692 1.38494C78.4056 1.30268 78.2047 1.29481 77.9584 1.21436C76.5245 0.746028 74.7505 1.06684 73.8094 1.96466L73.2349 2.51271L73.4712 46.9541Z" />
		<path fill-rule="evenodd" clip-rule="evenodd" d="M47.4166 43.2623C49.5094 45.1638 52.1061 46.3404 55.5703 46.9571C58.4788 47.4749 61.7072 47.1805 63.6394 46.2216L64.3975 45.8454L64.52 46.3244C64.6852 46.9698 65.113 47.0499 68.4129 47.0531C70.7099 47.0554 71.2939 46.9968 71.5091 46.7423C71.7198 46.493 71.744 44.8567 71.6268 38.7905C71.4729 30.8282 71.3643 29.8287 70.464 28.0969C69.8103 26.8395 67.6996 24.763 66.366 24.0655C63.0917 22.3528 56.2537 21.4962 52.0929 22.2775C48.8223 22.8915 48.6651 23.2706 50.6148 25.8405C51.3688 26.8341 52.1202 27.7567 52.2846 27.8907C52.5184 28.0811 52.8909 28.058 53.9933 27.7844C55.8595 27.3213 59.2483 27.4656 60.9182 28.0793C63.5131 29.0329 64.8528 30.3125 64.8542 31.8392C64.8549 32.5744 64.8214 32.6175 64.341 32.4992C60.6376 31.587 54.2208 31.1164 51.4048 31.5505C47.7099 32.12 45.6423 33.7993 44.9181 36.8191C44.3991 38.9826 45.3202 41.3575 47.4166 43.2623ZM64.6472 38.359C64.6472 39.0164 63.1074 40.4084 61.6351 41.0822C60.5698 41.5697 60.0868 41.6598 58.3113 41.7021C55.1443 41.7775 52.8427 40.8646 52.0411 39.215C51.7625 38.6418 51.7572 38.4705 52.0023 37.9794C52.6053 36.7715 53.2089 36.5545 55.8862 36.5827C58.1392 36.6066 61.8585 37.1192 63.8682 37.6829C64.4709 37.852 64.6472 38.005 64.6472 38.359Z" />
		<path d="M82.8398 37.9795C83.3609 42.7984 83.8859 46.8579 84.0066 47.0005C84.0619 47.066 84.1029 47.1178 84.154 47.1562C84.349 47.303 84.691 47.2544 86.5405 47.0224C87.5818 46.8917 88.5505 46.697 88.6934 46.5897C89.0878 46.2931 89.0688 27.3107 88.6735 26.7802C88.4432 26.4711 88.1417 26.4118 86.9623 26.4436C86.1749 26.4649 84.8284 26.6208 83.97 26.7901C82.1487 27.1494 81.6122 27.5893 81.7832 28.583C81.8432 28.9323 82.3187 33.1607 82.8398 37.9795Z" />
		<path d="M7.86882 32.1668C10.1092 39.7737 17.2337 45.6331 25.6987 46.8302C29.717 47.3985 34.9196 46.6108 38.9883 44.8173C40.7665 44.0335 44.2491 41.7997 44.3946 41.3497C44.5565 40.8491 43.3036 34.7785 42.9992 34.589C42.4765 34.2635 42.0093 34.4309 40.6762 35.4211C38.1396 37.3054 35.7186 38.5171 33.073 39.2268C31.1395 39.7454 26.3796 39.7524 24.6726 39.2391C21.8525 38.3912 18.7949 36.4464 17.3363 34.5731C16.2537 33.1828 15.329 31.3533 14.8794 29.7119C14.3829 27.8993 14.3788 24.5123 14.8712 22.9094C16.3178 18.2009 19.9217 14.7305 24.9718 13.183C26.3561 12.7588 26.9349 12.7056 30.1652 12.7056C33.2439 12.7056 34.1476 12.7809 36.0666 13.1976L38.3326 13.6897L38.7048 13.2386C38.9095 12.9906 39.0406 12.6774 38.9961 12.5427C38.9517 12.408 38.6649 10.988 38.3588 9.38704C37.9609 7.30618 37.7056 6.42585 37.4633 6.29941C36.0251 5.54894 28.7252 5.22646 25.5348 5.77244C18.8337 6.91918 13.7129 10.2528 10.0557 15.8495C6.97033 20.5702 6.18321 26.4435 7.86882 32.1668Z" />
		<path d="M145.174 45.6938C145.241 46.0097 145.483 46.3362 145.712 46.4195C146.34 46.6474 150.403 45.9657 150.813 45.5637C151.133 45.25 151.094 44.7666 150.262 38.6289C149.538 33.2856 149.323 31.9797 149.843 31.1153C150.045 30.779 150.358 30.5095 150.796 30.095C152.408 28.5685 155.109 27.7724 158.076 27.9491C159.182 28.0149 159.894 27.9691 160.1 27.8189C160.476 27.5433 161.667 24.4259 161.667 23.7149C161.667 22.9513 160.976 22.7281 158.31 22.6313C154.826 22.5049 152.184 23.1284 149.553 24.6976L148.552 25.2944L148.243 24.8608C147.864 24.3306 147.396 24.3184 144.485 24.7633C142.188 25.1143 141.387 25.5196 141.602 26.2214C141.66 26.4119 142.46 30.7419 143.38 35.8436C144.301 40.9454 145.108 45.3779 145.174 45.6938Z" />
		<path d="M119.875 38.9759C120.419 42.6681 122.449 44.9762 125.937 45.8709C127.821 46.3544 129.818 46.3347 131.396 45.817C132.107 45.5839 132.771 45.3143 132.873 45.2178C132.977 45.1184 133.208 45.2255 133.406 45.4648C133.695 45.8148 134.108 45.9166 135.818 46.0582C137.64 46.2092 137.922 46.1881 138.231 45.8782C138.517 45.592 138.757 43.8003 139.536 36.1614C140.453 27.1675 140.476 26.7809 140.119 26.4311C139.585 25.9062 135.716 25.6498 135.324 26.1133C135.159 26.3093 134.825 28.7124 134.437 32.5116L133.815 38.5959L132.836 39.5877C131.631 40.8082 130.517 41.3389 129.157 41.3402C126.841 41.3428 125.313 39.5464 125.313 36.82C125.313 35.4917 126.005 27.7804 126.256 26.3209C126.444 25.2205 125.927 24.9201 123.549 24.7488C121.862 24.6273 121.46 24.6554 121.198 24.9131C120.961 25.1458 120.725 26.75 120.26 31.2983C119.716 36.6126 119.668 37.5733 119.875 38.9759Z" />
		<path fill-rule="evenodd" clip-rule="evenodd" d="M82.1871 19.0041C80.4359 20.7226 80.9043 23.4732 83.1364 24.5798C84.1801 25.0972 84.5596 25.1313 85.7297 24.8125C87.3554 24.3696 88.5341 22.5103 88.2225 20.8803C87.6826 18.0566 84.2424 16.987 82.1871 19.0041ZM83.1427 20.5025C83.1427 19.4084 83.6413 19.5963 83.7259 20.7222C83.7849 21.5078 83.6213 21.7706 83.2812 21.4368C83.205 21.3621 83.1427 20.9416 83.1427 20.5025ZM85.3831 20.269C85.2945 19.3869 85.793 19.3703 85.9612 20.2498C86.0473 20.7004 86.0139 21.0791 85.876 21.2143C85.6145 21.471 85.4775 21.2083 85.3831 20.269Z" />
	</g>
	<g class="text">
		<path fill-rule="evenodd" clip-rule="evenodd" d="M227.833 44.3202C229.501 45.9723 231.54 47.0873 233.744 47.5536C237.448 48.3372 241.832 47.353 244.961 45.0348C246.238 44.089 247.643 42.5116 247.942 41.6872C248.043 41.4096 247.746 40.9735 246.79 39.9971C244.625 37.784 243.627 37.4305 243.096 38.6886C242.202 40.8048 238.581 42.5804 235.75 42.2901C233.732 42.0832 231.697 40.701 230.722 38.8762L230.436 38.3412L232.038 38.2092C234.738 37.9867 242.208 37.6875 245.18 37.6828C247.086 37.6797 248.075 37.5994 248.244 37.4337C248.394 37.2858 248.491 36.5797 248.489 35.6498C248.475 29.6777 244.785 24.7974 239.229 23.4028C236.103 22.6183 232.077 23.0206 229.533 24.3717C228.164 25.0983 226.273 26.8147 225.444 28.0822C224.018 30.2624 223.39 33.2095 223.763 35.9629C224.249 39.5443 225.403 41.9134 227.833 44.3202ZM240.135 32.7866C239.076 32.7871 236.668 32.8773 234.782 32.9869C232.897 33.0966 231.004 33.2347 230.576 33.2941C229.58 33.432 229.557 33.1181 230.438 31.3882C231.512 29.2789 233.031 28.4432 235.821 28.4261C237.189 28.4177 237.797 28.5109 238.522 28.84C239.695 29.373 240.907 30.5607 241.558 31.8172L242.06 32.7856L240.135 32.7866Z" />
		<path d="M218.271 47.362L219.62 47.4797C223.151 47.7879 223.98 47.6497 223.98 46.7524C223.98 46.4545 223.168 45.1401 221.931 43.4355C220.804 41.8825 219.25 39.6814 218.479 38.5439L217.075 36.4756L218.81 34.172C221.299 30.8664 223.565 27.6682 223.565 27.4602C223.565 27.3619 223.378 27.098 223.149 26.8737C222.783 26.5142 222.457 26.466 220.393 26.466H218.052L216.082 29.1121C214.999 30.5674 214.066 31.7575 214.009 31.7569C213.952 31.7563 213.083 30.4358 212.078 28.8228L210.25 25.8899L209.273 25.775C205.362 25.315 204.869 25.3811 204.869 26.3656C204.869 26.7708 207.31 30.9426 209.809 34.809L210.656 36.1187L209.684 37.3387C209.149 38.0097 207.473 40.0123 205.959 41.7888C203.066 45.1844 202.724 45.8489 203.674 46.2362C204.348 46.5111 208.382 46.8825 208.714 46.7003C208.868 46.6157 210.04 45.2774 211.318 43.7264C212.596 42.1754 213.721 40.984 213.818 41.0788C213.914 41.1736 214.956 42.6261 216.132 44.3066L218.271 47.362Z" />
		<path d="M250.414 46.8028C250.529 46.9438 251.056 47.1897 251.584 47.3493L251.584 47.3511C252.112 47.5107 252.806 47.6477 253.127 47.6555C254.141 47.6802 255.559 47.2305 255.787 46.8116C255.935 46.5402 255.964 43.1156 255.878 36.0836C255.809 30.4019 255.828 20.5247 255.922 14.1335C256.016 7.74234 256.026 2.3211 255.946 2.08632C255.49 0.761207 251.663 0.756926 250.314 2.08002C250.062 2.32771 250.032 5.54929 250.111 24.4582C250.172 38.9039 250.276 46.6352 250.414 46.8028Z" />
		<path fill-rule="evenodd" clip-rule="evenodd" d="M171.343 46.4634C171.501 46.5923 172.402 46.8152 173.344 46.9588C176.037 47.3686 177.182 47.3402 177.446 46.8558C177.601 46.5711 177.604 44.4105 177.455 39.5676L177.136 29.2184L179.421 29.0948C185.345 28.7743 189.198 27.1039 191.433 23.8871C192.859 21.8342 193.281 20.5016 193.396 17.6858C193.475 15.7409 193.415 15.0256 193.053 13.6085C191.861 8.94688 189.156 6.2664 184.407 5.04201C181.119 4.19448 176.063 4.62687 171.036 6.18522C169.1 6.78519 168.655 7.12595 168.81 7.88866C168.983 8.74091 169.725 16.6002 170.063 21.1656C170.444 26.3128 170.746 33.1391 170.921 40.5776C171.026 45.0222 171.116 46.2791 171.343 46.4634ZM186.397 18.6595C185.85 20.6449 184.103 22.024 181.687 22.3757C179.213 22.7359 176.818 22.8169 176.733 22.5433C176.647 22.2662 176.118 13.6346 176.105 12.3047C176.097 11.5067 176.109 11.4944 177.032 11.324C177.546 11.2291 178.995 11.1341 180.252 11.1128C182.245 11.0792 182.669 11.1339 183.568 11.5407C184.904 12.1453 185.273 12.4883 185.917 13.7244C186.541 14.9222 186.772 17.2982 186.397 18.6595Z" />
		<path d="M195.937 37.067C196.821 45.0962 197.037 46.5876 197.345 46.8141C197.568 46.9779 197.95 47.0325 198.332 46.9546C198.675 46.8846 199.469 46.7764 200.098 46.7141C200.726 46.6519 201.451 46.472 201.708 46.3144L202.175 46.0278V36.5981C202.175 28.5428 202.223 26.7508 201.509 26.3623C201.26 26.2269 200.918 26.262 200.449 26.2618C198.902 26.2612 195.798 26.8595 195.31 27.2526C194.895 27.5862 194.897 27.6164 195.937 37.067Z" />
		<path fill-rule="evenodd" clip-rule="evenodd" d="M194.529 21.4794C194.623 22.9828 195.214 23.8992 196.441 24.4461C197.905 25.0983 199.245 24.8965 200.382 23.8532C202.026 22.3446 201.87 19.7537 200.059 18.4879C199.042 17.7774 197.115 17.7087 196.155 18.3488C195.758 18.6135 195.212 19.1491 194.942 19.5389C194.531 20.1344 194.464 20.4443 194.529 21.4794ZM197.964 22.3088C197.783 22.4086 197.651 22.5819 197.671 22.6941C197.692 22.8062 197.51 22.9257 197.268 22.9596C196.958 23.003 196.792 22.8866 196.707 22.5674C196.563 22.0288 196.688 21.7767 197.097 21.7767C197.262 21.7767 197.397 21.6498 197.397 21.4946C197.397 21.077 198.285 20.906 198.562 21.2702C198.689 21.4366 198.946 21.5728 199.133 21.5728C199.359 21.5728 199.474 21.7465 199.474 22.0889C199.474 22.7323 198.924 22.9726 198.563 22.4873C198.375 22.2353 198.196 22.1818 197.964 22.3088ZM197.189 20.6336C197.189 20.9019 197.041 21.1771 196.86 21.2452C196.33 21.4451 196.205 21.3942 196.081 20.9258C195.924 20.3371 196.071 20.1458 196.682 20.1458C197.078 20.1458 197.189 20.2523 197.189 20.6336ZM199.058 19.9419C199.585 19.9419 199.682 20.0212 199.682 20.4516C199.682 20.8496 199.576 20.9612 199.197 20.9612C198.613 20.9612 198.435 20.8107 198.435 20.3156C198.435 20.0363 198.593 19.9419 199.058 19.9419Z" />
	</g>
</svg>
