<svg width="64" height="65" viewBox="0 0 64 65" fill="none" xmlns="http://www.w3.org/2000/svg">
	<g clip-path="url(#clip0_1206_13524)">
		<path d="M32.0005 48.4994C40.8375 48.4994 48.0012 41.3356 48.0012 32.4985C48.0012 23.6614 40.8375 16.4976 32.0005 16.4976C23.1635 16.4976 15.9998 23.6614 15.9998 32.4985C15.9998 41.3356 23.1635 48.4994 32.0005 48.4994Z" fill="white" />
		<path d="M18.1434 40.5024L4.28858 16.5049C1.47929 21.3692 0.000193816 26.8874 1.90463e-08 32.5047C-0.000193778 38.122 1.47853 43.6403 4.28748 48.5048C7.09643 53.3693 11.1366 57.4086 16.0018 60.2164C20.8669 63.0241 26.3855 64.5015 32.0027 64.5L45.8575 40.5024V40.4983C44.4542 42.9318 42.4349 44.9529 40.0026 46.3583C37.5702 47.7636 34.8108 48.5037 32.0017 48.5041C29.1926 48.5045 26.4328 47.7653 24.0001 46.3606C21.5675 44.956 19.5474 42.9355 18.1434 40.5024V40.5024Z" fill="url(#paint0_linear_1206_13524)" />
		<path d="M45.8566 40.5015L32.0019 64.4991C37.6191 64.4999 43.1375 63.0217 48.0022 60.2131C52.8669 57.4047 56.9065 53.3649 59.7149 48.5C62.5231 43.6351 64.001 38.1165 64.0001 32.4992C63.9991 26.8819 62.5192 21.364 59.7092 16.5H31.9995L31.9961 16.5021C34.8052 16.5007 37.5652 17.2391 39.9984 18.6428C42.4316 20.0466 44.4523 22.0663 45.8572 24.4989C47.2621 26.9315 48.0017 29.6912 48.0017 32.5002C48.0016 35.3094 47.2618 38.069 45.8568 40.5015L45.8566 40.5015Z" fill="url(#paint1_linear_1206_13524)" />
		<path d="M32.0005 45.1694C38.9964 45.1694 44.6678 39.498 44.6678 32.5019C44.6678 25.5059 38.9964 19.8345 32.0005 19.8345C25.0045 19.8345 19.3333 25.5059 19.3333 32.5019C19.3333 39.498 25.0045 45.1694 32.0005 45.1694Z" fill="#1A73E8" />
		<path d="M32.0005 16.5009H59.7101C56.9021 11.6358 52.8628 7.59575 47.9983 4.78694C43.1338 1.97814 37.6154 0.499601 31.9982 0.5C26.3809 0.500399 20.8629 1.97972 15.9987 4.78922C11.1345 7.59871 7.09581 11.6394 4.28857 16.5048L18.1433 40.5023L18.1469 40.5043C16.7412 38.0721 16.0006 35.3129 15.9996 32.5037C15.9988 29.6945 16.7376 26.9347 18.1418 24.5017C19.5459 22.0688 21.5661 20.0484 23.9988 18.6439C26.4316 17.2394 29.1914 16.5003 32.0005 16.5009L32.0005 16.5009Z" fill="url(#paint2_linear_1206_13524)" />
	</g>
	<defs>
		<linearGradient id="paint0_linear_1206_13524" x1="35.4644" y1="62.5013" x2="7.75322" y2="14.5046" gradientUnits="userSpaceOnUse">
			<stop stop-color="#1E8E3E" />
			<stop offset="1" stop-color="#34A853" />
		</linearGradient>
		<linearGradient id="paint1_linear_1206_13524" x1="27.3327" y1="64.5839" x2="55.044" y2="16.5872" gradientUnits="userSpaceOnUse">
			<stop stop-color="#FCC934" />
			<stop offset="1" stop-color="#FBBC04" />
		</linearGradient>
		<linearGradient id="paint2_linear_1206_13524" x1="4.28858" y1="20.5021" x2="59.7101" y2="20.5021" gradientUnits="userSpaceOnUse">
			<stop stop-color="#D93025" />
			<stop offset="1" stop-color="#EA4335" />
		</linearGradient>
		<clipPath id="clip0_1206_13524">
			<rect width="64" height="64" fill="white" transform="translate(0 0.5)" />
		</clipPath>
	</defs>
</svg>
