<svg width="283" height="64" viewBox="0 0 283 64" fill="none" xmlns="http://www.w3.org/2000/svg">
	<mask id="mask0_6068_23023" style="mask-type:alpha" maskUnits="userSpaceOnUse" fill="black" x="0" y="0" width="282" height="64">
		<g class="logo">
			<path d="M36.2557 14.2629L31.9999 0L27.7441 14.2629C28.4535 14.0937 29.1703 13.9675 29.8909 13.8841L26.4841 25.3019C26.4006 25.5816 26.2488 25.8361 26.0425 26.0425C25.8361 26.2489 25.5815 26.4007 25.3018 26.4842L13.884 29.891C13.9674 29.1704 14.0937 28.4535 14.2629 27.7441L0 31.9999L14.2629 36.2557C14.0938 35.5465 13.9675 34.8297 13.8841 34.1092L25.3018 37.516C25.5815 37.5995 25.8361 37.7512 26.0425 37.9576C26.2488 38.164 26.4006 38.4185 26.4841 38.6982L29.8909 50.1159C29.1703 50.0325 28.4534 49.9062 27.7441 49.7371L31.9999 64L36.2557 49.7371C35.5465 49.9062 34.8296 50.0325 34.1091 50.1159L37.5159 38.6982C37.5994 38.4185 37.7512 38.164 37.9575 37.9576C38.1639 37.7512 38.4185 37.5995 38.6982 37.516L50.1159 34.1092C50.0325 34.8297 49.9062 35.5465 49.7371 36.2557L64 31.9999L49.7371 27.7441C49.9062 28.4535 50.0325 29.1704 50.1159 29.891L38.6982 26.4842C38.4185 26.4007 38.1639 26.2489 37.9575 26.0425C37.7512 25.8361 37.5994 25.5816 37.5159 25.3019L34.109 13.8841C34.8296 13.9675 35.5464 14.0937 36.2557 14.2629Z" />
			<path fill-rule="evenodd" clip-rule="evenodd" d="M17.6285 25.706C19.2299 24.4471 21.1305 23.6269 23.0534 22.9975C23.6925 21.0574 24.4786 19.232 25.7599 17.5745L25.8788 17.61C25.663 18.3986 25.2157 19.974 24.9827 20.7569C24.8864 21.079 24.7725 21.4746 24.6541 21.8856L24.6537 21.8869L24.6533 21.8881L24.653 21.8893C24.4669 22.5354 24.2699 23.2192 24.1133 23.7155C24.0609 23.8237 23.9831 23.9176 23.8867 23.9894C23.7903 24.0612 23.678 24.1087 23.5593 24.1279L22.3814 24.4712C22.0272 24.5742 21.5098 24.725 20.977 24.8803C20.334 25.0678 19.6679 25.2619 19.2402 25.3862L17.6639 25.8248L17.6285 25.706ZM22.9641 23.2723C22.9675 23.2604 22.9712 23.2487 22.9753 23.2372L22.9709 23.2508L22.9641 23.2723ZM23.2884 22.9215C23.3008 22.917 23.3134 22.913 23.3261 22.9095L23.2884 22.9215Z" />
			<path fill-rule="evenodd" clip-rule="evenodd" d="M40.9485 22.9994C40.3189 21.0765 39.4987 19.176 38.24 17.5745L38.1211 17.61L38.5597 19.1863C38.6818 19.6065 38.8711 20.256 39.0555 20.8885L39.0592 20.9014C39.2168 21.4417 39.3703 21.9684 39.4747 22.3275L39.818 23.5054C39.8372 23.6241 39.8847 23.7364 39.9565 23.8328C40.0283 23.9292 40.1222 24.0069 40.2304 24.0594C40.7255 24.2156 41.4072 24.4119 42.052 24.5976L42.0542 24.5983C42.4674 24.7173 42.8653 24.8319 43.1891 24.9288C43.972 25.1617 45.5474 25.6091 46.3359 25.8249L46.3714 25.7059C44.7138 24.4246 42.8885 23.6386 40.9485 22.9994ZM40.7103 22.9218C40.6982 22.9175 40.686 22.9136 40.6736 22.9101L40.6952 22.917L40.7103 22.9218ZM41.0246 23.2351C41.029 23.2472 41.0329 23.2596 41.0364 23.2721L41.0296 23.2506L41.0246 23.2351Z" />
			<path fill-rule="evenodd" clip-rule="evenodd" d="M46.3714 38.2941C44.77 39.5529 42.8694 40.3731 40.9466 41.0026C40.3074 42.9427 39.5214 44.768 38.24 46.4256L38.1211 46.3901C38.3369 45.6015 38.7843 44.0261 39.0172 43.2432C39.1139 42.9198 39.2284 42.5223 39.3473 42.1095C39.5333 41.4639 39.7302 40.7804 39.8866 40.2846C39.939 40.1764 40.0168 40.0825 40.1132 40.0107C40.2096 39.9389 40.3219 39.8914 40.4406 39.8722L41.6185 39.5289C41.9776 39.4245 42.5042 39.271 43.0446 39.1134L43.0527 39.1111L43.0539 39.1107L43.1033 39.0963C43.7212 38.9162 44.3496 38.733 44.7597 38.6139L46.336 38.1753L46.3714 38.2941ZM41.0241 40.7646C41.0284 40.7525 41.0324 40.7402 41.0359 40.7278L41.0241 40.7646ZM40.7117 41.0785C40.6992 41.083 40.6866 41.087 40.6738 41.0906L40.7117 41.0785Z" />
			<path fill-rule="evenodd" clip-rule="evenodd" d="M23.0515 41.0008C23.681 42.9237 24.5012 44.8242 25.7599 46.4257L25.8788 46.3902L25.4402 44.814C25.3169 44.3893 25.1248 43.7305 24.9386 43.0917L24.936 43.0827C24.7801 42.548 24.6286 42.0282 24.5252 41.6727L24.1819 40.4948C24.1626 40.3762 24.1151 40.2639 24.0434 40.1674C23.9716 40.071 23.8776 39.9933 23.7695 39.9408C23.2744 39.7846 22.5927 39.5882 21.9479 39.4025C21.5339 39.2833 21.1352 39.1684 20.8108 39.0714C20.0279 38.8385 18.4525 38.3911 17.664 38.1753L17.6285 38.2943C19.2861 39.5756 21.1115 40.3616 23.0515 41.0008ZM22.9635 40.7281C22.9656 40.7354 22.9677 40.7426 22.9701 40.7497L22.9635 40.7281ZM23.2896 41.0783L23.3007 41.0822C23.3091 41.085 23.3177 41.0877 23.3263 41.0901L23.3047 41.0832L23.2896 41.0783Z" />
		</g>
		<g class="text">
			<path d="M74.256 40V23.2H76.824L87.36 36.136H86.088V23.2H89.184V40H86.616L76.08 27.064H77.352V40H74.256ZM101.558 40.24C100.246 40.24 99.0377 40.024 97.9337 39.592C96.8297 39.16 95.8697 38.56 95.0537 37.792C94.2377 37.008 93.6057 36.096 93.1577 35.056C92.7097 34 92.4857 32.848 92.4857 31.6C92.4857 30.352 92.7097 29.208 93.1577 28.168C93.6057 27.112 94.2377 26.2 95.0537 25.432C95.8697 24.648 96.8297 24.04 97.9337 23.608C99.0377 23.176 100.238 22.96 101.534 22.96C102.846 22.96 104.046 23.176 105.134 23.608C106.238 24.04 107.198 24.648 108.014 25.432C108.83 26.2 109.462 27.112 109.91 28.168C110.358 29.208 110.582 30.352 110.582 31.6C110.582 32.848 110.358 34 109.91 35.056C109.462 36.112 108.83 37.024 108.014 37.792C107.198 38.56 106.238 39.16 105.134 39.592C104.046 40.024 102.854 40.24 101.558 40.24ZM101.534 37.504C102.382 37.504 103.166 37.36 103.886 37.072C104.606 36.784 105.23 36.376 105.758 35.848C106.286 35.304 106.694 34.68 106.982 33.976C107.286 33.256 107.438 32.464 107.438 31.6C107.438 30.736 107.286 29.952 106.982 29.248C106.694 28.528 106.286 27.904 105.758 27.376C105.23 26.832 104.606 26.416 103.886 26.128C103.166 25.84 102.382 25.696 101.534 25.696C100.686 25.696 99.9017 25.84 99.1817 26.128C98.4777 26.416 97.8537 26.832 97.3097 27.376C96.7817 27.904 96.3657 28.528 96.0617 29.248C95.7737 29.952 95.6297 30.736 95.6297 31.6C95.6297 32.448 95.7737 33.232 96.0617 33.952C96.3657 34.672 96.7817 35.304 97.3097 35.848C97.8377 36.376 98.4617 36.784 99.1817 37.072C99.9017 37.36 100.686 37.504 101.534 37.504ZM118.341 40L110.997 23.2H114.381L120.933 38.392H118.989L125.613 23.2H128.733L121.413 40H118.341ZM127.591 40L135.151 23.2H138.223L145.807 40H142.543L136.039 24.856H137.287L130.807 40H127.591ZM131.071 36.112L131.911 33.664H140.983L141.823 36.112H131.071ZM162.448 40.24C161.136 40.24 159.928 40.024 158.824 39.592C157.72 39.16 156.76 38.56 155.944 37.792C155.128 37.008 154.496 36.096 154.048 35.056C153.6 34 153.376 32.848 153.376 31.6C153.376 30.352 153.6 29.208 154.048 28.168C154.496 27.112 155.128 26.2 155.944 25.432C156.76 24.648 157.72 24.04 158.824 23.608C159.928 23.176 161.128 22.96 162.424 22.96C163.736 22.96 164.936 23.176 166.024 23.608C167.128 24.04 168.088 24.648 168.904 25.432C169.72 26.2 170.352 27.112 170.8 28.168C171.248 29.208 171.472 30.352 171.472 31.6C171.472 32.848 171.248 34 170.8 35.056C170.352 36.112 169.72 37.024 168.904 37.792C168.088 38.56 167.128 39.16 166.024 39.592C164.936 40.024 163.744 40.24 162.448 40.24ZM162.424 37.504C163.272 37.504 164.056 37.36 164.776 37.072C165.496 36.784 166.12 36.376 166.648 35.848C167.176 35.304 167.584 34.68 167.872 33.976C168.176 33.256 168.328 32.464 168.328 31.6C168.328 30.736 168.176 29.952 167.872 29.248C167.584 28.528 167.176 27.904 166.648 27.376C166.12 26.832 165.496 26.416 164.776 26.128C164.056 25.84 163.272 25.696 162.424 25.696C161.576 25.696 160.792 25.84 160.072 26.128C159.368 26.416 158.744 26.832 158.2 27.376C157.672 27.904 157.256 28.528 156.952 29.248C156.664 29.952 156.52 30.736 156.52 31.6C156.52 32.448 156.664 33.232 156.952 33.952C157.256 34.672 157.672 35.304 158.2 35.848C158.728 36.376 159.352 36.784 160.072 37.072C160.792 37.36 161.576 37.504 162.424 37.504ZM177.953 40V25.84H172.385V23.2H186.641V25.84H181.073V40H177.953ZM196.62 40.24C195.308 40.24 194.1 40.024 192.996 39.592C191.892 39.16 190.932 38.56 190.116 37.792C189.3 37.008 188.668 36.096 188.22 35.056C187.772 34 187.548 32.848 187.548 31.6C187.548 30.352 187.772 29.208 188.22 28.168C188.668 27.112 189.3 26.2 190.116 25.432C190.932 24.648 191.892 24.04 192.996 23.608C194.1 23.176 195.3 22.96 196.596 22.96C197.908 22.96 199.108 23.176 200.196 23.608C201.3 24.04 202.26 24.648 203.076 25.432C203.892 26.2 204.524 27.112 204.972 28.168C205.42 29.208 205.644 30.352 205.644 31.6C205.644 32.848 205.42 34 204.972 35.056C204.524 36.112 203.892 37.024 203.076 37.792C202.26 38.56 201.3 39.16 200.196 39.592C199.108 40.024 197.916 40.24 196.62 40.24ZM196.596 37.504C197.444 37.504 198.228 37.36 198.948 37.072C199.668 36.784 200.292 36.376 200.82 35.848C201.348 35.304 201.756 34.68 202.044 33.976C202.348 33.256 202.5 32.464 202.5 31.6C202.5 30.736 202.348 29.952 202.044 29.248C201.756 28.528 201.348 27.904 200.82 27.376C200.292 26.832 199.668 26.416 198.948 26.128C198.228 25.84 197.444 25.696 196.596 25.696C195.748 25.696 194.964 25.84 194.244 26.128C193.54 26.416 192.916 26.832 192.372 27.376C191.844 27.904 191.428 28.528 191.124 29.248C190.836 29.952 190.692 30.736 190.692 31.6C190.692 32.448 190.836 33.232 191.124 33.952C191.428 34.672 191.844 35.304 192.372 35.848C192.9 36.376 193.524 36.784 194.244 37.072C194.964 37.36 195.748 37.504 196.596 37.504ZM208.951 40V23.2H211.519L218.863 35.464H217.519L224.743 23.2H227.311L227.335 40H224.383L224.359 27.832H224.983L218.839 38.08H217.447L211.207 27.832H211.927V40H208.951ZM229.497 40L237.057 23.2H240.129L247.713 40H244.449L237.945 24.856H239.193L232.713 40H229.497ZM232.977 36.112L233.817 33.664H242.889L243.729 36.112H232.977ZM249.85 40V23.2H257.194C259.018 23.2 260.618 23.552 261.994 24.256C263.37 24.96 264.442 25.936 265.21 27.184C265.978 28.432 266.362 29.904 266.362 31.6C266.362 33.28 265.978 34.752 265.21 36.016C264.442 37.264 263.37 38.24 261.994 38.944C260.618 39.648 259.018 40 257.194 40H249.85ZM252.97 37.36H257.05C258.314 37.36 259.402 37.12 260.314 36.64C261.242 36.16 261.954 35.488 262.45 34.624C262.962 33.76 263.218 32.752 263.218 31.6C263.218 30.432 262.962 29.424 262.45 28.576C261.954 27.712 261.242 27.04 260.314 26.56C259.402 26.08 258.314 25.84 257.05 25.84H252.97V37.36ZM274.886 40.24C273.574 40.24 272.318 40.056 271.118 39.688C269.918 39.304 268.966 38.816 268.262 38.224L269.342 35.8C270.014 36.328 270.846 36.768 271.838 37.12C272.83 37.472 273.846 37.648 274.886 37.648C275.766 37.648 276.478 37.552 277.022 37.36C277.566 37.168 277.966 36.912 278.222 36.592C278.478 36.256 278.606 35.88 278.606 35.464C278.606 34.952 278.422 34.544 278.054 34.24C277.686 33.92 277.206 33.672 276.614 33.496C276.038 33.304 275.39 33.128 274.67 32.968C273.966 32.808 273.254 32.624 272.534 32.416C271.83 32.192 271.182 31.912 270.59 31.576C270.014 31.224 269.542 30.76 269.174 30.184C268.806 29.608 268.622 28.872 268.622 27.976C268.622 27.064 268.862 26.232 269.342 25.48C269.838 24.712 270.582 24.104 271.574 23.656C272.582 23.192 273.854 22.96 275.39 22.96C276.398 22.96 277.398 23.088 278.39 23.344C279.382 23.6 280.246 23.968 280.982 24.448L279.998 26.872C279.246 26.424 278.47 26.096 277.67 25.888C276.87 25.664 276.102 25.552 275.366 25.552C274.502 25.552 273.798 25.656 273.254 25.864C272.726 26.072 272.334 26.344 272.078 26.68C271.838 27.016 271.718 27.4 271.718 27.832C271.718 28.344 271.894 28.76 272.246 29.08C272.614 29.384 273.086 29.624 273.662 29.8C274.254 29.976 274.91 30.152 275.63 30.328C276.35 30.488 277.062 30.672 277.766 30.88C278.486 31.088 279.134 31.36 279.71 31.696C280.302 32.032 280.774 32.488 281.126 33.064C281.494 33.64 281.678 34.368 281.678 35.248C281.678 36.144 281.43 36.976 280.934 37.744C280.454 38.496 279.71 39.104 278.702 39.568C277.694 40.016 276.422 40.24 274.886 40.24Z" />
		</g>
	</mask>
	<g mask="url(#mask0_6068_23023)">
		<path d="M283 0H0V64H283V0Z" fill="url(#paint0_linear_6068_23023)" />
	</g>
	<defs>
		<linearGradient id="paint0_linear_6068_23023" x1="-22" y1="-5.50001" x2="289" y2="78" gradientUnits="userSpaceOnUse">
			<stop stop-color="#8CD4F0" />
			<stop offset="0.157085" stop-color="#88B8E4" />
			<stop offset="0.421875" stop-color="#6987CF" />
			<stop offset="0.75" stop-color="#BD78E0" />
			<stop offset="1" stop-color="#E182BE" />
		</linearGradient>
	</defs>
</svg>
