<svg width="207" height="40" viewBox="0 0 538 104" fill="none" xmlns="http://www.w3.org/2000/svg">
	<g class="logo" fill="url(#paint22_linear_745_3204)">
		<path d="M77.541 103.351H97.765C100.527 103.351 102.765 101.112 102.765 98.351V78.126C102.765 75.365 100.527 73.126 97.765 73.126H77.541C74.779 73.126 72.541 75.365 72.541 78.126V98.351C72.541 101.112 74.779 103.351 77.541 103.351Z" />
		<path d="M77.541 67.82H97.765C100.527 67.82 102.765 64.843 102.765 62.82V41.857C102.765 39.96 100.527 36.857 97.765 36.857H77.541C74.779 36.857 72.541 39.96 72.541 41.857V62.82C72.541 64.843 74.779 67.82 77.541 67.82Z" />
		<path d="M77.541 30.812H97.765C100.527 30.812 102.765 28.574 102.765 25.812V5.58801C102.765 2.82701 100.527 0.588013 97.765 0.588013H77.541C74.779 0.588013 72.541 2.82701 72.541 5.58801V25.812C72.541 28.574 74.779 30.812 77.541 30.812Z" />
		<path d="M41.272 103.351H61.496C64.257 103.351 66.496 101.112 66.496 98.351V78.126C66.496 75.365 64.257 73.126 61.496 73.126H41.272C38.51 73.126 36.272 75.365 36.272 78.126V98.351C36.272 101.112 38.51 103.351 41.272 103.351Z" />
		<path d="M41.272 30.812H61.496C64.257 30.812 66.496 28.574 66.496 25.812V5.58801C66.496 2.82701 64.257 0.588013 61.496 0.588013H41.272C38.51 0.588013 36.272 2.82701 36.272 5.58801V25.812C36.272 28.574 38.51 30.812 41.272 30.812Z" />
		<path d="M5.20001 103.351H25.227C27.988 103.351 30.227 101.112 30.227 98.351V78.126C30.227 75.365 27.988 73.126 25.227 73.126H5.20001C2.24101 73.126 0.200012 75.365 0.200012 78.126V98.351C0.200012 101.112 2.24101 103.351 5.20001 103.351Z" />
		<path d="M5.20001 67.82H25.227C27.988 67.82 30.227 64.843 30.227 62.82V41.857C30.227 39.96 27.988 36.857 25.227 36.857H5.20001C2.24101 36.857 0.200012 39.96 0.200012 41.857V62.82C0.200012 64.843 2.24101 67.82 5.20001 67.82Z" />
		<path d="M5.20001 30.812H25.231C27.99 30.812 30.227 28.576 30.227 25.816V5.58401C30.227 2.82501 27.99 0.588013 25.231 0.588013H25.227C11.296 0.588013 0.200012 11.882 0.200012 25.813C0.200012 28.574 2.24101 30.812 5.20001 30.812Z" />
		<path d="M186.348 103.351H206.573C209.334 103.351 211.573 101.112 211.573 98.351V78.126C211.573 75.365 209.334 73.126 206.573 73.126H186.348C183.587 73.126 181.349 75.365 181.349 78.126V98.351C181.349 101.112 183.587 103.351 186.348 103.351Z" />
		<path d="M186.348 67.82H206.573C209.334 67.82 211.573 64.843 211.573 62.82V41.857C211.573 39.96 209.334 36.857 206.573 36.857H186.348C183.587 36.857 181.349 39.96 181.349 41.857V62.82C181.349 64.843 183.587 67.82 186.348 67.82Z" />
		<path d="M186.348 30.812H206.573C209.334 30.812 211.573 28.574 211.573 25.812V5.58801C211.573 2.82701 209.334 0.588013 206.573 0.588013H186.348C183.587 0.588013 181.349 2.82701 181.349 5.58801V25.812C181.349 28.574 183.587 30.812 186.348 30.812Z" />
		<path d="M150.79 67.82H170.304C173.65 67.82 175.304 64.843 175.304 62.82V41.857C175.304 39.96 173.65 36.857 170.304 36.857H150.79C147.318 36.857 145.79 39.96 145.79 41.857V62.82C145.79 64.843 147.318 67.82 150.79 67.82Z" />
		<path d="M150.79 30.812H170.304C173.65 30.812 175.304 28.574 175.304 25.812V5.58801C175.304 2.82701 173.65 0.588013 170.304 0.588013H150.79C147.318 0.588013 145.79 2.82701 145.79 5.58801V25.812C145.79 28.574 147.318 30.812 150.79 30.812Z" />
		<path d="M113.81 103.351H134.34C136.796 103.351 139.34 101.112 139.34 98.351V78.126C139.34 75.365 136.796 73.126 134.34 73.126H113.81C111.49 73.126 108.81 75.365 108.81 78.126V98.351C108.81 101.112 111.49 103.351 113.81 103.351Z" />
		<path d="M113.81 67.82H134.34C136.796 67.82 139.34 64.843 139.34 62.82V41.857C139.34 39.96 136.796 36.857 134.34 36.857H113.81C111.49 36.857 108.81 39.96 108.81 41.857V62.82C108.81 64.843 111.49 67.82 113.81 67.82Z" />
		<path d="M113.81 30.812H134.34C136.796 30.812 139.34 28.574 139.34 25.812V5.58801C139.34 2.82701 136.796 0.588013 134.34 0.588013H134.3C120.101 0.588013 108.81 11.879 108.81 25.808V25.812C108.81 28.574 111.49 30.812 113.81 30.812Z" />
	</g>
	<g class="text" fill="url(#paint0_linear_745_3204)">
		<path d="M331.425 103.351H351.65C354.411 103.351 356.65 101.112 356.65 98.351V78.126C356.65 75.365 354.411 73.126 351.65 73.126H331.425C328.664 73.126 326.425 75.365 326.425 78.126V98.351C326.425 101.112 328.664 103.351 331.425 103.351Z" />
		<path d="M331.425 67.82H351.65C354.411 67.82 356.65 64.843 356.65 62.82V41.857C356.65 39.96 354.411 36.857 351.65 36.857H331.425C328.664 36.857 326.425 39.96 326.425 41.857V62.82C326.425 64.843 328.664 67.82 331.425 67.82Z" />
		<path d="M331.425 30.812H351.65C354.411 30.812 356.65 28.574 356.65 25.812V5.58801C356.65 2.82701 354.411 0.588013 351.65 0.588013H331.425C328.664 0.588013 326.425 2.82701 326.425 5.58801V25.812C326.425 28.574 328.664 30.812 331.425 30.812Z" />
		<path d="M295.156 67.82H315.38C318.142 67.82 320.381 64.843 320.381 62.82V41.857C320.381 39.96 318.142 36.857 315.38 36.857H295.156C292.395 36.857 290.156 39.96 290.156 41.857V62.82C290.156 64.843 292.395 67.82 295.156 67.82Z" />
		<path d="M295.156 30.812H315.38C318.142 30.812 320.381 28.574 320.381 25.812V5.58801C320.381 2.82701 318.142 0.588013 315.38 0.588013H295.156C292.395 0.588013 290.156 2.82701 290.156 5.58801V25.812C290.156 28.574 292.395 30.812 295.156 30.812Z" />
		<path d="M258.887 103.351H279.111C281.873 103.351 284.111 101.112 284.111 98.351V78.126C284.111 75.365 281.873 73.126 279.111 73.126H258.887C256.125 73.126 253.887 75.365 253.887 78.126V98.351C253.887 101.112 256.125 103.351 258.887 103.351Z" />
		<path d="M258.887 67.82H279.111C281.873 67.82 284.111 64.843 284.111 62.82V41.857C284.111 39.96 281.873 36.857 279.111 36.857H258.887C256.125 36.857 253.887 39.96 253.887 41.857V62.82C253.887 64.843 256.125 67.82 258.887 67.82Z" />
		<path d="M258.887 30.812H279.111C281.873 30.812 284.111 28.574 284.111 25.812V5.58801C284.111 2.82701 281.873 0.588013 279.111 0.588013H279.107C265.178 0.588013 253.887 11.879 253.887 25.808V25.812C253.887 28.574 256.125 30.812 258.887 30.812Z" />
		<path d="M367.695 103.351H387.919C390.68 103.351 392.919 101.112 392.919 98.351V78.126C392.919 75.365 390.68 73.126 387.919 73.126H367.695C364.933 73.126 362.695 75.365 362.695 78.126V98.351C362.695 101.112 364.933 103.351 367.695 103.351Z" />
		<path d="M367.695 67.82H387.919C390.68 67.82 392.919 64.843 392.919 62.82V41.857C392.919 39.96 390.68 36.857 387.919 36.857H367.695C364.933 36.857 362.695 39.96 362.695 41.857V62.82C362.695 64.843 364.933 67.82 367.695 67.82Z" />
		<path d="M367.695 30.812H387.919C390.68 30.812 392.919 28.574 392.919 25.812V5.58801C392.919 2.82701 390.68 0.588013 387.919 0.588013H387.915C373.986 0.588013 362.695 11.879 362.695 25.808V25.812C362.695 28.574 364.933 30.812 367.695 30.812Z" />
		<path d="M496.727 67.82H476.502C473.741 67.82 471.502 64.843 471.502 62.82V41.857C471.502 39.96 473.741 36.857 476.502 36.857H496.727C499.488 36.857 501.727 39.96 501.727 41.857V62.82C501.727 64.843 499.488 67.82 496.727 67.82Z" />
		<path d="M496.727 30.812H476.502C473.741 30.812 471.502 28.574 471.502 25.812V5.58801C471.502 2.82701 473.741 0.588013 476.502 0.588013H496.727C499.488 0.588013 501.727 2.82701 501.727 5.58801V25.812C501.727 28.574 499.488 30.812 496.727 30.812Z" />
		<path d="M460.457 103.351H440.233C437.472 103.351 435.233 101.112 435.233 98.351V78.126C435.233 75.365 437.472 73.126 440.233 73.126H460.457C463.219 73.126 465.457 75.365 465.457 78.126V98.351C465.457 101.112 463.219 103.351 460.457 103.351Z" />
		<path d="M460.457 30.812H440.233C437.472 30.812 435.233 28.574 435.233 25.812V5.58801C435.233 2.82701 437.472 0.588013 440.233 0.588013H460.457C463.219 0.588013 465.457 2.82701 465.457 5.58801V25.812C465.457 28.574 463.219 30.812 460.457 30.812Z" />
		<path d="M424.188 103.351H403.964C401.202 103.351 398.964 101.112 398.964 98.351V78.126C398.964 75.365 401.202 73.126 403.964 73.126H424.188C426.95 73.126 429.188 75.365 429.188 78.126V98.351C429.188 101.112 426.95 103.351 424.188 103.351Z" />
		<path d="M424.188 67.82H403.964C401.202 67.82 398.964 64.843 398.964 62.82V41.857C398.964 39.96 401.202 36.857 403.964 36.857H424.188C426.95 36.857 429.188 39.96 429.188 41.857V62.82C429.188 64.843 426.95 67.82 424.188 67.82Z" />
		<path d="M424.188 30.812H403.964C401.202 30.812 398.964 28.574 398.964 25.812V25.808C398.964 11.879 410.255 0.588013 424.184 0.588013H424.188C426.95 0.588013 429.188 2.82701 429.188 5.58801V25.812C429.188 28.574 426.95 30.812 424.188 30.812Z" />
		<path d="M496.726 73.131H476.502C473.74 73.131 471.502 75.369 471.502 78.131V98.355C471.502 101.116 473.74 103.355 476.502 103.355H476.506C490.435 103.355 501.726 92.064 501.726 78.135V78.131C501.726 75.369 499.488 73.131 496.726 73.131Z" />
		<path d="M512.771 103.351H532.996C535.757 103.351 537.996 101.112 537.996 98.351V78.126C537.996 75.365 535.757 73.126 532.996 73.126H512.771C510.1 73.126 507.771 75.365 507.771 78.126V98.351C507.771 101.112 510.1 103.351 512.771 103.351Z" />
		<path d="M512.771 67.82H532.996C535.757 67.82 537.996 64.843 537.996 62.82V41.857C537.996 39.96 535.757 36.857 532.996 36.857H512.771C510.1 36.857 507.771 39.96 507.771 41.857V62.82C507.771 64.843 510.1 67.82 512.771 67.82Z" />
		<path d="M512.771 30.812H532.996C535.757 30.812 537.996 28.574 537.996 25.812V5.58801C537.996 2.82701 535.757 0.588013 532.996 0.588013H532.991C519.63 0.588013 507.771 11.879 507.771 25.808V25.812C507.771 28.574 510.1 30.812 512.771 30.812Z" />
	</g>
	<g style="mix-blend-mode:color-burn" filter="url(#filter0_i_745_3204)" fill="white">
		<g class="logo">
			<path d="M77.541 103.351H97.765C100.527 103.351 102.765 101.112 102.765 98.351V78.126C102.765 75.365 100.527 73.126 97.765 73.126H77.541C74.779 73.126 72.541 75.365 72.541 78.126V98.351C72.541 101.112 74.779 103.351 77.541 103.351Z" />
			<path d="M77.541 67.82H97.765C100.527 67.82 102.765 64.843 102.765 62.82V41.857C102.765 39.96 100.527 36.857 97.765 36.857H77.541C74.779 36.857 72.541 39.96 72.541 41.857V62.82C72.541 64.843 74.779 67.82 77.541 67.82Z" />
			<path d="M77.541 30.812H97.765C100.527 30.812 102.765 28.574 102.765 25.812V5.58801C102.765 2.82701 100.527 0.588013 97.765 0.588013H77.541C74.779 0.588013 72.541 2.82701 72.541 5.58801V25.812C72.541 28.574 74.779 30.812 77.541 30.812Z" />
			<path d="M41.272 103.351H61.496C64.257 103.351 66.496 101.112 66.496 98.351V78.126C66.496 75.365 64.257 73.126 61.496 73.126H41.272C38.51 73.126 36.272 75.365 36.272 78.126V98.351C36.272 101.112 38.51 103.351 41.272 103.351Z" />
			<path d="M41.272 30.812H61.496C64.257 30.812 66.496 28.574 66.496 25.812V5.58801C66.496 2.82701 64.257 0.588013 61.496 0.588013H41.272C38.51 0.588013 36.272 2.82701 36.272 5.58801V25.812C36.272 28.574 38.51 30.812 41.272 30.812Z" />
			<path d="M5.20001 103.351H25.227C27.988 103.351 30.227 101.112 30.227 98.351V78.126C30.227 75.365 27.988 73.126 25.227 73.126H5.20001C2.24101 73.126 0.200012 75.365 0.200012 78.126V98.351C0.200012 101.112 2.24101 103.351 5.20001 103.351Z" />
			<path d="M5.20001 67.82H25.227C27.988 67.82 30.227 64.843 30.227 62.82V41.857C30.227 39.96 27.988 36.857 25.227 36.857H5.20001C2.24101 36.857 0.200012 39.96 0.200012 41.857V62.82C0.200012 64.843 2.24101 67.82 5.20001 67.82Z" />
			<path d="M5.20001 30.812H25.231C27.99 30.812 30.227 28.576 30.227 25.816V5.58401C30.227 2.82501 27.99 0.588013 25.231 0.588013H25.227C11.296 0.588013 0.200012 11.882 0.200012 25.813C0.200012 28.574 2.24101 30.812 5.20001 30.812Z" />
			<path d="M186.348 103.351H206.573C209.334 103.351 211.573 101.112 211.573 98.351V78.126C211.573 75.365 209.334 73.126 206.573 73.126H186.348C183.587 73.126 181.349 75.365 181.349 78.126V98.351C181.349 101.112 183.587 103.351 186.348 103.351Z" />
			<path d="M186.348 67.82H206.573C209.334 67.82 211.573 64.843 211.573 62.82V41.857C211.573 39.96 209.334 36.857 206.573 36.857H186.348C183.587 36.857 181.349 39.96 181.349 41.857V62.82C181.349 64.843 183.587 67.82 186.348 67.82Z" />
			<path d="M186.348 30.812H206.573C209.334 30.812 211.573 28.574 211.573 25.812V5.58801C211.573 2.82701 209.334 0.588013 206.573 0.588013H186.348C183.587 0.588013 181.349 2.82701 181.349 5.58801V25.812C181.349 28.574 183.587 30.812 186.348 30.812Z" />
			<path d="M150.79 67.82H170.304C173.65 67.82 175.304 64.843 175.304 62.82V41.857C175.304 39.96 173.65 36.857 170.304 36.857H150.79C147.318 36.857 145.79 39.96 145.79 41.857V62.82C145.79 64.843 147.318 67.82 150.79 67.82Z" />
			<path d="M150.79 30.812H170.304C173.65 30.812 175.304 28.574 175.304 25.812V5.58801C175.304 2.82701 173.65 0.588013 170.304 0.588013H150.79C147.318 0.588013 145.79 2.82701 145.79 5.58801V25.812C145.79 28.574 147.318 30.812 150.79 30.812Z" />
			<path d="M113.81 103.351H134.34C136.796 103.351 139.34 101.112 139.34 98.351V78.126C139.34 75.365 136.796 73.126 134.34 73.126H113.81C111.49 73.126 108.81 75.365 108.81 78.126V98.351C108.81 101.112 111.49 103.351 113.81 103.351Z" />
			<path d="M113.81 67.82H134.34C136.796 67.82 139.34 64.843 139.34 62.82V41.857C139.34 39.96 136.796 36.857 134.34 36.857H113.81C111.49 36.857 108.81 39.96 108.81 41.857V62.82C108.81 64.843 111.49 67.82 113.81 67.82Z" />
			<path d="M113.81 30.812H134.34C136.796 30.812 139.34 28.574 139.34 25.812V5.58801C139.34 2.82701 136.796 0.588013 134.34 0.588013H134.3C120.101 0.588013 108.81 11.879 108.81 25.808V25.812C108.81 28.574 111.49 30.812 113.81 30.812Z" />
		</g>
		<g class="text">
			<path d="M331.425 103.351H351.65C354.411 103.351 356.65 101.112 356.65 98.351V78.126C356.65 75.365 354.411 73.126 351.65 73.126H331.425C328.664 73.126 326.425 75.365 326.425 78.126V98.351C326.425 101.112 328.664 103.351 331.425 103.351Z" />
			<path d="M331.425 67.82H351.65C354.411 67.82 356.65 64.843 356.65 62.82V41.857C356.65 39.96 354.411 36.857 351.65 36.857H331.425C328.664 36.857 326.425 39.96 326.425 41.857V62.82C326.425 64.843 328.664 67.82 331.425 67.82Z" />
			<path d="M331.425 30.812H351.65C354.411 30.812 356.65 28.574 356.65 25.812V5.58801C356.65 2.82701 354.411 0.588013 351.65 0.588013H331.425C328.664 0.588013 326.425 2.82701 326.425 5.58801V25.812C326.425 28.574 328.664 30.812 331.425 30.812Z" />
			<path d="M295.156 67.82H315.38C318.142 67.82 320.381 64.843 320.381 62.82V41.857C320.381 39.96 318.142 36.857 315.38 36.857H295.156C292.395 36.857 290.156 39.96 290.156 41.857V62.82C290.156 64.843 292.395 67.82 295.156 67.82Z" />
			<path d="M295.156 30.812H315.38C318.142 30.812 320.381 28.574 320.381 25.812V5.58801C320.381 2.82701 318.142 0.588013 315.38 0.588013H295.156C292.395 0.588013 290.156 2.82701 290.156 5.58801V25.812C290.156 28.574 292.395 30.812 295.156 30.812Z" />
			<path d="M258.887 103.351H279.111C281.873 103.351 284.111 101.112 284.111 98.351V78.126C284.111 75.365 281.873 73.126 279.111 73.126H258.887C256.125 73.126 253.887 75.365 253.887 78.126V98.351C253.887 101.112 256.125 103.351 258.887 103.351Z" />
			<path d="M258.887 67.82H279.111C281.873 67.82 284.111 64.843 284.111 62.82V41.857C284.111 39.96 281.873 36.857 279.111 36.857H258.887C256.125 36.857 253.887 39.96 253.887 41.857V62.82C253.887 64.843 256.125 67.82 258.887 67.82Z" />
			<path d="M258.887 30.812H279.111C281.873 30.812 284.111 28.574 284.111 25.812V5.58801C284.111 2.82701 281.873 0.588013 279.111 0.588013H279.107C265.178 0.588013 253.887 11.879 253.887 25.808V25.812C253.887 28.574 256.125 30.812 258.887 30.812Z" />
			<path d="M367.695 103.351H387.919C390.68 103.351 392.919 101.112 392.919 98.351V78.126C392.919 75.365 390.68 73.126 387.919 73.126H367.695C364.933 73.126 362.695 75.365 362.695 78.126V98.351C362.695 101.112 364.933 103.351 367.695 103.351Z" />
			<path d="M367.695 67.82H387.919C390.68 67.82 392.919 64.843 392.919 62.82V41.857C392.919 39.96 390.68 36.857 387.919 36.857H367.695C364.933 36.857 362.695 39.96 362.695 41.857V62.82C362.695 64.843 364.933 67.82 367.695 67.82Z" />
			<path d="M367.695 30.812H387.919C390.68 30.812 392.919 28.574 392.919 25.812V5.58801C392.919 2.82701 390.68 0.588013 387.919 0.588013H387.915C373.986 0.588013 362.695 11.879 362.695 25.808V25.812C362.695 28.574 364.933 30.812 367.695 30.812Z" />
			<path d="M496.727 67.82H476.502C473.741 67.82 471.502 64.843 471.502 62.82V41.857C471.502 39.96 473.741 36.857 476.502 36.857H496.727C499.488 36.857 501.727 39.96 501.727 41.857V62.82C501.727 64.843 499.488 67.82 496.727 67.82Z" />
			<path d="M496.727 30.812H476.502C473.741 30.812 471.502 28.574 471.502 25.812V5.58801C471.502 2.82701 473.741 0.588013 476.502 0.588013H496.727C499.488 0.588013 501.727 2.82701 501.727 5.58801V25.812C501.727 28.574 499.488 30.812 496.727 30.812Z" />
			<path d="M460.457 103.351H440.233C437.472 103.351 435.233 101.112 435.233 98.351V78.126C435.233 75.365 437.472 73.126 440.233 73.126H460.457C463.219 73.126 465.457 75.365 465.457 78.126V98.351C465.457 101.112 463.219 103.351 460.457 103.351Z" />
			<path d="M460.457 30.812H440.233C437.472 30.812 435.233 28.574 435.233 25.812V5.58801C435.233 2.82701 437.472 0.588013 440.233 0.588013H460.457C463.219 0.588013 465.457 2.82701 465.457 5.58801V25.812C465.457 28.574 463.219 30.812 460.457 30.812Z" />
			<path d="M424.188 103.351H403.964C401.202 103.351 398.964 101.112 398.964 98.351V78.126C398.964 75.365 401.202 73.126 403.964 73.126H424.188C426.95 73.126 429.188 75.365 429.188 78.126V98.351C429.188 101.112 426.95 103.351 424.188 103.351Z" />
			<path d="M424.188 67.82H403.964C401.202 67.82 398.964 64.843 398.964 62.82V41.857C398.964 39.96 401.202 36.857 403.964 36.857H424.188C426.95 36.857 429.188 39.96 429.188 41.857V62.82C429.188 64.843 426.95 67.82 424.188 67.82Z" />
			<path d="M424.188 30.812H403.964C401.202 30.812 398.964 28.574 398.964 25.812V25.808C398.964 11.879 410.255 0.588013 424.184 0.588013H424.188C426.95 0.588013 429.188 2.82701 429.188 5.58801V25.812C429.188 28.574 426.95 30.812 424.188 30.812Z" />
			<path d="M496.726 73.131H476.502C473.74 73.131 471.502 75.369 471.502 78.131V98.355C471.502 101.116 473.74 103.355 476.502 103.355H476.506C490.435 103.355 501.726 92.064 501.726 78.135V78.131C501.726 75.369 499.488 73.131 496.726 73.131Z" />
			<path d="M512.771 103.351H532.996C535.757 103.351 537.996 101.112 537.996 98.351V78.126C537.996 75.365 535.757 73.126 532.996 73.126H512.771C510.1 73.126 507.771 75.365 507.771 78.126V98.351C507.771 101.112 510.1 103.351 512.771 103.351Z" />
			<path d="M512.771 67.82H532.996C535.757 67.82 537.996 64.843 537.996 62.82V41.857C537.996 39.96 535.757 36.857 532.996 36.857H512.771C510.1 36.857 507.771 39.96 507.771 41.857V62.82C507.771 64.843 510.1 67.82 512.771 67.82Z" />
			<path d="M512.771 30.812H532.996C535.757 30.812 537.996 28.574 537.996 25.812V5.58801C537.996 2.82701 535.757 0.588013 532.996 0.588013H532.991C519.63 0.588013 507.771 11.879 507.771 25.808V25.812C507.771 28.574 510.1 30.812 512.771 30.812Z" />
		</g>
	</g>
	<defs>
		<filter id="filter0_i_745_3204" x="0" y="0" width="538" height="108" filterUnits="userSpaceOnUse" color-interpolation-filters="sRGB">
			<feFlood flood-opacity="0" result="BackgroundImageFix" />
			<feBlend mode="normal" in="SourceGraphic" in2="BackgroundImageFix" result="shape" />
			<feColorMatrix in="SourceAlpha" type="matrix" values="0 0 0 0 0 0 0 0 0 0 0 0 0 0 0 0 0 0 127 0" result="hardAlpha" />
			<feOffset dy="4" />
			<feGaussianBlur stdDeviation="2" />
			<feComposite in2="hardAlpha" operator="arithmetic" k2="-1" k3="1" />
			<feColorMatrix type="matrix" values="0 0 0 0 0 0 0 0 0 0 0 0 0 0 0 0 0 0 0.25 0" />
			<feBlend mode="normal" in2="shape" result="effect1_innerShadow_745_3204" />
		</filter>
		<linearGradient id="paint0_linear_745_3204" x1="-18.5" y1="187" x2="569.92" y2="-62.007" gradientUnits="userSpaceOnUse">
			<stop stop-color="#583944" />
			<stop offset="0.797525" stop-color="#C17699" />
			<stop offset="1" stop-color="#F6BBE2" />
		</linearGradient>
		<linearGradient id="paint22_linear_745_3204" x1="-34" y1="188.5" x2="587.238" y2="69.6601" gradientUnits="userSpaceOnUse">
			<stop stop-color="#583944" />
			<stop offset="0.797525" stop-color="#C17699" />
			<stop offset="1" stop-color="#F6BBE2" />
		</linearGradient>
	</defs>
</svg>
