<svg width="177" height="64" viewBox="0 0 491 177" fill="none" xmlns="http://www.w3.org/2000/svg">
	<g class="logo">
		<g filter="url(#filter0_dd_568_3127)">
			<path d="M101.721 19.656C96.3639 18.5214 90.7636 17.9358 85 17.9358C46.4817 17.9358 15.2564 44.0896 15.2564 85.4999C15.2564 126.91 46.4817 153.064 85 153.064C123.518 153.064 154.744 126.91 154.744 85.4999C154.744 52.8466 135.328 29.6794 108.231 21.3414C90.3238 30.0192 73.1144 42.755 64.1538 59.8092C69.8124 55.3256 77.077 52.8076 85 52.8076C103.055 52.8076 117.692 65.8845 117.692 85.4999C117.692 105.115 103.055 118.192 85 118.192C66.9445 118.192 52.3077 105.115 52.3077 85.4999C52.3077 57.7445 71.2284 35.1713 101.721 19.656Z" fill="#2FBDEC" fill-opacity="0.01" shape-rendering="crispEdges" />
		</g>
		<mask id="mask0_568_3127" style="mask-type:alpha" maskUnits="userSpaceOnUse" x="17" y="20" width="136" height="131">
			<path d="M85 20.1155C88.428 20.1155 91.7937 20.3281 95.0795 20.7444C67.4761 36.3372 50.1282 58.3961 50.1282 85.5001C50.1282 106.387 65.8103 120.372 85 120.372C104.19 120.372 119.872 106.387 119.872 85.5001C119.872 64.6127 104.19 50.6283 85 50.6283C79.9044 50.6283 75.0449 51.613 70.6557 53.4632C79.7789 40.8116 93.7202 30.9047 108.407 23.6813C134.198 31.9589 152.564 54.1709 152.564 85.5001C152.564 125.557 122.47 150.885 85 150.885C47.5296 150.885 17.4359 125.557 17.4359 85.5001C17.4359 45.4436 47.5296 20.1155 85 20.1155Z" fill="#FF0000" />
		</mask>
		<g mask="url(#mask0_568_3127)">
			<path d="M101.721 19.656C96.3639 18.5214 90.7636 17.9358 85 17.9358C46.4817 17.9358 15.2564 44.0896 15.2564 85.4999C15.2564 126.91 46.4817 153.064 85 153.064C123.518 153.064 154.744 126.91 154.744 85.4999C154.744 52.8466 135.328 29.6794 108.231 21.3414C90.3238 30.0192 73.1144 42.755 64.1538 59.8092C69.8124 55.3256 77.077 52.8076 85 52.8076C103.055 52.8076 117.692 65.8845 117.692 85.4999C117.692 105.115 103.055 118.192 85 118.192C66.9445 118.192 52.3077 105.115 52.3077 85.4999C52.3077 57.7445 71.2284 35.1713 101.721 19.656Z" fill="#2FBDEC" />
			<path d="M85 153.064C46.4817 153.064 15.2564 126.91 15.2564 85.4999C15.2564 44.0896 46.4817 17.9358 85 17.9358C90.7636 17.9358 96.3639 18.5214 101.721 19.656C71.2284 35.1713 52.3077 57.7445 52.3077 85.4999C52.3077 105.115 66.9445 118.192 85 118.192V153.064Z" fill="url(#paint0_linear_568_3127)" />
			<mask id="mask1_568_3127" style="mask-type:alpha" maskUnits="userSpaceOnUse" x="15" y="70" width="140" height="84">
				<rect x="15.2564" y="70.2437" width="139.487" height="82.8205" fill="url(#paint1_linear_568_3127)" />
			</mask>
			<g mask="url(#mask1_568_3127)">
				<path d="M101.721 19.656C96.3639 18.5214 90.7636 17.9358 85 17.9358C46.4817 17.9358 15.2564 44.0896 15.2564 85.4999C15.2564 126.91 46.4817 153.064 85 153.064C123.518 153.064 154.744 126.91 154.744 85.4999C154.744 52.8466 135.328 29.6794 108.231 21.3414C90.3238 30.0192 73.1144 42.755 64.1538 59.8092C69.8124 55.3256 77.077 52.8076 85 52.8076C103.055 52.8076 117.692 65.8845 117.692 85.4999C117.692 105.115 103.055 118.192 85 118.192C66.9445 118.192 52.3077 105.115 52.3077 85.4999C52.3077 57.7445 71.2284 35.1713 101.721 19.656Z" fill="url(#paint2_linear_568_3127)" />
			</g>
			<path d="M117.692 85.4998H154.744C154.744 52.8464 135.328 29.6793 108.231 21.3413C90.3238 30.0191 73.1144 42.7549 64.1539 59.8091C69.8124 55.3255 77.0771 52.8075 85 52.8075C103.055 52.8075 117.692 65.8844 117.692 85.4998Z" fill="url(#paint3_linear_568_3127)" />
		</g>
		<g filter="url(#filter1_d_568_3127)">
			<path d="M85 20.1153C88.428 20.1153 91.7937 20.3279 95.0795 20.7442C67.4761 36.337 50.1282 58.3959 50.1282 85.4999C50.1282 106.387 65.8103 120.372 85 120.372C104.19 120.372 119.872 106.387 119.872 85.4999C119.872 64.6125 104.19 50.6281 85 50.6281C79.9044 50.6281 75.0449 51.6128 70.6557 53.463C79.7789 40.8114 93.7202 30.9045 108.407 23.6811C134.198 31.9587 152.564 54.1707 152.564 85.4999C152.564 125.556 122.47 150.885 85 150.885C47.5296 150.885 17.4359 125.556 17.4359 85.4999C17.4359 45.4434 47.5296 20.1153 85 20.1153Z" stroke="url(#paint4_linear_568_3127)" stroke-width="4.35897" />
		</g>
	</g>
	<g class="text">
		<g filter="url(#filter2_d_568_3127)">
			<mask id="path-9-outside-1_568_3127" maskUnits="userSpaceOnUse" x="161.575" y="10.76" width="317" height="146" fill="black">
				<rect fill="white" x="161.575" y="10.76" width="317" height="146" />
				<path fill-rule="evenodd" clip-rule="evenodd" d="M442.715 75.649H417.326V19.465H442.715C451.151 19.465 458.8 22.77 463.284 27.301C468.56 32.526 471.199 39.284 471.199 47.577C471.199 55.87 468.554 62.622 463.265 67.833C457.975 73.44 451.125 75.649 442.715 75.649ZM451.1 36.332C448.245 33.55 444.804 32.16 440.677 32.16H433.39V62.955H440.677C444.752 62.955 448.18 61.525 450.962 58.665C453.744 55.805 455.135 52.102 455.135 47.557C455.135 42.856 453.757 39.114 451.1 36.332ZM374.248 96.267H414.525V108.961H390.312V118.286H412.57V130.941H390.312V139.757H415.7V152.451H374.248V96.267ZM392.422 67.5H372.715L370.403 75.649H353.791L369.933 19.465H395.165L411.346 75.649H394.695L392.422 67.5ZM382.588 32.669L376.319 54.845H388.779L382.588 32.669ZM331.708 49.399L314.978 62.994L298.248 49.399V75.649H282.185V18.76L314.978 43.639L347.772 18.76V75.649H331.708V49.399ZM291.265 139.757H312.187V152.451H275.24V96.267H291.304L291.265 139.757ZM259.945 72.789C255.426 75.166 250.359 76.355 244.743 76.355C239.127 76.355 234.6 75.166 229.541 72.789C225.22 70.413 221.451 67.24 218.826 62.622C216.201 58.221 214.888 53.199 214.888 47.557C214.888 41.915 216.201 36.894 218.826 32.493C221.451 28.92 225.22 24.703 229.541 22.325C234.6 19.949 239.127 18.76 244.743 18.76C250.359 18.76 255.426 19.949 259.945 22.325C264.464 24.703 268.36 28.92 270.661 32.493C273.286 36.894 274.598 41.915 274.598 47.557C274.598 53.199 273.286 58.221 270.661 62.622C268.36 67.24 264.464 70.413 259.945 72.789ZM254.793 37.39C252.63 34.765 248.72 33.453 244.763 33.453C240.806 33.453 237.462 34.765 234.733 37.39C232.3 40.15 230.638 43.404 230.638 47.557C230.638 51.685 232.3 55.74 234.733 57.725C237.462 60.376 240.806 61.701 244.763 61.701C248.72 61.701 252.63 60.376 254.793 57.725C257.522 55.74 258.887 51.685 258.887 47.557C258.887 43.404 257.522 40.15 254.793 37.39ZM195.274 75.649H179.249V32.16H165.575V19.465H208.908V32.16H195.274V75.649ZM183.206 119.618H201.425V96.267H217.41V152.451H201.386V132.313H183.245V152.451H167.182V96.267H183.206V119.618ZM265.876 108.961H241.663V118.286H263.408V130.941H241.663V139.757H267.51V152.451H225.599V96.267H265.876V108.961ZM361.691 101.889C365.7 105.638 367.705 110.653 367.705 116.934C367.705 123.217 365.7 128.225 361.691 131.96C357.681 135.696 351.902 137.563 344.353 137.563H336.361V152.451H320.297V96.267H344.353C351.902 96.267 357.681 98.142 361.691 101.889ZM336.322 108.961V124.908H342.669C345.333 124.908 347.494 124.15 349.153 122.635C350.811 121.121 351.641 119.226 351.641 116.954C351.641 114.656 350.818 112.749 349.173 111.234C347.527 109.719 345.359 108.961 342.669 108.961H336.322ZM465.283 101.889C469.292 105.638 471.297 110.66 471.297 116.954C471.297 121.133 470.396 124.784 468.593 127.905C466.791 131.26 464.113 133.423 460.561 135.94L471.179 152.451H455.76L446.261 137.563H439.953V152.451H423.889V96.267H447.945C455.494 96.267 461.273 98.142 465.283 101.889ZM439.913 108.961V124.908H446.261C448.925 124.908 451.86 124.15 452.745 122.635C454.403 121.121 455.233 119.226 455.233 116.954C455.233 114.656 454.41 112.749 452.765 111.234C451.119 109.719 448.951 108.961 446.261 108.961H439.913Z" />
			</mask>
			<path fill-rule="evenodd" clip-rule="evenodd" d="M442.715 75.649H417.326V19.465H442.715C451.151 19.465 458.8 22.77 463.284 27.301C468.56 32.526 471.199 39.284 471.199 47.577C471.199 55.87 468.554 62.622 463.265 67.833C457.975 73.44 451.125 75.649 442.715 75.649ZM451.1 36.332C448.245 33.55 444.804 32.16 440.677 32.16H433.39V62.955H440.677C444.752 62.955 448.18 61.525 450.962 58.665C453.744 55.805 455.135 52.102 455.135 47.557C455.135 42.856 453.757 39.114 451.1 36.332ZM374.248 96.267H414.525V108.961H390.312V118.286H412.57V130.941H390.312V139.757H415.7V152.451H374.248V96.267ZM392.422 67.5H372.715L370.403 75.649H353.791L369.933 19.465H395.165L411.346 75.649H394.695L392.422 67.5ZM382.588 32.669L376.319 54.845H388.779L382.588 32.669ZM331.708 49.399L314.978 62.994L298.248 49.399V75.649H282.185V18.76L314.978 43.639L347.772 18.76V75.649H331.708V49.399ZM291.265 139.757H312.187V152.451H275.24V96.267H291.304L291.265 139.757ZM259.945 72.789C255.426 75.166 250.359 76.355 244.743 76.355C239.127 76.355 234.6 75.166 229.541 72.789C225.22 70.413 221.451 67.24 218.826 62.622C216.201 58.221 214.888 53.199 214.888 47.557C214.888 41.915 216.201 36.894 218.826 32.493C221.451 28.92 225.22 24.703 229.541 22.325C234.6 19.949 239.127 18.76 244.743 18.76C250.359 18.76 255.426 19.949 259.945 22.325C264.464 24.703 268.36 28.92 270.661 32.493C273.286 36.894 274.598 41.915 274.598 47.557C274.598 53.199 273.286 58.221 270.661 62.622C268.36 67.24 264.464 70.413 259.945 72.789ZM254.793 37.39C252.63 34.765 248.72 33.453 244.763 33.453C240.806 33.453 237.462 34.765 234.733 37.39C232.3 40.15 230.638 43.404 230.638 47.557C230.638 51.685 232.3 55.74 234.733 57.725C237.462 60.376 240.806 61.701 244.763 61.701C248.72 61.701 252.63 60.376 254.793 57.725C257.522 55.74 258.887 51.685 258.887 47.557C258.887 43.404 257.522 40.15 254.793 37.39ZM195.274 75.649H179.249V32.16H165.575V19.465H208.908V32.16H195.274V75.649ZM183.206 119.618H201.425V96.267H217.41V152.451H201.386V132.313H183.245V152.451H167.182V96.267H183.206V119.618ZM265.876 108.961H241.663V118.286H263.408V130.941H241.663V139.757H267.51V152.451H225.599V96.267H265.876V108.961ZM361.691 101.889C365.7 105.638 367.705 110.653 367.705 116.934C367.705 123.217 365.7 128.225 361.691 131.96C357.681 135.696 351.902 137.563 344.353 137.563H336.361V152.451H320.297V96.267H344.353C351.902 96.267 357.681 98.142 361.691 101.889ZM336.322 108.961V124.908H342.669C345.333 124.908 347.494 124.15 349.153 122.635C350.811 121.121 351.641 119.226 351.641 116.954C351.641 114.656 350.818 112.749 349.173 111.234C347.527 109.719 345.359 108.961 342.669 108.961H336.322ZM465.283 101.889C469.292 105.638 471.297 110.66 471.297 116.954C471.297 121.133 470.396 124.784 468.593 127.905C466.791 131.26 464.113 133.423 460.561 135.94L471.179 152.451H455.76L446.261 137.563H439.953V152.451H423.889V96.267H447.945C455.494 96.267 461.273 98.142 465.283 101.889ZM439.913 108.961V124.908H446.261C448.925 124.908 451.86 124.15 452.745 122.635C454.403 121.121 455.233 119.226 455.233 116.954C455.233 114.656 454.41 112.749 452.765 111.234C451.119 109.719 448.951 108.961 446.261 108.961H439.913Z" fill="url(#paint5_linear_568_3127)" />
			<path fill-rule="evenodd" clip-rule="evenodd" d="M442.715 75.649H417.326V19.465H442.715C451.151 19.465 458.8 22.77 463.284 27.301C468.56 32.526 471.199 39.284 471.199 47.577C471.199 55.87 468.554 62.622 463.265 67.833C457.975 73.44 451.125 75.649 442.715 75.649ZM451.1 36.332C448.245 33.55 444.804 32.16 440.677 32.16H433.39V62.955H440.677C444.752 62.955 448.18 61.525 450.962 58.665C453.744 55.805 455.135 52.102 455.135 47.557C455.135 42.856 453.757 39.114 451.1 36.332ZM374.248 96.267H414.525V108.961H390.312V118.286H412.57V130.941H390.312V139.757H415.7V152.451H374.248V96.267ZM392.422 67.5H372.715L370.403 75.649H353.791L369.933 19.465H395.165L411.346 75.649H394.695L392.422 67.5ZM382.588 32.669L376.319 54.845H388.779L382.588 32.669ZM331.708 49.399L314.978 62.994L298.248 49.399V75.649H282.185V18.76L314.978 43.639L347.772 18.76V75.649H331.708V49.399ZM291.265 139.757H312.187V152.451H275.24V96.267H291.304L291.265 139.757ZM259.945 72.789C255.426 75.166 250.359 76.355 244.743 76.355C239.127 76.355 234.6 75.166 229.541 72.789C225.22 70.413 221.451 67.24 218.826 62.622C216.201 58.221 214.888 53.199 214.888 47.557C214.888 41.915 216.201 36.894 218.826 32.493C221.451 28.92 225.22 24.703 229.541 22.325C234.6 19.949 239.127 18.76 244.743 18.76C250.359 18.76 255.426 19.949 259.945 22.325C264.464 24.703 268.36 28.92 270.661 32.493C273.286 36.894 274.598 41.915 274.598 47.557C274.598 53.199 273.286 58.221 270.661 62.622C268.36 67.24 264.464 70.413 259.945 72.789ZM254.793 37.39C252.63 34.765 248.72 33.453 244.763 33.453C240.806 33.453 237.462 34.765 234.733 37.39C232.3 40.15 230.638 43.404 230.638 47.557C230.638 51.685 232.3 55.74 234.733 57.725C237.462 60.376 240.806 61.701 244.763 61.701C248.72 61.701 252.63 60.376 254.793 57.725C257.522 55.74 258.887 51.685 258.887 47.557C258.887 43.404 257.522 40.15 254.793 37.39ZM195.274 75.649H179.249V32.16H165.575V19.465H208.908V32.16H195.274V75.649ZM183.206 119.618H201.425V96.267H217.41V152.451H201.386V132.313H183.245V152.451H167.182V96.267H183.206V119.618ZM265.876 108.961H241.663V118.286H263.408V130.941H241.663V139.757H267.51V152.451H225.599V96.267H265.876V108.961ZM361.691 101.889C365.7 105.638 367.705 110.653 367.705 116.934C367.705 123.217 365.7 128.225 361.691 131.96C357.681 135.696 351.902 137.563 344.353 137.563H336.361V152.451H320.297V96.267H344.353C351.902 96.267 357.681 98.142 361.691 101.889ZM336.322 108.961V124.908H342.669C345.333 124.908 347.494 124.15 349.153 122.635C350.811 121.121 351.641 119.226 351.641 116.954C351.641 114.656 350.818 112.749 349.173 111.234C347.527 109.719 345.359 108.961 342.669 108.961H336.322ZM465.283 101.889C469.292 105.638 471.297 110.66 471.297 116.954C471.297 121.133 470.396 124.784 468.593 127.905C466.791 131.26 464.113 133.423 460.561 135.94L471.179 152.451H455.76L446.261 137.563H439.953V152.451H423.889V96.267H447.945C455.494 96.267 461.273 98.142 465.283 101.889ZM439.913 108.961V124.908H446.261C448.925 124.908 451.86 124.15 452.745 122.635C454.403 121.121 455.233 119.226 455.233 116.954C455.233 114.656 454.41 112.749 452.765 111.234C451.119 109.719 448.951 108.961 446.261 108.961H439.913Z" stroke="white" stroke-width="7" mask="url(#path-9-outside-1_568_3127)" />
		</g>
		<path fill-rule="evenodd" clip-rule="evenodd" d="M442.715 75.649H417.326V19.465H442.715C451.151 19.465 458.8 22.77 463.284 27.301C468.56 32.526 471.199 39.284 471.199 47.577C471.199 55.87 468.554 62.622 463.265 67.833C457.975 73.44 451.125 75.649 442.715 75.649ZM451.1 36.332C448.245 33.55 444.804 32.16 440.677 32.16H433.39V62.955H440.677C444.752 62.955 448.18 61.525 450.962 58.665C453.744 55.805 455.135 52.102 455.135 47.557C455.135 42.856 453.757 39.114 451.1 36.332ZM374.248 96.267H414.525V108.961H390.312V118.286H412.57V130.941H390.312V139.757H415.7V152.451H374.248V96.267ZM392.422 67.5H372.715L370.403 75.649H353.791L369.933 19.465H395.165L411.346 75.649H394.695L392.422 67.5ZM382.588 32.669L376.319 54.845H388.779L382.588 32.669ZM331.708 49.399L314.978 62.994L298.248 49.399V75.649H282.185V18.76L314.978 43.639L347.772 18.76V75.649H331.708V49.399ZM291.265 139.757H312.187V152.451H275.24V96.267H291.304L291.265 139.757ZM259.945 72.789C255.426 75.166 250.359 76.355 244.743 76.355C239.127 76.355 234.6 75.166 229.541 72.789C225.22 70.413 221.451 67.24 218.826 62.622C216.201 58.221 214.888 53.199 214.888 47.557C214.888 41.915 216.201 36.894 218.826 32.493C221.451 28.92 225.22 24.703 229.541 22.325C234.6 19.949 239.127 18.76 244.743 18.76C250.359 18.76 255.426 19.949 259.945 22.325C264.464 24.703 268.36 28.92 270.661 32.493C273.286 36.894 274.598 41.915 274.598 47.557C274.598 53.199 273.286 58.221 270.661 62.622C268.36 67.24 264.464 70.413 259.945 72.789ZM254.793 37.39C252.63 34.765 248.72 33.453 244.763 33.453C240.806 33.453 237.462 34.765 234.733 37.39C232.3 40.15 230.638 43.404 230.638 47.557C230.638 51.685 232.3 55.74 234.733 57.725C237.462 60.376 240.806 61.701 244.763 61.701C248.72 61.701 252.63 60.376 254.793 57.725C257.522 55.74 258.887 51.685 258.887 47.557C258.887 43.404 257.522 40.15 254.793 37.39ZM195.274 75.649H179.249V32.16H165.575V19.465H208.908V32.16H195.274V75.649ZM183.206 119.618H201.425V96.267H217.41V152.451H201.386V132.313H183.245V152.451H167.182V96.267H183.206V119.618ZM265.876 108.961H241.663V118.286H263.408V130.941H241.663V139.757H267.51V152.451H225.599V96.267H265.876V108.961ZM361.691 101.889C365.7 105.638 367.705 110.653 367.705 116.934C367.705 123.217 365.7 128.225 361.691 131.96C357.681 135.696 351.902 137.563 344.353 137.563H336.361V152.451H320.297V96.267H344.353C351.902 96.267 357.681 98.142 361.691 101.889ZM336.322 108.961V124.908H342.669C345.333 124.908 347.494 124.15 349.153 122.635C350.811 121.121 351.641 119.226 351.641 116.954C351.641 114.656 350.818 112.749 349.173 111.234C347.527 109.719 345.359 108.961 342.669 108.961H336.322ZM465.283 101.889C469.292 105.638 471.297 110.66 471.297 116.954C471.297 121.133 470.396 124.784 468.593 127.905C466.791 131.26 464.113 133.423 460.561 135.94L471.179 152.451H455.76L446.261 137.563H439.953V152.451H423.889V96.267H447.945C455.494 96.267 461.273 98.142 465.283 101.889ZM439.913 108.961V124.908H446.261C448.925 124.908 451.86 124.15 452.745 122.635C454.403 121.121 455.233 119.226 455.233 116.954C455.233 114.656 454.41 112.749 452.765 111.234C451.119 109.719 448.951 108.961 446.261 108.961H439.913Z" fill="url(#paint6_linear_568_3127)" />
		<g style="mix-blend-mode:plus-lighter">
			<path fill-rule="evenodd" clip-rule="evenodd" d="M442.715 75.649H417.326V19.465H442.715C451.151 19.465 458.8 22.77 463.284 27.301C468.56 32.526 471.199 39.284 471.199 47.577C471.199 55.87 468.554 62.622 463.265 67.833C457.975 73.44 451.125 75.649 442.715 75.649ZM451.1 36.332C448.245 33.55 444.804 32.16 440.677 32.16H433.39V62.955H440.677C444.752 62.955 448.18 61.525 450.962 58.665C453.744 55.805 455.135 52.102 455.135 47.557C455.135 42.856 453.757 39.114 451.1 36.332ZM374.248 96.267H414.525V108.961H390.312V118.286H412.57V130.941H390.312V139.757H415.7V152.451H374.248V96.267ZM392.422 67.5H372.715L370.403 75.649H353.791L369.933 19.465H395.165L411.346 75.649H394.695L392.422 67.5ZM382.588 32.669L376.319 54.845H388.779L382.588 32.669ZM331.708 49.399L314.978 62.994L298.248 49.399V75.649H282.185V18.76L314.978 43.639L347.772 18.76V75.649H331.708V49.399ZM291.265 139.757H312.187V152.451H275.24V96.267H291.304L291.265 139.757ZM259.945 72.789C255.426 75.166 250.359 76.355 244.743 76.355C239.127 76.355 234.6 75.166 229.541 72.789C225.22 70.413 221.451 67.24 218.826 62.622C216.201 58.221 214.888 53.199 214.888 47.557C214.888 41.915 216.201 36.894 218.826 32.493C221.451 28.92 225.22 24.703 229.541 22.325C234.6 19.949 239.127 18.76 244.743 18.76C250.359 18.76 255.426 19.949 259.945 22.325C264.464 24.703 268.36 28.92 270.661 32.493C273.286 36.894 274.598 41.915 274.598 47.557C274.598 53.199 273.286 58.221 270.661 62.622C268.36 67.24 264.464 70.413 259.945 72.789ZM254.793 37.39C252.63 34.765 248.72 33.453 244.763 33.453C240.806 33.453 237.462 34.765 234.733 37.39C232.3 40.15 230.638 43.404 230.638 47.557C230.638 51.685 232.3 55.74 234.733 57.725C237.462 60.376 240.806 61.701 244.763 61.701C248.72 61.701 252.63 60.376 254.793 57.725C257.522 55.74 258.887 51.685 258.887 47.557C258.887 43.404 257.522 40.15 254.793 37.39ZM195.274 75.649H179.249V32.16H165.575V19.465H208.908V32.16H195.274V75.649ZM183.206 119.618H201.425V96.267H217.41V152.451H201.386V132.313H183.245V152.451H167.182V96.267H183.206V119.618ZM265.876 108.961H241.663V118.286H263.408V130.941H241.663V139.757H267.51V152.451H225.599V96.267H265.876V108.961ZM361.691 101.889C365.7 105.638 367.705 110.653 367.705 116.934C367.705 123.217 365.7 128.225 361.691 131.96C357.681 135.696 351.902 137.563 344.353 137.563H336.361V152.451H320.297V96.267H344.353C351.902 96.267 357.681 98.142 361.691 101.889ZM336.322 108.961V124.908H342.669C345.333 124.908 347.494 124.15 349.153 122.635C350.811 121.121 351.641 119.226 351.641 116.954C351.641 114.656 350.818 112.749 349.173 111.234C347.527 109.719 345.359 108.961 342.669 108.961H336.322ZM465.283 101.889C469.292 105.638 471.297 110.66 471.297 116.954C471.297 121.133 470.396 124.784 468.593 127.905C466.791 131.26 464.113 133.423 460.561 135.94L471.179 152.451H455.76L446.261 137.563H439.953V152.451H423.889V96.267H447.945C455.494 96.267 461.273 98.142 465.283 101.889ZM439.913 108.961V124.908H446.261C448.925 124.908 451.86 124.15 452.745 122.635C454.403 121.121 455.233 119.226 455.233 116.954C455.233 114.656 454.41 112.749 452.765 111.234C451.119 109.719 448.951 108.961 446.261 108.961H439.913Z" fill="url(#paint7_radial_568_3127)" />
		</g>
	</g>
	<defs>
		<filter id="filter0_dd_568_3127" x="6.53846" y="9.21784" width="156.923" height="161.282" filterUnits="userSpaceOnUse" color-interpolation-filters="sRGB">
			<feFlood flood-opacity="0" result="BackgroundImageFix" />
			<feColorMatrix in="SourceAlpha" type="matrix" values="0 0 0 0 0 0 0 0 0 0 0 0 0 0 0 0 0 0 127 0" result="hardAlpha" />
			<feOffset />
			<feGaussianBlur stdDeviation="4.35897" />
			<feComposite in2="hardAlpha" operator="out" />
			<feColorMatrix type="matrix" values="0 0 0 0 0.129412 0 0 0 0 0.14902 0 0 0 0 0.172549 0 0 0 0.25 0" />
			<feBlend mode="normal" in2="BackgroundImageFix" result="effect1_dropShadow_568_3127" />
			<feColorMatrix in="SourceAlpha" type="matrix" values="0 0 0 0 0 0 0 0 0 0 0 0 0 0 0 0 0 0 127 0" result="hardAlpha" />
			<feOffset dy="8.71795" />
			<feGaussianBlur stdDeviation="4.35897" />
			<feComposite in2="hardAlpha" operator="out" />
			<feColorMatrix type="matrix" values="0 0 0 0 0.129412 0 0 0 0 0.14902 0 0 0 0 0.172549 0 0 0 0.3 0" />
			<feBlend mode="normal" in2="effect1_dropShadow_568_3127" result="effect2_dropShadow_568_3127" />
			<feBlend mode="normal" in="SourceGraphic" in2="effect2_dropShadow_568_3127" result="shape" />
		</filter>
		<filter id="filter1_d_568_3127" x="10.8974" y="15.7563" width="148.205" height="143.846" filterUnits="userSpaceOnUse" color-interpolation-filters="sRGB">
			<feFlood flood-opacity="0" result="BackgroundImageFix" />
			<feColorMatrix in="SourceAlpha" type="matrix" values="0 0 0 0 0 0 0 0 0 0 0 0 0 0 0 0 0 0 127 0" result="hardAlpha" />
			<feOffset dy="2.17949" />
			<feGaussianBlur stdDeviation="2.17949" />
			<feColorMatrix type="matrix" values="0 0 0 0 0.129412 0 0 0 0 0.14902 0 0 0 0 0.172549 0 0 0 0.25 0" />
			<feBlend mode="normal" in2="BackgroundImageFix" result="effect1_dropShadow_568_3127" />
			<feBlend mode="normal" in="SourceGraphic" in2="effect1_dropShadow_568_3127" result="shape" />
		</filter>
		<filter id="filter2_d_568_3127" x="149.075" y="6.71143" width="341.516" height="170.24" filterUnits="userSpaceOnUse" color-interpolation-filters="sRGB">
			<feFlood flood-opacity="0" result="BackgroundImageFix" />
			<feColorMatrix in="SourceAlpha" type="matrix" values="0 0 0 0 0 0 0 0 0 0 0 0 0 0 0 0 0 0 127 0" result="hardAlpha" />
			<feOffset dy="8" />
			<feGaussianBlur stdDeviation="6.5" />
			<feComposite in2="hardAlpha" operator="out" />
			<feColorMatrix type="matrix" values="0 0 0 0 0.129412 0 0 0 0 0.14902 0 0 0 0 0.172549 0 0 0 0.3 0" />
			<feBlend mode="normal" in2="BackgroundImageFix" result="effect1_dropShadow_568_3127" />
			<feBlend mode="normal" in="SourceGraphic" in2="effect1_dropShadow_568_3127" result="shape" />
		</filter>
		<linearGradient id="paint0_linear_568_3127" x1="54.2134" y1="77.8262" x2="64.0709" y2="107.428" gradientUnits="userSpaceOnUse">
			<stop stop-color="#FB7299" />
			<stop offset="1" stop-color="#FB7299" stop-opacity="0" />
		</linearGradient>
		<linearGradient id="paint1_linear_568_3127" x1="85" y1="76.6145" x2="85" y2="92.5415" gradientUnits="userSpaceOnUse">
			<stop stop-opacity="0" />
			<stop offset="1" />
		</linearGradient>
		<linearGradient id="paint2_linear_568_3127" x1="15.2564" y1="108.385" x2="153.662" y2="87.7346" gradientUnits="userSpaceOnUse">
			<stop stop-color="#FB7299" />
			<stop offset="1" stop-color="#FB7299" stop-opacity="0" />
		</linearGradient>
		<linearGradient id="paint3_linear_568_3127" x1="86.0898" y1="-43.09" x2="134.038" y2="62.6152" gradientUnits="userSpaceOnUse">
			<stop />
			<stop offset="1" stop-opacity="0" />
		</linearGradient>
		<linearGradient id="paint4_linear_568_3127" x1="32.6923" y1="17.9358" x2="113.906" y2="199.793" gradientUnits="userSpaceOnUse">
			<stop stop-color="white" />
			<stop offset="1" stop-color="#DFDFDF" />
		</linearGradient>
		<linearGradient id="paint5_linear_568_3127" x1="166" y1="19" x2="471" y2="152" gradientUnits="userSpaceOnUse">
			<stop stop-color="#FB7299" />
			<stop offset="1" stop-color="#2FBDEC" />
		</linearGradient>
		<linearGradient id="paint6_linear_568_3127" x1="471" y1="19" x2="166" y2="152" gradientUnits="userSpaceOnUse">
			<stop stop-opacity="0.3" />
			<stop offset="0.300778" stop-opacity="0" />
			<stop offset="0.695359" stop-opacity="0" />
			<stop offset="1" stop-opacity="0.3" />
		</linearGradient>
		<radialGradient id="paint7_radial_568_3127" cx="0" cy="0" r="1" gradientUnits="userSpaceOnUse" gradientTransform="translate(318.5 85.5) rotate(156.44) scale(166.369 380.448)">
			<stop stop-color="white" stop-opacity="0.15" />
			<stop offset="1" stop-color="white" stop-opacity="0" />
		</radialGradient>
	</defs>
</svg>
