<svg width="219" height="64" viewBox="0 0 219 64" xmlns="http://www.w3.org/2000/svg">
	<g class="logo">
		<g fill="#EA7A99">
			<path d="M4.4032 47.8784C4.544 47.5008 4.6784 47.1424 4.8128 46.7968C5.4528 45.1648 6.2016 43.584 7.0528 42.0544C8.032 40.3008 9.152 38.624 10.3936 37.0368C10.848 36.4608 11.3088 35.8912 11.8016 35.3472C11.9232 35.2128 11.9232 35.2128 12.0896 35.3024C13.9136 36.3072 15.8144 37.1712 17.7728 37.888C19.264 38.432 20.7872 38.8928 22.3296 39.2576C23.4112 39.5136 24.4928 39.7312 25.5936 39.8976C25.696 39.9104 25.7856 39.9552 25.8688 40.0256C26.528 40.5696 27.2064 41.0944 27.904 41.6C28.7168 42.1888 29.5488 42.7392 30.4 43.2704C30.6112 43.4048 30.8224 43.5456 31.072 43.7056C28.3776 45.1712 25.5232 46.3168 22.5664 47.1296C19.6224 47.9424 16.5952 48.4096 13.5424 48.5312C10.4768 48.6592 7.4112 48.4416 4.4032 47.8784Z" />
			<path d="M42.56 27.3792C42.624 27.3664 42.6624 27.4176 42.7136 27.4432C44.3136 28.4032 45.8432 29.472 47.296 30.6496C48.1472 31.3408 48.9664 32.0704 49.76 32.8256C50.3296 33.3632 50.8736 33.9328 51.4112 34.5024C52.2048 35.3472 52.9536 36.224 53.6576 37.1392C54.6816 38.4576 55.6224 39.84 56.4736 41.28C57.6128 43.2128 58.5856 45.2416 59.3728 47.3408C59.424 47.4752 59.4752 47.6096 59.5264 47.7504C59.5648 47.8656 59.552 47.8912 59.4304 47.9168C59.168 47.968 58.9056 48.0128 58.6368 48.0512C58.1568 48.1216 57.6768 48.1984 57.1968 48.256C56.7488 48.3136 56.3008 48.3584 55.8528 48.3968C55.2704 48.448 54.6816 48.4864 54.0928 48.5248C53.8944 48.5376 53.696 48.5312 53.504 48.5376C53.1264 48.544 52.7488 48.5632 52.3712 48.5632C51.68 48.5696 50.9888 48.5568 50.304 48.5248C49.5488 48.4864 48.8 48.4288 48.0448 48.3584C46.9504 48.2496 45.8624 48.096 44.7808 47.8912C44.6528 47.8656 44.6272 47.8144 44.6336 47.7056C44.6528 47.2256 44.608 46.7456 44.5888 46.272C44.5504 45.4528 44.4864 44.64 44.3904 43.8208C44.3008 43.0656 44.1984 42.3104 44.0704 41.5616C43.9552 40.8704 43.8144 40.1728 43.6608 39.4944C43.4112 38.368 43.0976 37.2608 42.7456 36.16C42.5088 35.4112 42.2528 34.6752 41.952 33.9456C41.9136 33.8496 41.9008 33.7344 41.92 33.632C42.0672 32.8064 42.1888 31.9744 42.2848 31.136C42.3552 30.4768 42.4128 29.824 42.4576 29.1648C42.496 28.6016 42.5088 28.032 42.5344 27.4688C42.5344 27.4368 42.528 27.4048 42.56 27.3792Z" />
			<path d="M61.536 26.6305C61.5296 26.6497 61.5232 26.6753 61.5104 26.6945C61.0816 27.1361 60.672 27.5969 60.2176 28.0193C59.8784 28.3329 59.552 28.6657 59.2064 28.9793C58.0928 29.9969 56.9216 30.9505 55.6992 31.8401C54.6624 32.5889 53.5936 33.2929 52.4928 33.9393C52.256 34.0801 52.2496 34.0865 52.0704 33.8817C51.5008 33.2609 50.9056 32.6657 50.2976 32.0833C49.1776 31.0145 48 30.0161 46.7648 29.0817C45.4464 28.0833 44.064 27.1681 42.6304 26.3361C41.2608 25.5425 39.8464 24.8257 38.3936 24.1985C37.1328 23.6545 35.8528 23.1681 34.5472 22.7457C34.336 22.6753 34.1184 22.6113 33.9072 22.5281C37.0048 21.8689 40.1728 21.5873 43.3344 21.6897C49.7024 21.8689 55.9424 23.5649 61.536 26.6305Z" />
			<path d="M39.6609 38.7263C39.6289 38.9951 39.5137 39.2383 39.4241 39.4943C38.8801 41.0111 38.2465 42.4959 37.5169 43.9295C36.8705 45.2031 36.1537 46.4447 35.3729 47.6415C34.5409 48.9151 33.6321 50.1439 32.6593 51.3151C32.1921 51.8783 31.7057 52.4287 31.2001 52.9663C30.7905 53.4015 30.3809 53.8303 29.9585 54.2463C28.6977 55.4751 27.3665 56.6207 25.9585 57.6767C24.8193 58.5279 23.6353 59.3215 22.4129 60.0511C22.1185 60.2239 22.1569 60.2239 22.0609 59.9231C21.5745 58.3871 21.1841 56.8255 20.8897 55.2447C20.7489 54.4959 20.6337 53.7407 20.5441 52.9855C20.4609 52.2879 20.3905 51.5839 20.3457 50.8863C20.3009 50.1823 20.2625 49.5103 20.2625 48.8191C20.2625 48.6207 20.2625 48.6207 20.4673 48.5695C22.8161 48.0703 25.1201 47.3663 27.3409 46.4639C28.8769 45.8303 30.3809 45.1135 31.8401 44.3199C33.6129 43.3727 35.2704 42.2527 36.864 41.0367C37.7664 40.3519 38.6369 39.6223 39.4689 38.8543C39.5137 38.7967 39.5841 38.7519 39.6609 38.7263Z" />
			<path d="M24.3584 38.7775C15.776 37.0687 8.47359 33.0303 2.46399 26.6687C2.51519 26.6047 2.57919 26.5535 2.64959 26.5215C4.15359 25.7087 5.70239 24.9983 7.28959 24.3775C8.95359 23.7375 10.6624 23.2063 12.3968 22.7967C12.736 22.7135 13.0752 22.6367 13.4144 22.5599C13.5744 22.5215 13.5936 22.5343 13.6512 22.6943C13.9648 23.5583 14.304 24.4159 14.6816 25.2607C15.1808 26.3871 15.7312 27.4943 16.3328 28.5759C16.8256 29.4655 17.3568 30.3295 17.9136 31.1807C18.464 32.0191 19.0528 32.8319 19.6672 33.6191C20.3904 34.5535 21.1584 35.4559 21.9648 36.3199C22.4 36.7871 22.848 37.2415 23.2896 37.7087C23.6224 38.0543 23.9808 38.3679 24.3328 38.7007C24.3584 38.7199 24.3712 38.7455 24.3584 38.7775Z" />
			<path d="M41.568 35.5264C41.664 35.7952 41.7536 36.0512 41.8368 36.32C42.304 37.7536 42.6816 39.2128 42.9824 40.6912C43.1488 41.5232 43.2896 42.3616 43.3984 43.2C43.4816 43.8272 43.5392 44.4544 43.5968 45.0816C43.7184 46.5216 43.7504 47.968 43.712 49.408C43.6864 50.2272 43.6416 51.0464 43.5584 51.8592C43.4816 52.5888 43.3984 53.312 43.2896 54.0352C43.1552 54.9248 42.9888 55.8144 42.7904 56.7104C42.5472 57.7984 42.2464 58.8736 41.9136 59.9424C41.9008 59.9872 41.888 60.0256 41.8752 60.064C41.8688 60.096 41.8368 60.1216 41.8048 60.1216C41.7856 60.1216 41.7728 60.1152 41.76 60.1024C41.6768 60.0576 41.5936 60.0128 41.5104 59.9616C40.192 59.168 38.9184 58.2976 37.696 57.3632C36.9344 56.7808 36.1984 56.1664 35.4816 55.5264C34.6048 54.7456 33.7792 53.92 32.9664 53.0816C32.8896 53.0048 32.8192 52.9216 32.7488 52.8384C32.6528 52.7168 32.6528 52.7168 32.7488 52.5888C33.3504 51.8976 33.9264 51.1872 34.4832 50.464C35.2064 49.5104 35.8912 48.5248 36.5312 47.5136C37.1776 46.4896 37.7728 45.4336 38.3232 44.3456C38.9568 43.0976 39.5264 41.8176 40.0192 40.5056C40.6208 38.9312 41.1136 37.3248 41.504 35.6864C41.504 35.6352 41.5296 35.5776 41.568 35.5264Z" />
			<path d="M32.4865 42.8544C32.5889 39.9616 33.3633 37.1392 34.7649 34.6048C36.3713 31.648 38.7265 29.1648 41.5937 27.3984C41.4977 30.2208 40.7488 32.9792 39.4176 35.4624C37.8048 38.5024 35.4113 41.056 32.4865 42.8544Z" />
			<path d="M41.1136 26.5407C35.3792 29.4655 28.576 29.4655 22.8416 26.5407C28.576 23.6095 35.3856 23.6095 41.1136 26.5407Z" />
			<path d="M22.4 35.4561C22.4384 35.4369 22.4384 35.3985 22.4448 35.3665C22.4576 35.3921 22.4704 35.4113 22.4832 35.4369C22.4896 35.4625 22.496 35.5073 22.4704 35.5137C22.432 35.5265 22.4128 35.4881 22.4 35.4561Z" />
			<path d="M39.6608 38.7269L39.674 38.7073V38.7203C39.674 38.7203 39.6674 38.7269 39.6608 38.7269Z" />
		</g>
		<g fill="#5FBAE7">
			<path d="M32.0128 1.02393C32.4096 1.47833 32.7808 1.91993 33.1456 2.37433C34.3424 3.86553 35.424 5.43993 36.3904 7.09113C37.5808 9.11993 38.5792 11.2575 39.3728 13.4719C39.3856 13.5039 39.3984 13.5359 39.4112 13.5679C39.4688 13.6639 39.4304 13.7215 39.3344 13.7727C38.9888 13.9711 38.6496 14.1823 38.3104 14.3935C35.5392 16.1215 32.9856 18.1759 30.7072 20.5119C29.9776 21.2607 29.2736 22.0287 28.608 22.8415C28.48 23.0079 28.3008 23.1295 28.1088 23.1999C26.3936 23.8143 24.7232 24.5439 23.104 25.3887C22.9056 25.4847 22.7072 25.5999 22.5088 25.7023C22.4 25.7599 22.368 25.7407 22.3744 25.6319C22.4064 24.9919 22.4192 24.3583 22.4704 23.7183C22.5088 23.2255 22.5536 22.7327 22.6048 22.2463C22.7008 21.3439 22.8352 20.4479 23.0016 19.5583C23.36 17.6127 23.8656 15.6927 24.5184 13.8239C25.4528 11.1551 26.6752 8.60153 28.1664 6.20153C29.1648 4.58233 30.2912 3.03993 31.52 1.58713C31.68 1.40153 31.8208 1.20953 32.0128 1.02393Z" />
			<path d="M22.4 35.456C21.4848 34.4576 20.6272 33.4144 19.8272 32.3328C18.2016 30.1376 16.8128 27.776 15.6864 25.2864C14.5792 22.8544 13.7344 20.3136 13.1584 17.7024C12.9792 16.8896 12.8192 16.0704 12.6976 15.2448C12.576 14.4192 12.48 13.6064 12.4096 12.7808C12.3328 11.9296 12.3008 11.072 12.2624 10.2144C12.2496 9.94564 12.2624 9.94564 12.512 9.99684C14.4896 10.432 16.4288 11.0144 18.3232 11.7376C19.68 12.2624 21.0048 12.8512 22.2912 13.5168C22.624 13.6896 22.9568 13.8688 23.2896 14.0544C23.456 14.144 23.456 14.144 23.3984 14.3168C23.0784 15.2896 22.8032 16.2752 22.56 17.2672C22.304 18.3232 22.0928 19.392 21.9264 20.4672C21.8112 21.2288 21.7152 21.9904 21.6384 22.752C21.5872 23.2256 21.5616 23.7056 21.536 24.1856C21.4912 24.9024 21.4784 25.6192 21.4528 26.3424C21.4272 27.2192 21.4656 28.096 21.5232 28.9728C21.5616 29.568 21.6128 30.1632 21.6768 30.752C21.76 31.5008 21.8624 32.2496 21.9904 32.992C22.1248 33.7536 22.2656 34.5216 22.4448 35.2768C22.4512 35.3024 22.4512 35.3344 22.4576 35.36C22.464 35.4112 22.4832 35.4624 22.4 35.456Z" />
			<path d="M30.1121 22.4895C35.7889 16.1151 43.3537 11.7247 51.7057 9.9519C51.7441 10.0095 51.7569 10.0799 51.7441 10.1503C51.7313 11.1103 51.6673 12.0639 51.5777 13.0239C51.4881 13.9775 51.3665 14.9119 51.2065 15.8527C51.0529 16.7615 50.8673 17.6639 50.6433 18.5599C50.4193 19.4751 50.1633 20.3775 49.8753 21.2607C49.8113 21.4591 49.8561 21.4911 49.5553 21.4399C48.7361 21.2927 47.9105 21.1711 47.0785 21.0687C46.1441 20.9535 45.1969 20.8767 44.2625 20.8255C43.3281 20.7743 42.3617 20.7551 41.4081 20.7743C40.4353 20.7999 39.4625 20.8447 38.4961 20.9279C37.6641 20.9983 36.8385 21.0943 36.0129 21.2159C34.8481 21.3887 33.6961 21.6063 32.5505 21.8751C31.8081 22.0479 31.0785 22.2591 30.3425 22.4703C30.2657 22.5023 30.1889 22.5087 30.1121 22.4895Z" />
			<path d="M22.3808 27.3855C25.1264 29.0943 27.4048 31.4623 29.0112 34.2719C30.528 36.9087 31.3792 39.8719 31.5072 42.9055C27.744 40.5695 24.8896 37.0303 23.4048 32.8575C22.7904 31.1039 22.2656 28.2623 22.3808 27.3855Z" />
		</g>
	</g>
	<g class="text">
		<path d="M81.72 40.3601C76.536 40.3601 73.056 36.8321 73.056 31.6001C73.056 26.3681 76.536 22.8401 81.72 22.8401C86.88 22.8401 90.36 26.3681 90.36 31.6001C90.36 36.8321 86.88 40.3601 81.72 40.3601ZM81.72 37.7681C85.176 37.7681 87.528 35.2721 87.528 31.6001C87.528 27.9281 85.176 25.4321 81.72 25.4321C78.24 25.4321 75.888 27.9281 75.888 31.6001C75.888 35.2721 78.24 37.7681 81.72 37.7681ZM100.142 37.4321L100.886 39.5921C99.9743 40.0001 99.2063 40.1681 98.2223 40.1681C95.7743 40.1681 94.3343 38.7521 94.3343 35.9201V30.4241H92.1023V28.1441H94.3343V25.0481L96.9983 24.7601V28.1441H100.406V30.4241H96.9983V35.9201C96.9983 37.1201 97.5503 37.7921 98.6543 37.7921C99.1343 37.7921 99.6863 37.6481 100.142 37.4321ZM108.45 40.2641C104.586 40.2641 102.114 37.6241 102.114 34.0721C102.114 30.5201 104.586 27.8801 108.45 27.8801C112.29 27.8801 114.762 30.5201 114.762 34.0721C114.762 37.6241 112.29 40.2641 108.45 40.2641ZM108.45 37.8161C110.658 37.8161 112.074 36.1361 112.074 34.0721C112.074 32.0081 110.658 30.3281 108.45 30.3281C106.218 30.3281 104.802 32.0081 104.802 34.0721C104.802 36.1361 106.218 37.8161 108.45 37.8161ZM131.241 27.9041C134.289 27.9041 136.185 29.8481 136.185 33.0641V40.0001H133.497V33.2801C133.497 31.3841 132.633 30.3281 131.025 30.3281C129.249 30.3281 128.073 31.5761 128.073 33.4241V40.0001H125.385V33.2801C125.385 31.3841 124.497 30.3281 122.889 30.3281C121.137 30.3281 119.937 31.5761 119.937 33.4241V40.0001H117.249V28.1441H119.649L119.673 29.5361C120.537 28.4321 121.689 27.9041 123.177 27.9041C124.857 27.9041 126.273 28.6961 127.017 29.9921C127.953 28.6001 129.393 27.9041 131.241 27.9041ZM148.736 28.1441H151.136V40.0001H148.736L148.712 38.4161C147.8 39.5681 146.216 40.2641 144.392 40.2641C140.912 40.2641 138.512 37.7201 138.512 34.0721C138.512 30.4241 140.912 27.8801 144.392 27.8801C146.24 27.8801 147.8 28.5761 148.712 29.7281L148.736 28.1441ZM144.824 37.8161C146.96 37.8161 148.448 36.2801 148.448 34.0721C148.448 31.8641 146.96 30.3281 144.824 30.3281C142.688 30.3281 141.2 31.8641 141.2 34.0721C141.2 36.2801 142.688 37.8161 144.824 37.8161ZM163.566 23.2001H166.254V40.0001H163.854L163.83 38.4161C162.918 39.5681 161.334 40.2641 159.462 40.2641C156.102 40.2641 153.63 37.8161 153.63 34.0721C153.63 30.3281 156.102 27.8801 159.462 27.8801C161.166 27.8801 162.63 28.4561 163.566 29.4161V23.2001ZM159.942 37.8161C162.078 37.8161 163.566 36.2801 163.566 34.0721C163.566 31.8641 162.078 30.3281 159.942 30.3281C157.806 30.3281 156.318 31.8641 156.318 34.0721C156.318 36.2801 157.806 37.8161 159.942 37.8161Z" fill="#EA7A99" />
		<path d="M190.755 23.1999H193.755L188.091 39.9999H184.995L183.147 34.2639L180.987 27.6879L178.827 34.2639L176.955 39.9999H173.931L168.195 23.1999H171.195L173.763 31.3119L175.443 36.5439L179.691 23.1999H182.235L186.531 36.4719L188.211 31.3119L190.755 23.1999ZM196.757 26.3679C195.773 26.3679 195.053 25.6719 195.053 24.7359C195.053 23.7519 195.773 23.0559 196.757 23.0559C197.789 23.0559 198.509 23.7519 198.509 24.7359C198.509 25.6719 197.789 26.3679 196.757 26.3679ZM195.413 39.9999V28.1439H198.101V39.9999H195.413ZM212.334 39.9999H208.83L204.078 34.7679V39.9999H201.39V23.1999H204.078V33.1359L208.326 28.1439H211.614L206.646 33.8319L212.334 39.9999ZM215.203 26.3679C214.219 26.3679 213.499 25.6719 213.499 24.7359C213.499 23.7519 214.219 23.0559 215.203 23.0559C216.235 23.0559 216.955 23.7519 216.955 24.7359C216.955 25.6719 216.235 26.3679 215.203 26.3679ZM213.859 39.9999V28.1439H216.547V39.9999H213.859Z" fill="#5FBAE7" />
	</g>
</svg>
