<svg width="1920" height="1080" viewBox="0 0 1920 1080" fill="none" xmlns="http://www.w3.org/2000/svg">
	<g clip-path="url(#clip0_602_1701)">
		<rect width="1920" height="1080" fill="white" />
		<path d="M0 0H793L0 493V0Z" fill="#F06E8E" />
		<path d="M1920 1080L1127 1080L1920 587L1920 1080Z" fill="#F06E8E" />
		<mask id="mask0_602_1701" style="mask-type:alpha" maskUnits="userSpaceOnUse" x="345" y="696" width="236" height="236">
			<circle cx="463" cy="814" r="118" fill="#F06E8E" />
		</mask>
		<g mask="url(#mask0_602_1701)">
			<line x1="345.252" y1="667.636" x2="625.122" y2="742.627" stroke="#F06E8E" stroke-width="4" />
			<line x1="340.475" y1="685.462" x2="620.345" y2="760.453" stroke="#F06E8E" stroke-width="4" />
			<line x1="335.698" y1="703.288" x2="615.568" y2="778.279" stroke="#F06E8E" stroke-width="4" />
			<line x1="330.922" y1="721.114" x2="610.792" y2="796.105" stroke="#F06E8E" stroke-width="4" />
			<line x1="326.145" y1="738.94" x2="606.015" y2="813.931" stroke="#F06E8E" stroke-width="4" />
			<line x1="321.369" y1="756.767" x2="601.239" y2="831.758" stroke="#F06E8E" stroke-width="4" />
			<line x1="316.593" y1="774.593" x2="596.462" y2="849.584" stroke="#F06E8E" stroke-width="4" />
			<line x1="311.816" y1="792.419" x2="591.686" y2="867.41" stroke="#F06E8E" stroke-width="4" />
			<line x1="307.039" y1="810.245" x2="586.909" y2="885.236" stroke="#F06E8E" stroke-width="4" />
			<line x1="302.263" y1="828.071" x2="582.133" y2="903.062" stroke="#F06E8E" stroke-width="4" />
			<line x1="297.486" y1="845.897" x2="577.356" y2="920.888" stroke="#F06E8E" stroke-width="4" />
			<line x1="292.71" y1="863.723" x2="572.58" y2="938.714" stroke="#F06E8E" stroke-width="4" />
			<line x1="287.934" y1="881.549" x2="567.804" y2="956.54" stroke="#F06E8E" stroke-width="4" />
		</g>
		<circle cx="1541.5" cy="246.5" r="87" stroke="#F06E8E" stroke-width="3" />
		<line x1="1172" y1="694.522" x2="1192.48" y2="694.522" stroke="#F06E8E" stroke-width="2" />
		<line x1="1181.96" y1="684" x2="1181.96" y2="704.484" stroke="#F06E8E" stroke-width="2" />
		<line x1="1172" y1="755.974" x2="1192.48" y2="755.974" stroke="#F06E8E" stroke-width="2" />
		<line x1="1181.96" y1="745.452" x2="1181.96" y2="765.935" stroke="#F06E8E" stroke-width="2" />
		<line x1="1172" y1="817.425" x2="1192.48" y2="817.425" stroke="#F06E8E" stroke-width="2" />
		<line x1="1181.96" y1="806.903" x2="1181.96" y2="827.387" stroke="#F06E8E" stroke-width="2" />
		<line x1="1172" y1="878.877" x2="1192.48" y2="878.877" stroke="#F06E8E" stroke-width="2" />
		<line x1="1181.96" y1="868.355" x2="1181.96" y2="888.839" stroke="#F06E8E" stroke-width="2" />
		<line x1="1172" y1="940.328" x2="1192.48" y2="940.328" stroke="#F06E8E" stroke-width="2" />
		<line x1="1181.96" y1="929.806" x2="1181.96" y2="950.29" stroke="#F06E8E" stroke-width="2" />
		<line x1="1172" y1="1001.78" x2="1192.48" y2="1001.78" stroke="#F06E8E" stroke-width="2" />
		<line x1="1181.96" y1="991.258" x2="1181.96" y2="1011.74" stroke="#F06E8E" stroke-width="2" />
		<line x1="1233.45" y1="694.522" x2="1253.94" y2="694.522" stroke="#F06E8E" stroke-width="2" />
		<line x1="1243.41" y1="684" x2="1243.41" y2="704.484" stroke="#F06E8E" stroke-width="2" />
		<line x1="1233.45" y1="755.974" x2="1253.94" y2="755.974" stroke="#F06E8E" stroke-width="2" />
		<line x1="1243.41" y1="745.452" x2="1243.41" y2="765.935" stroke="#F06E8E" stroke-width="2" />
		<line x1="1233.45" y1="817.425" x2="1253.94" y2="817.425" stroke="#F06E8E" stroke-width="2" />
		<line x1="1243.41" y1="806.903" x2="1243.41" y2="827.387" stroke="#F06E8E" stroke-width="2" />
		<line x1="1233.45" y1="878.877" x2="1253.94" y2="878.877" stroke="#F06E8E" stroke-width="2" />
		<line x1="1243.41" y1="868.355" x2="1243.41" y2="888.839" stroke="#F06E8E" stroke-width="2" />
		<line x1="1233.45" y1="940.328" x2="1253.94" y2="940.328" stroke="#F06E8E" stroke-width="2" />
		<line x1="1243.41" y1="929.806" x2="1243.41" y2="950.29" stroke="#F06E8E" stroke-width="2" />
		<line x1="1233.45" y1="1001.78" x2="1253.94" y2="1001.78" stroke="#F06E8E" stroke-width="2" />
		<line x1="1243.41" y1="991.258" x2="1243.41" y2="1011.74" stroke="#F06E8E" stroke-width="2" />
		<line x1="1294.9" y1="694.522" x2="1315.39" y2="694.522" stroke="#F06E8E" stroke-width="2" />
		<line x1="1304.86" y1="684" x2="1304.86" y2="704.484" stroke="#F06E8E" stroke-width="2" />
		<line x1="1294.9" y1="755.974" x2="1315.39" y2="755.974" stroke="#F06E8E" stroke-width="2" />
		<line x1="1304.86" y1="745.452" x2="1304.86" y2="765.935" stroke="#F06E8E" stroke-width="2" />
		<line x1="1294.9" y1="817.425" x2="1315.39" y2="817.425" stroke="#F06E8E" stroke-width="2" />
		<line x1="1304.86" y1="806.903" x2="1304.86" y2="827.387" stroke="#F06E8E" stroke-width="2" />
		<line x1="1294.9" y1="878.877" x2="1315.39" y2="878.877" stroke="#F06E8E" stroke-width="2" />
		<line x1="1304.86" y1="868.355" x2="1304.86" y2="888.839" stroke="#F06E8E" stroke-width="2" />
		<line x1="1294.9" y1="940.328" x2="1315.39" y2="940.328" stroke="#F06E8E" stroke-width="2" />
		<line x1="1304.86" y1="929.806" x2="1304.86" y2="950.29" stroke="#F06E8E" stroke-width="2" />
		<line x1="1294.9" y1="1001.78" x2="1315.39" y2="1001.78" stroke="#F06E8E" stroke-width="2" />
		<line x1="1304.86" y1="991.258" x2="1304.86" y2="1011.74" stroke="#F06E8E" stroke-width="2" />
		<line x1="1356.35" y1="694.522" x2="1376.84" y2="694.522" stroke="#F06E8E" stroke-width="2" />
		<line x1="1366.32" y1="684" x2="1366.32" y2="704.484" stroke="#F06E8E" stroke-width="2" />
		<line x1="1356.35" y1="755.974" x2="1376.84" y2="755.974" stroke="#F06E8E" stroke-width="2" />
		<line x1="1366.32" y1="745.452" x2="1366.32" y2="765.935" stroke="#F06E8E" stroke-width="2" />
		<line x1="1356.35" y1="817.425" x2="1376.84" y2="817.425" stroke="#F06E8E" stroke-width="2" />
		<line x1="1366.32" y1="806.903" x2="1366.32" y2="827.387" stroke="#F06E8E" stroke-width="2" />
		<line x1="1356.35" y1="878.877" x2="1376.84" y2="878.877" stroke="#F06E8E" stroke-width="2" />
		<line x1="1366.32" y1="868.355" x2="1366.32" y2="888.839" stroke="#F06E8E" stroke-width="2" />
		<line x1="1356.35" y1="940.328" x2="1376.84" y2="940.328" stroke="#F06E8E" stroke-width="2" />
		<line x1="1366.32" y1="929.806" x2="1366.32" y2="950.29" stroke="#F06E8E" stroke-width="2" />
		<line x1="1356.35" y1="1001.78" x2="1376.84" y2="1001.78" stroke="#F06E8E" stroke-width="2" />
		<line x1="1366.32" y1="991.258" x2="1366.32" y2="1011.74" stroke="#F06E8E" stroke-width="2" />
		<line x1="1417.81" y1="694.522" x2="1438.29" y2="694.522" stroke="#F06E8E" stroke-width="2" />
		<line x1="1427.77" y1="684" x2="1427.77" y2="704.484" stroke="#F06E8E" stroke-width="2" />
		<line x1="1417.81" y1="755.974" x2="1438.29" y2="755.974" stroke="#F06E8E" stroke-width="2" />
		<line x1="1427.77" y1="745.452" x2="1427.77" y2="765.935" stroke="#F06E8E" stroke-width="2" />
		<line x1="1417.81" y1="817.425" x2="1438.29" y2="817.425" stroke="#F06E8E" stroke-width="2" />
		<line x1="1427.77" y1="806.903" x2="1427.77" y2="827.387" stroke="#F06E8E" stroke-width="2" />
		<line x1="1417.81" y1="878.877" x2="1438.29" y2="878.877" stroke="#F06E8E" stroke-width="2" />
		<line x1="1427.77" y1="868.355" x2="1427.77" y2="888.839" stroke="#F06E8E" stroke-width="2" />
		<line x1="1417.81" y1="940.328" x2="1438.29" y2="940.328" stroke="#F06E8E" stroke-width="2" />
		<line x1="1427.77" y1="929.806" x2="1427.77" y2="950.29" stroke="#F06E8E" stroke-width="2" />
		<line x1="1417.81" y1="1001.78" x2="1438.29" y2="1001.78" stroke="#F06E8E" stroke-width="2" />
		<line x1="1427.77" y1="991.258" x2="1427.77" y2="1011.74" stroke="#F06E8E" stroke-width="2" />
		<line x1="1479.26" y1="694.522" x2="1499.74" y2="694.522" stroke="#F06E8E" stroke-width="2" />
		<line x1="1489.22" y1="684" x2="1489.22" y2="704.484" stroke="#F06E8E" stroke-width="2" />
		<line x1="1479.26" y1="755.974" x2="1499.74" y2="755.974" stroke="#F06E8E" stroke-width="2" />
		<line x1="1489.22" y1="745.452" x2="1489.22" y2="765.935" stroke="#F06E8E" stroke-width="2" />
		<line x1="1479.26" y1="817.425" x2="1499.74" y2="817.425" stroke="#F06E8E" stroke-width="2" />
		<line x1="1489.22" y1="806.903" x2="1489.22" y2="827.387" stroke="#F06E8E" stroke-width="2" />
		<line x1="1479.26" y1="878.877" x2="1499.74" y2="878.877" stroke="#F06E8E" stroke-width="2" />
		<line x1="1489.22" y1="868.355" x2="1489.22" y2="888.839" stroke="#F06E8E" stroke-width="2" />
		<line x1="1479.26" y1="940.328" x2="1499.74" y2="940.328" stroke="#F06E8E" stroke-width="2" />
		<line x1="1489.22" y1="929.806" x2="1489.22" y2="950.29" stroke="#F06E8E" stroke-width="2" />
		<line x1="1479.26" y1="1001.78" x2="1499.74" y2="1001.78" stroke="#F06E8E" stroke-width="2" />
		<line x1="1489.22" y1="991.258" x2="1489.22" y2="1011.74" stroke="#F06E8E" stroke-width="2" />
		<line x1="1540.71" y1="694.522" x2="1561.19" y2="694.522" stroke="#F06E8E" stroke-width="2" />
		<line x1="1550.67" y1="684" x2="1550.67" y2="704.484" stroke="#F06E8E" stroke-width="2" />
		<line x1="1540.71" y1="755.974" x2="1561.19" y2="755.974" stroke="#F06E8E" stroke-width="2" />
		<line x1="1550.67" y1="745.452" x2="1550.67" y2="765.935" stroke="#F06E8E" stroke-width="2" />
		<line x1="1540.71" y1="817.425" x2="1561.19" y2="817.425" stroke="#F06E8E" stroke-width="2" />
		<line x1="1550.67" y1="806.903" x2="1550.67" y2="827.387" stroke="#F06E8E" stroke-width="2" />
		<line x1="1540.71" y1="878.877" x2="1561.19" y2="878.877" stroke="#F06E8E" stroke-width="2" />
		<line x1="1550.67" y1="868.355" x2="1550.67" y2="888.839" stroke="#F06E8E" stroke-width="2" />
		<line x1="1540.71" y1="940.328" x2="1561.19" y2="940.328" stroke="#F06E8E" stroke-width="2" />
		<line x1="1550.67" y1="929.806" x2="1550.67" y2="950.29" stroke="#F06E8E" stroke-width="2" />
		<line x1="1540.71" y1="1001.78" x2="1561.19" y2="1001.78" stroke="#F06E8E" stroke-width="2" />
		<line x1="1550.67" y1="991.258" x2="1550.67" y2="1011.74" stroke="#F06E8E" stroke-width="2" />
		<line x1="1602.16" y1="694.522" x2="1622.64" y2="694.522" stroke="#F06E8E" stroke-width="2" />
		<line x1="1612.12" y1="684" x2="1612.12" y2="704.484" stroke="#F06E8E" stroke-width="2" />
		<line x1="1602.16" y1="755.974" x2="1622.64" y2="755.974" stroke="#F06E8E" stroke-width="2" />
		<line x1="1612.12" y1="745.452" x2="1612.12" y2="765.935" stroke="#F06E8E" stroke-width="2" />
		<line x1="1602.16" y1="817.425" x2="1622.64" y2="817.425" stroke="#F06E8E" stroke-width="2" />
		<line x1="1612.12" y1="806.903" x2="1612.12" y2="827.387" stroke="#F06E8E" stroke-width="2" />
		<line x1="1602.16" y1="878.877" x2="1622.64" y2="878.877" stroke="#F06E8E" stroke-width="2" />
		<line x1="1612.12" y1="868.355" x2="1612.12" y2="888.839" stroke="#F06E8E" stroke-width="2" />
		<line x1="1602.16" y1="940.328" x2="1622.64" y2="940.328" stroke="#F06E8E" stroke-width="2" />
		<line x1="1612.12" y1="929.806" x2="1612.12" y2="950.29" stroke="#F06E8E" stroke-width="2" />
		<line x1="1602.16" y1="1001.78" x2="1622.64" y2="1001.78" stroke="#F06E8E" stroke-width="2" />
		<line x1="1612.12" y1="991.258" x2="1612.12" y2="1011.74" stroke="#F06E8E" stroke-width="2" />
		<line x1="1663.61" y1="694.522" x2="1684.1" y2="694.522" stroke="#F06E8E" stroke-width="2" />
		<line x1="1673.57" y1="684" x2="1673.57" y2="704.484" stroke="#F06E8E" stroke-width="2" />
		<line x1="1663.61" y1="755.974" x2="1684.1" y2="755.974" stroke="#F06E8E" stroke-width="2" />
		<line x1="1673.57" y1="745.452" x2="1673.57" y2="765.935" stroke="#F06E8E" stroke-width="2" />
		<line x1="1663.61" y1="817.425" x2="1684.1" y2="817.425" stroke="#F06E8E" stroke-width="2" />
		<line x1="1673.57" y1="806.903" x2="1673.57" y2="827.387" stroke="#F06E8E" stroke-width="2" />
		<line x1="1663.61" y1="878.877" x2="1684.1" y2="878.877" stroke="#F06E8E" stroke-width="2" />
		<line x1="1673.57" y1="868.355" x2="1673.57" y2="888.839" stroke="#F06E8E" stroke-width="2" />
		<line x1="1663.61" y1="940.328" x2="1684.1" y2="940.328" stroke="#F06E8E" stroke-width="2" />
		<line x1="1673.57" y1="929.806" x2="1673.57" y2="950.29" stroke="#F06E8E" stroke-width="2" />
		<line x1="1663.61" y1="1001.78" x2="1684.1" y2="1001.78" stroke="#F06E8E" stroke-width="2" />
		<line x1="1673.57" y1="991.258" x2="1673.57" y2="1011.74" stroke="#F06E8E" stroke-width="2" />
		<line x1="1725.06" y1="694.522" x2="1745.55" y2="694.522" stroke="#F06E8E" stroke-width="2" />
		<line x1="1735.03" y1="684" x2="1735.03" y2="704.484" stroke="#F06E8E" stroke-width="2" />
		<line x1="1725.06" y1="755.974" x2="1745.55" y2="755.974" stroke="#F06E8E" stroke-width="2" />
		<line x1="1735.03" y1="745.452" x2="1735.03" y2="765.935" stroke="#F06E8E" stroke-width="2" />
		<line x1="1725.06" y1="817.425" x2="1745.55" y2="817.425" stroke="#F06E8E" stroke-width="2" />
		<line x1="1735.03" y1="806.903" x2="1735.03" y2="827.387" stroke="#F06E8E" stroke-width="2" />
		<line x1="1725.06" y1="878.877" x2="1745.55" y2="878.877" stroke="#F06E8E" stroke-width="2" />
		<line x1="1735.03" y1="868.355" x2="1735.03" y2="888.839" stroke="#F06E8E" stroke-width="2" />
		<line x1="1725.06" y1="940.328" x2="1745.55" y2="940.328" stroke="#F06E8E" stroke-width="2" />
		<line x1="1735.03" y1="929.806" x2="1735.03" y2="950.29" stroke="#F06E8E" stroke-width="2" />
		<line x1="1725.06" y1="1001.78" x2="1745.55" y2="1001.78" stroke="#F06E8E" stroke-width="2" />
		<line x1="1735.03" y1="991.258" x2="1735.03" y2="1011.74" stroke="#F06E8E" stroke-width="2" />
		<line x1="1786.52" y1="694.522" x2="1807" y2="694.522" stroke="#F06E8E" stroke-width="2" />
		<line x1="1796.48" y1="684" x2="1796.48" y2="704.484" stroke="#F06E8E" stroke-width="2" />
		<line x1="1786.52" y1="755.974" x2="1807" y2="755.974" stroke="#F06E8E" stroke-width="2" />
		<line x1="1796.48" y1="745.452" x2="1796.48" y2="765.935" stroke="#F06E8E" stroke-width="2" />
		<line x1="1786.52" y1="817.425" x2="1807" y2="817.425" stroke="#F06E8E" stroke-width="2" />
		<line x1="1796.48" y1="806.903" x2="1796.48" y2="827.387" stroke="#F06E8E" stroke-width="2" />
		<line x1="1786.52" y1="878.877" x2="1807" y2="878.877" stroke="#F06E8E" stroke-width="2" />
		<line x1="1796.48" y1="868.355" x2="1796.48" y2="888.839" stroke="#F06E8E" stroke-width="2" />
		<line x1="1786.52" y1="940.328" x2="1807" y2="940.328" stroke="#F06E8E" stroke-width="2" />
		<line x1="1796.48" y1="929.806" x2="1796.48" y2="950.29" stroke="#F06E8E" stroke-width="2" />
		<line x1="1786.52" y1="1001.78" x2="1807" y2="1001.78" stroke="#F06E8E" stroke-width="2" />
		<line x1="1796.48" y1="991.258" x2="1796.48" y2="1011.74" stroke="#F06E8E" stroke-width="2" />
		<circle cx="1023" cy="919" r="11" fill="#F06E8E" />
		<path d="M1308 298.5L1266.75 322.316L1266.75 274.684L1308 298.5Z" fill="#F06E8E" />
		<path d="M96.4996 676.244L200 736L96.4996 795.756L96.4996 676.244Z" stroke="#F06E8E" stroke-width="2" />
		<path d="M721 755.5L679.75 779.316L679.75 731.684L721 755.5Z" fill="#F06E8E" />
		<path opacity="0.3" d="M516 370L1365 -163" stroke="#F06E8E" stroke-width="30" stroke-linecap="round" />
		<path opacity="0.3" d="M1079 271L1317 122" stroke="#F06E8E" stroke-width="16" stroke-linecap="round" />
		<path opacity="0.3" d="M206 1214L705 901" stroke="#F06E8E" stroke-width="69" stroke-linecap="round" />
		<path opacity="0.3" d="M131 916L370 766" stroke="#F06E8E" stroke-width="7" stroke-linecap="round" />
		<path opacity="0.3" d="M755 1191L1392 791" stroke="#F06E8E" stroke-width="30" stroke-linecap="round" />
		<path opacity="0.3" d="M1589 261L2088 -52" stroke="#F06E8E" stroke-width="30" stroke-linecap="round" />
		<path opacity="0.3" d="M1675 455L1901 313" stroke="#F06E8E" stroke-width="4" stroke-linecap="round" />
		<path d="M226.242 552.178L209.097 570.227L209.097 598.588H189L189 487.7H209.085V544.581L262.519 487.7H285.077L239.676 537.286L287.869 598.588H264.39L226.242 552.178Z" fill="#F06E8E" />
		<path d="M298.213 513.991H317.526V598.588H298.213V513.991Z" fill="#F06E8E" />
		<path d="M415.437 598.588L393.352 566.114C392.423 566.218 391.041 566.268 389.181 566.268H364.783V598.588H344.696V487.7H389.179C397.577 487.504 405.921 489.121 413.67 492.445C420.202 495.256 425.769 500 429.66 506.072C433.47 512.39 435.401 519.712 435.216 527.138C435.412 534.772 433.339 542.285 429.271 548.681C425.086 554.883 419.119 559.592 412.2 562.151L437.076 598.584L415.437 598.588ZM408.185 510.828C403.647 507.025 397.006 505.123 388.262 505.123H364.783V549.326H388.262C397.01 549.326 403.651 547.401 408.185 543.551C410.468 541.535 412.268 539.008 413.445 536.164C414.623 533.32 415.145 530.236 414.973 527.151C415.151 524.077 414.63 521.002 413.452 518.17C412.274 515.337 410.471 512.824 408.185 510.828Z" fill="#F06E8E" />
		<path d="M527.735 572.921H473.672L463.014 598.588H442.324L490.968 487.699H510.739L559.547 598.588H538.553L527.735 572.921ZM521.084 556.768L500.703 508.295L480.479 556.768H521.084Z" fill="#F06E8E" />
		<path d="M307.812 480L311.826 488.343L320.805 489.68L314.307 496.176L315.842 505.345L307.812 501.015L299.783 505.345L301.317 496.176L294.82 489.68L303.799 488.343L307.812 480Z" fill="#F06E8E" />
		<path d="M612.375 552.178L595.231 570.226V598.588H575.145V487.699H595.225V544.58L648.66 487.699H671.21L625.813 537.285L674.005 598.586H650.526L612.375 552.178Z" fill="#F06E8E" />
		<path d="M684.349 513.991H703.656V598.588H684.349V513.991Z" fill="#F06E8E" />
		<path d="M801.574 598.588L779.49 566.114C778.559 566.218 777.176 566.268 775.316 566.268H750.918V598.588H730.838V487.699H775.322C783.716 487.505 792.056 489.122 799.801 492.445C806.333 495.256 811.901 500 815.791 506.072C819.6 512.391 821.53 519.712 821.345 527.138C821.542 534.771 819.468 542.285 815.4 548.68C811.217 554.883 805.25 559.592 798.332 562.151L823.207 598.584L801.574 598.588ZM794.322 510.828C789.784 507.024 783.143 505.123 774.399 505.123H750.92V549.326H774.399C783.147 549.326 789.788 547.401 794.322 543.551C796.604 541.534 798.403 539.006 799.58 536.162C800.757 533.319 801.28 530.235 801.109 527.151C801.286 524.077 800.766 521.003 799.588 518.17C798.41 515.338 796.608 512.824 794.322 510.828Z" fill="#F06E8E" />
		<path d="M913.869 572.921H859.807L849.148 598.588H828.458L877.102 487.699H896.875L945.683 598.588H924.68L913.869 572.921ZM907.22 556.768L886.832 508.295L866.608 556.768H907.22Z" fill="#F06E8E" />
		<path d="M704.624 495.116L694.05 484.271L683.476 495.116L694.05 505.961L704.624 495.116Z" fill="#F06E8E" />
		<path d="M1071.43 599.34L1033.63 576.76L995.836 599.34L1005.1 555.487L972.478 525.594L1016 521.073L1033.63 480.023L1051.27 521.077L1094.79 525.598L1062.17 555.487L1071.43 599.34ZM1033.63 567.15L1059.63 582.678L1053.27 552.521L1075.7 531.969L1045.77 528.855L1033.64 500.622L1021.5 528.855L991.571 531.969L1014.01 552.521L1007.64 582.678L1033.63 567.15Z" fill="#F06E8E" />
		<path d="M1133.95 487.633H1178.35C1188.96 487.41 1199.45 489.852 1208.92 494.747C1217.47 499.22 1224.6 506.095 1229.49 514.569C1234.46 523.375 1236.99 533.406 1236.81 543.58C1236.99 553.754 1234.46 563.786 1229.49 572.593C1224.6 581.067 1217.47 587.941 1208.92 592.414C1199.45 597.31 1188.96 599.752 1178.35 599.526H1133.95V487.633ZM1177.75 589.298C1186.45 589.502 1195.08 587.498 1202.85 583.463C1209.78 579.803 1215.56 574.206 1219.52 567.318C1223.56 560.102 1225.6 551.897 1225.44 543.58C1225.6 535.264 1223.55 527.06 1219.51 519.848C1215.54 512.961 1209.76 507.364 1202.83 503.703C1195.06 499.669 1186.44 497.665 1177.73 497.868H1145.48V589.298H1177.75Z" fill="#F06E8E" />
		<path d="M1280.99 593.054C1272.44 588.325 1265.32 581.275 1260.42 572.674C1255.43 563.841 1252.87 553.786 1253.02 543.58C1252.87 533.374 1255.43 523.32 1260.42 514.487C1265.32 505.885 1272.44 498.834 1280.99 494.106C1290.02 489.238 1300.08 486.688 1310.28 486.674C1320.49 486.66 1330.54 489.182 1339.59 494.025C1348.11 498.772 1355.2 505.821 1360.09 514.407C1365.12 523.252 1367.71 533.337 1367.57 543.578C1367.71 553.819 1365.12 563.904 1360.09 572.751C1355.2 581.337 1348.11 588.385 1339.59 593.128C1330.54 597.973 1320.49 600.496 1310.28 600.482C1300.08 600.469 1290.02 597.918 1280.99 593.049V593.054ZM1333.74 583.942C1340.59 580.06 1346.26 574.306 1350.11 567.318C1354.1 560.082 1356.14 551.891 1356.03 543.58C1356.14 535.271 1354.1 527.082 1350.11 519.848C1346.26 512.86 1340.59 507.106 1333.74 503.223C1326.54 499.288 1318.5 497.23 1310.33 497.23C1302.16 497.23 1294.12 499.288 1286.91 503.223C1280.02 507.098 1274.3 512.851 1270.39 519.848C1266.36 527.066 1264.29 535.263 1264.39 543.584C1264.29 551.905 1266.36 560.103 1270.39 567.322C1274.3 574.319 1280.02 580.073 1286.91 583.946C1294.12 587.881 1302.16 589.94 1310.33 589.94C1318.5 589.94 1326.54 587.881 1333.74 583.946V583.942Z" fill="#F06E8E" />
		<path d="M1404.34 588.017C1396.45 579.705 1392.5 567.61 1392.5 551.732V487.633H1404.03V551.252C1404.03 564.261 1406.89 573.959 1412.61 580.344C1418.32 586.73 1426.58 589.927 1437.39 589.935C1448.3 589.935 1456.61 586.738 1462.32 580.344C1468.04 573.95 1470.9 564.253 1470.9 551.252V487.633H1482.12V551.732C1482.12 567.613 1478.19 579.708 1470.35 588.017C1462.51 596.326 1451.52 600.482 1437.39 600.485C1423.25 600.485 1412.23 596.329 1404.34 588.017Z" fill="#F06E8E" />
		<path d="M1593.7 543.58H1604.77V586.261C1599.48 590.961 1593.33 594.545 1586.69 596.811C1579.61 599.28 1572.19 600.521 1564.71 600.485C1554.45 600.646 1544.31 598.114 1535.26 593.128C1526.71 588.402 1519.59 581.351 1514.69 572.749C1509.65 563.902 1507.06 553.817 1507.2 543.576C1507.07 533.335 1509.65 523.25 1514.69 514.404C1519.59 505.803 1526.71 498.752 1535.26 494.023C1544.36 489.029 1554.55 486.498 1564.87 486.672C1572.69 486.582 1580.45 487.964 1587.78 490.747C1594.49 493.294 1600.53 497.429 1605.39 502.814L1598.22 510.329C1589.6 501.591 1578.64 497.222 1565.34 497.222C1556.99 497.098 1548.76 499.161 1541.41 503.215C1534.44 507.07 1528.65 512.826 1524.67 519.848C1520.59 527.051 1518.49 535.254 1518.6 543.584C1518.48 551.892 1520.58 560.075 1524.67 567.25C1528.67 574.229 1534.43 579.972 1541.35 583.872C1548.65 587.984 1556.86 590.077 1565.19 589.946C1575.35 590.265 1585.35 587.233 1593.7 581.295V543.58Z" fill="#F06E8E" />
		<path d="M1705.76 569.635H1644.98L1631.88 599.528H1619.89L1669.76 487.635H1681.13L1731 599.528H1718.84L1705.76 569.635ZM1701.55 560.046L1675.37 499.941L1649.18 560.046H1701.55Z" fill="#F06E8E" />
	</g>
	<defs>
		<clipPath id="clip0_602_1701">
			<rect width="1920" height="1080" fill="white" />
		</clipPath>
	</defs>
</svg>
