<svg width="64" height="64" viewBox="0 0 64 64" fill="none" xmlns="http://www.w3.org/2000/svg">
	<g clip-path="url(#clip0_1199_12090)">
		<path d="M57.7627 47.6333C56.91 48.08 56.0305 48.4736 55.1293 48.8118C52.259 49.8852 49.2188 50.4326 46.1544 50.4277C34.3241 50.4277 24.0186 42.2897 24.0186 31.8471C24.034 30.4474 24.4227 29.0772 25.1445 27.8779C25.8664 26.6786 26.8952 25.6937 28.1249 25.0249C17.4261 25.4734 14.6758 36.6249 14.6758 43.1576C14.6758 61.6257 31.6981 63.5 35.3659 63.5C37.6579 63.4105 39.929 63.0276 42.1236 62.3604C42.2332 62.3239 42.3424 62.287 42.4513 62.2496C49.3391 59.8664 55.2102 55.2093 59.0984 49.0447C59.2157 48.8561 59.2672 48.634 59.2449 48.4131C59.2226 48.1922 59.1277 47.9849 58.975 47.8236C58.8224 47.6624 58.6207 47.5562 58.4013 47.5218C58.182 47.4873 57.9574 47.5265 57.7627 47.6333Z" fill="url(#paint0_linear_1199_12090)" />
		<path opacity="0.35" d="M57.7627 47.6333C56.91 48.08 56.0305 48.4736 55.1293 48.8118C52.259 49.8852 49.2188 50.4326 46.1544 50.4277C34.3241 50.4277 24.0186 42.2897 24.0186 31.8471C24.034 30.4474 24.4227 29.0772 25.1445 27.8779C25.8664 26.6786 26.8952 25.6937 28.1249 25.0249C17.4261 25.4734 14.6758 36.6249 14.6758 43.1576C14.6758 61.6257 31.6981 63.5 35.3659 63.5C37.6579 63.4105 39.929 63.0276 42.1236 62.3604C42.2332 62.3239 42.3424 62.287 42.4513 62.2496C49.3391 59.8664 55.2102 55.2093 59.0984 49.0447C59.2157 48.8561 59.2672 48.634 59.2449 48.4131C59.2226 48.1922 59.1277 47.9849 58.975 47.8236C58.8224 47.6624 58.6207 47.5562 58.4013 47.5218C58.182 47.4873 57.9574 47.5265 57.7627 47.6333Z" fill="url(#paint1_radial_1199_12090)" />
		<path d="M26.4277 60.3533C24.1971 58.967 22.265 57.1504 20.7439 55.0094C19.0122 52.6318 17.8211 49.9044 17.2538 47.0181C16.6866 44.1319 16.757 41.1566 17.46 38.3004C18.1631 35.4442 19.4819 32.7762 21.3241 30.483C23.1663 28.1899 25.4873 26.3271 28.1249 25.0249C29.32 24.3801 30.6534 24.0338 32.0113 24.0157C33.259 24.0241 34.4879 24.321 35.6018 24.8831C36.7158 25.4453 37.6846 26.2575 38.4325 27.2563C39.4424 28.6041 39.9989 30.2375 40.022 31.9216C40.0227 31.869 46.138 12.0205 20.0097 12.0205C9.0365 12.0205 -7.60453e-05 22.4379 -7.60453e-05 31.5743C-0.044772 36.4109 0.989896 41.1965 3.02856 45.5826C6.35889 52.6823 12.1794 58.3126 19.3858 61.4053C26.5922 64.498 34.6832 64.8378 42.1236 62.3604C39.5179 63.1813 36.7651 63.4269 34.0552 63.0804C31.3454 62.7338 28.743 61.8034 26.4277 60.3533Z" fill="url(#paint2_linear_1199_12090)" />
		<path opacity="0.41" d="M26.4277 60.3533C24.1971 58.967 22.265 57.1504 20.7439 55.0094C19.0122 52.6318 17.8211 49.9044 17.2538 47.0181C16.6866 44.1319 16.757 41.1566 17.46 38.3004C18.1631 35.4442 19.4819 32.7762 21.3241 30.483C23.1663 28.1899 25.4873 26.3271 28.1249 25.0249C29.32 24.3801 30.6534 24.0338 32.0113 24.0157C33.259 24.0241 34.4879 24.321 35.6018 24.8831C36.7158 25.4453 37.6846 26.2575 38.4325 27.2563C39.4424 28.6041 39.9989 30.2375 40.022 31.9216C40.0227 31.869 46.138 12.0205 20.0097 12.0205C9.0365 12.0205 -7.60453e-05 22.4379 -7.60453e-05 31.5743C-0.044772 36.4109 0.989896 41.1965 3.02856 45.5826C6.35889 52.6823 12.1794 58.3126 19.3858 61.4053C26.5922 64.498 34.6832 64.8378 42.1236 62.3604C39.5179 63.1813 36.7651 63.4269 34.0552 63.0804C31.3454 62.7338 28.743 61.8034 26.4277 60.3533Z" fill="url(#paint3_radial_1199_12090)" />
		<path d="M38.0786 37.2144C37.8759 37.4767 37.2526 37.8388 37.2526 38.6304C37.2888 39.0045 37.4151 39.3642 37.6207 39.6788C37.8263 39.9934 38.105 40.2535 38.4331 40.4369C42.0282 42.9459 48.8046 42.6078 48.8226 42.6077C51.4876 42.5989 54.1014 41.8748 56.391 40.5109C58.7014 39.1621 60.619 37.2327 61.9535 34.914C63.288 32.5953 63.993 29.968 63.9985 27.2927C64.0276 23.4484 63.0505 19.6634 61.1644 16.3136C55.8662 5.95899 44.4295 4.22757e-07 31.9945 4.22757e-07C23.5854 -0.0013657 15.514 3.30826 9.52657 9.21276C3.53917 15.1173 0.117336 23.1418 0.00146484 31.55C0.120305 22.4143 9.19991 15.0372 19.9929 15.0372C23.6384 15.0746 27.2283 15.9355 30.4943 17.5555C33.7363 19.1652 36.4224 21.7083 38.2069 24.8575C39.3946 27.1366 40.0187 29.6672 40.0267 32.2372C39.8976 34.0555 39.2181 35.7915 38.0786 37.2144Z" fill="url(#paint4_radial_1199_12090)" />
		<path d="M38.0786 37.2144C37.8759 37.4767 37.2526 37.8388 37.2526 38.6304C37.2888 39.0045 37.4151 39.3642 37.6207 39.6788C37.8263 39.9934 38.105 40.2535 38.4331 40.4369C42.0282 42.9459 48.8046 42.6078 48.8226 42.6077C51.4876 42.5989 54.1014 41.8748 56.391 40.5109C58.7014 39.1621 60.619 37.2327 61.9535 34.914C63.288 32.5953 63.993 29.968 63.9985 27.2927C64.0276 23.4484 63.0505 19.6634 61.1644 16.3136C55.8662 5.95899 44.4295 4.22757e-07 31.9945 4.22757e-07C23.5854 -0.0013657 15.514 3.30826 9.52657 9.21276C3.53917 15.1173 0.117336 23.1418 0.00146484 31.55C0.120305 22.4143 9.19991 15.0372 19.9929 15.0372C23.6384 15.0746 27.2283 15.9355 30.4943 17.5555C33.7363 19.1652 36.4224 21.7083 38.2069 24.8575C39.3946 27.1366 40.0187 29.6672 40.0267 32.2372C39.8976 34.0555 39.2181 35.7915 38.0786 37.2144Z" fill="url(#paint5_radial_1199_12090)" />
	</g>
	<defs>
		<linearGradient id="paint0_linear_1199_12090" x1="14.6758" y1="44.2624" x2="59.2596" y2="44.2624" gradientUnits="userSpaceOnUse">
			<stop stop-color="#0C59A4" />
			<stop offset="1" stop-color="#114A8B" />
		</linearGradient>
		<radialGradient id="paint1_radial_1199_12090" cx="0" cy="0" r="1" gradientUnits="userSpaceOnUse" gradientTransform="translate(39.301 44.5956) scale(23.846 22.6792)">
			<stop offset="0.71659" stop-opacity="0" />
			<stop offset="0.9459" stop-opacity="0.53" />
			<stop offset="1" />
		</radialGradient>
		<linearGradient id="paint2_linear_1199_12090" x1="38.1807" y1="24.9208" x2="10.3319" y2="55.2547" gradientUnits="userSpaceOnUse">
			<stop stop-color="#1B9DE2" />
			<stop offset="0.16164" stop-color="#1595DF" />
			<stop offset="0.66749" stop-color="#0680D7" />
			<stop offset="1" stop-color="#0078D4" />
		</linearGradient>
		<radialGradient id="paint3_radial_1199_12090" cx="0" cy="0" r="1" gradientUnits="userSpaceOnUse" gradientTransform="translate(17.8261 49.6658) rotate(-81.464) scale(35.8088 28.855)">
			<stop offset="0.76293" stop-opacity="0" />
			<stop offset="0.9459" stop-opacity="0.5" />
			<stop offset="1" />
		</radialGradient>
		<radialGradient id="paint4_radial_1199_12090" cx="0" cy="0" r="1" gradientUnits="userSpaceOnUse" gradientTransform="translate(6.30845 11.7014) rotate(92.129) scale(50.6079 107.786)">
			<stop stop-color="#35C1F1" />
			<stop offset="0.11079" stop-color="#34C1ED" />
			<stop offset="0.23164" stop-color="#2FC2DF" />
			<stop offset="0.31446" stop-color="#2BC3D2" />
			<stop offset="0.67338" stop-color="#36C752" />
		</radialGradient>
		<radialGradient id="paint5_radial_1199_12090" cx="0" cy="0" r="1" gradientUnits="userSpaceOnUse" gradientTransform="translate(60.6174 19.3937) rotate(73.6747) scale(24.3344 19.8678)">
			<stop stop-color="#66EB6E" />
			<stop offset="1" stop-color="#66EB6E" stop-opacity="0" />
		</radialGradient>
		<clipPath id="clip0_1199_12090">
			<rect width="64" height="64" fill="white" />
		</clipPath>
	</defs>
</svg>
