<svg width="64" height="67" viewBox="0 0 64 67" fill="none" xmlns="http://www.w3.org/2000/svg">
	<g clip-path="url(#clip0_1213_11489)">
		<path d="M61.6836 22.1783C60.2909 18.8292 57.4691 15.211 55.2545 14.0692C56.8327 17.1237 57.9273 20.4037 58.4982 23.7928L58.5055 23.8473C54.8836 14.8146 48.7418 11.1746 43.7236 3.2437C43.4691 2.8437 43.2145 2.44007 42.9673 2.01825C42.8255 1.77461 42.7127 1.55643 42.6145 1.35643C42.4073 0.952795 42.2473 0.52734 42.1382 0.0873402C42.1382 0.0437038 42.1055 0.0109766 42.0655 0.00370384C42.0473 6.74716e-05 42.0255 6.74716e-05 42.0036 0.00370384C42 0.00370384 41.9927 0.0109766 41.9891 0.0146129C41.9855 0.0146129 41.9745 0.025522 41.9673 0.025522L41.9782 0.00370384C33.9309 4.71643 31.2 13.4401 30.9491 17.8037C27.7345 18.0255 24.6618 19.2073 22.1309 21.2037C21.8655 20.9782 21.5927 20.771 21.3055 20.5783C20.5745 18.0219 20.5455 15.3201 21.2145 12.7455C18.2582 14.1783 15.6327 16.2073 13.5018 18.7055H13.4873C12.2182 17.0946 12.3055 11.7892 12.3782 10.6801C12.0036 10.8328 11.6436 11.0219 11.3091 11.2473C10.1891 12.0473 9.14182 12.9455 8.17818 13.931C7.08 15.0437 6.08 16.2437 5.18182 17.5237V17.5273V17.5201C3.12364 20.4401 1.66182 23.7382 0.883636 27.2292L0.84 27.4401C0.778182 27.7237 0.563636 29.1346 0.523636 29.4401C0.523636 29.4655 0.52 29.4873 0.516364 29.5092C0.24 30.9673 0.0654545 32.4437 0 33.9273V34.091C0.0145455 51.7855 14.3745 66.1201 32.0691 66.1019C47.6545 66.0873 60.9673 54.8655 63.6145 39.5055C63.6691 39.091 63.7127 38.6837 63.76 38.2655C64.4218 32.8183 63.7055 27.2837 61.6836 22.1783ZM24.7564 47.2546C24.9055 47.3273 25.0473 47.4037 25.2 47.4728L25.2218 47.4873C25.0655 47.4146 24.9091 47.3383 24.7564 47.2546ZM58.5091 23.8546V23.8255L58.5164 23.8582L58.5091 23.8546Z" fill="url(#paint0_linear_1213_11489)" />
		<path d="M61.6836 22.1779C60.2909 18.8288 57.4691 15.2107 55.2545 14.0688C56.8327 17.1234 57.9273 20.4034 58.4982 23.7925V23.8216L58.5055 23.8543C60.9745 30.9198 60.6182 38.6688 57.5091 45.4798C53.8364 53.3598 44.9491 61.4361 31.0364 61.0434C16.0036 60.6179 2.76364 49.4616 0.287273 34.8507C-0.163636 32.5452 0.287273 31.3779 0.512727 29.5052C0.207273 30.9598 0.0327273 32.4398 0 33.927V34.0907C0.0145455 51.7852 14.3745 66.1198 32.0691 66.1016C47.6545 66.087 60.9673 54.8652 63.6145 39.5052C63.6691 39.0907 63.7127 38.6834 63.76 38.2652C64.4218 32.8179 63.7055 27.2834 61.6836 22.1779Z" fill="url(#paint1_radial_1213_11489)" />
		<path d="M61.6836 22.1779C60.2909 18.8288 57.4691 15.2107 55.2545 14.0688C56.8327 17.1234 57.9273 20.4034 58.4982 23.7925V23.8216L58.5055 23.8543C60.9745 30.9198 60.6182 38.6688 57.5091 45.4798C53.8364 53.3598 44.9491 61.4361 31.0364 61.0434C16.0036 60.6179 2.76364 49.4616 0.287273 34.8507C-0.163636 32.5452 0.287273 31.3779 0.512727 29.5052C0.207273 30.9598 0.0327273 32.4398 0 33.927V34.0907C0.0145455 51.7852 14.3745 66.1198 32.0691 66.1016C47.6545 66.087 60.9673 54.8652 63.6145 39.5052C63.6691 39.0907 63.7127 38.6834 63.76 38.2652C64.4218 32.8179 63.7055 27.2834 61.6836 22.1779Z" fill="url(#paint2_radial_1213_11489)" />
		<path d="M46.1129 25.9416C46.1819 25.9889 46.2474 26.0398 46.3129 26.0871C45.5092 24.6616 44.5056 23.3525 43.3383 22.2071C33.3783 12.2471 40.7274 0.614327 41.9674 0.0215998L41.9783 0.00341797C33.931 4.71615 31.2001 13.4398 30.9492 17.8034C31.3238 17.778 31.6947 17.7452 32.0765 17.7452C37.8874 17.7561 43.2474 20.8871 46.1129 25.9416Z" fill="url(#paint3_radial_1213_11489)" />
		<path d="M32.0945 27.9311C32.04 28.7274 29.2254 31.4765 28.24 31.4765C19.1309 31.4765 17.6509 36.9892 17.6509 36.9892C18.0545 41.6292 21.2872 45.4511 25.1963 47.4729C25.3745 47.5638 25.5563 47.6474 25.7382 47.7311C26.0509 47.8692 26.3636 48.0001 26.68 48.1165C28.0218 48.5929 29.4254 48.862 30.8472 48.9202C46.8145 49.6692 49.9091 29.8256 38.3854 24.0656C41.1054 23.7129 43.8582 24.382 46.1091 25.942C43.2472 20.8874 37.8872 17.7565 32.0727 17.7456C31.6909 17.7456 31.32 17.7783 30.9454 17.8038C27.7309 18.0256 24.6582 19.2074 22.1272 21.2038C22.6145 21.6183 23.1672 22.1711 24.3272 23.3129C26.5054 25.4547 32.0836 27.6729 32.0945 27.9311Z" fill="url(#paint4_radial_1213_11489)" />
		<path d="M32.0945 27.9311C32.04 28.7274 29.2254 31.4765 28.24 31.4765C19.1309 31.4765 17.6509 36.9892 17.6509 36.9892C18.0545 41.6292 21.2872 45.4511 25.1963 47.4729C25.3745 47.5638 25.5563 47.6474 25.7382 47.7311C26.0509 47.8692 26.3636 48.0001 26.68 48.1165C28.0218 48.5929 29.4254 48.862 30.8472 48.9202C46.8145 49.6692 49.9091 29.8256 38.3854 24.0656C41.1054 23.7129 43.8582 24.382 46.1091 25.942C43.2472 20.8874 37.8872 17.7565 32.0727 17.7456C31.6909 17.7456 31.32 17.7783 30.9454 17.8038C27.7309 18.0256 24.6582 19.2074 22.1272 21.2038C22.6145 21.6183 23.1672 22.1711 24.3272 23.3129C26.5054 25.4547 32.0836 27.6729 32.0945 27.9311Z" fill="url(#paint5_radial_1213_11489)" />
		<path d="M20.6364 20.1344C20.8946 20.2981 21.1092 20.4435 21.2983 20.5744C20.5674 18.0181 20.5383 15.3162 21.2074 12.7417C18.251 14.1744 15.6255 16.2035 13.4946 18.7017C13.6546 18.6981 18.3019 18.6144 20.6364 20.1344Z" fill="url(#paint6_radial_1213_11489)" />
		<path d="M0.29105 34.8511C2.76378 49.462 16.0038 60.6148 31.0365 61.0439C44.9492 61.4366 53.8365 53.3602 57.5092 45.4802C60.6183 38.6693 60.9747 30.9239 58.5056 23.8548V23.8257C58.5056 23.8002 58.502 23.7893 58.5056 23.7966L58.5129 23.8511C59.6511 31.273 55.8765 38.462 49.9747 43.3239L49.9565 43.3639C38.4583 52.7275 27.4547 49.0148 25.2292 47.4984C25.0729 47.4257 24.9201 47.3457 24.7638 47.2657C18.062 44.062 15.2911 37.953 15.8838 32.7166C12.6329 32.7639 9.65832 30.8948 8.29469 27.942C11.8729 25.7493 16.3311 25.5711 20.0729 27.4693C23.8656 29.193 28.1856 29.3602 32.102 27.942C32.0911 27.6802 26.5129 25.462 24.3383 23.3202C23.1783 22.1748 22.6256 21.6257 22.1383 21.2111C21.8729 20.9857 21.6001 20.7784 21.3129 20.5857C21.1238 20.4548 20.9092 20.3166 20.6511 20.1457C18.3129 18.6257 13.6656 18.7093 13.5129 18.713H13.4983C12.2292 17.102 12.3165 11.7966 12.3892 10.6875C12.0147 10.8402 11.6547 11.0293 11.3201 11.2548C10.2001 12.0548 9.15287 12.953 8.18923 13.9384C7.08741 15.0475 6.08378 16.2475 5.18196 17.5239V17.5275V17.5202C3.12378 20.4402 1.66196 23.7384 0.883778 27.2293C0.869232 27.2948 -0.26895 32.2693 0.29105 34.8511Z" fill="url(#paint7_radial_1213_11489)" />
		<path d="M43.3383 22.2071C44.5092 23.3562 45.5092 24.6653 46.3129 26.0907C46.4874 26.2253 46.6547 26.3562 46.7929 26.4834C54.0583 33.178 50.251 42.6434 49.9674 43.3198C55.8692 38.458 59.6401 31.2689 58.5056 23.8471C54.8801 14.8107 48.7383 11.1707 43.7201 3.2398C43.4656 2.8398 43.211 2.43616 42.9638 2.01434C42.8219 1.77071 42.7092 1.55252 42.611 1.35252C42.4038 0.948888 42.2438 0.523434 42.1347 0.0834339C42.1347 0.0397976 42.1019 0.00707031 42.0619 -0.000202415C42.0438 -0.00383878 42.0219 -0.00383878 42.0001 -0.000202415C41.9965 -0.000202415 41.9892 0.00707031 41.9856 0.0107067C41.9819 0.0107067 41.971 0.0216158 41.9638 0.0216158C40.7274 0.614343 33.3783 12.2471 43.3383 22.2071Z" fill="url(#paint8_radial_1213_11489)" />
		<path d="M46.789 26.4836C46.6508 26.3563 46.4836 26.2218 46.309 26.0909C46.2436 26.0436 46.1781 25.9927 46.109 25.9454C43.8545 24.3854 41.1017 23.7163 38.3854 24.0691C49.909 29.8327 46.8181 49.6727 30.8472 48.9236C29.4254 48.8654 28.0217 48.5927 26.6799 48.12C26.3672 48.0036 26.0545 47.8727 25.7381 47.7345C25.5563 47.6509 25.3745 47.5709 25.1963 47.4763L25.2181 47.4909C27.4436 49.0109 38.4436 52.7236 49.9454 43.3563L49.9636 43.3163C50.2508 42.6436 54.0545 33.1745 46.789 26.4836Z" fill="url(#paint9_radial_1213_11489)" />
		<path d="M17.6507 36.9892C17.6507 36.9892 19.1307 31.4765 28.2398 31.4765C29.2253 31.4765 32.0435 28.7274 32.0944 27.931C28.178 29.3492 23.858 29.1819 20.0653 27.4583C16.3235 25.5601 11.8653 25.7383 8.28711 27.931C9.65075 30.8838 12.6253 32.7529 15.8762 32.7056C15.2835 37.9456 18.0507 44.051 24.7562 47.2547C24.9053 47.3274 25.0471 47.4038 25.1998 47.4729C21.2871 45.451 18.0544 41.6292 17.6507 36.9892Z" fill="url(#paint10_radial_1213_11489)" />
		<path d="M61.6836 22.1783C60.2909 18.8292 57.4691 15.211 55.2545 14.0692C56.8327 17.1237 57.9273 20.4037 58.4982 23.7928L58.5055 23.8473C54.8836 14.8146 48.7418 11.1746 43.7236 3.2437C43.4691 2.8437 43.2145 2.44007 42.9673 2.01825C42.8255 1.77461 42.7127 1.55643 42.6145 1.35643C42.4073 0.952795 42.2473 0.52734 42.1382 0.0873402C42.1382 0.0437038 42.1055 0.0109766 42.0655 0.00370384C42.0473 6.74716e-05 42.0255 6.74716e-05 42.0036 0.00370384C42 0.00370384 41.9927 0.0109766 41.9891 0.0146129C41.9855 0.0146129 41.9745 0.025522 41.9673 0.025522L41.9782 0.00370384C33.9309 4.71643 31.2 13.4401 30.9491 17.8037C31.3236 17.7783 31.6945 17.7455 32.0764 17.7455C37.8909 17.7564 43.2473 20.8873 46.1164 25.9419C43.8618 24.3819 41.1091 23.7128 38.3927 24.0655C49.9164 29.8292 46.8255 49.6692 30.8545 48.9201C29.4327 48.8619 28.0291 48.5892 26.6873 48.1164C26.3745 48.0001 26.0618 47.8692 25.7455 47.731C25.5636 47.6473 25.3818 47.5673 25.2036 47.4728L25.2255 47.4873C25.0691 47.4146 24.9164 47.3346 24.76 47.2546C24.9091 47.3273 25.0509 47.4037 25.2036 47.4728C21.2909 45.451 18.0618 41.6292 17.6582 36.9892C17.6582 36.9892 19.1382 31.4764 28.2473 31.4764C29.2327 31.4764 32.0509 28.7273 32.1018 27.931C32.0909 27.6692 26.5127 25.451 24.3382 23.3092C23.1782 22.1637 22.6255 21.6146 22.1382 21.2001C21.8727 20.9746 21.6 20.7673 21.3127 20.5746C20.5818 18.0182 20.5527 15.3164 21.2218 12.7419C18.2655 14.1746 15.64 16.2037 13.5091 18.7019H13.4945C12.2255 17.091 12.3127 11.7855 12.3855 10.6764C12.0109 10.8292 11.6509 11.0183 11.3164 11.2437C10.1964 12.0437 9.14909 12.9419 8.18545 13.9273C7.08727 15.0401 6.08727 16.2401 5.18909 17.5201V17.5237V17.5164C3.13091 20.4364 1.66909 23.7346 0.890909 27.2255L0.847273 27.4364C0.785455 27.7201 0.516364 29.1492 0.476364 29.4583C0.476364 29.4801 0.476364 29.4328 0.476364 29.4583C0.225455 30.9382 0.0690909 32.4292 0 33.9273V34.091C0.0145455 51.7855 14.3745 66.1201 32.0691 66.1019C47.6545 66.0873 60.9673 54.8655 63.6145 39.5055C63.6691 39.091 63.7127 38.6837 63.76 38.2655C64.4218 32.8183 63.7055 27.2837 61.6836 22.1783ZM58.5055 23.8219L58.5127 23.8546L58.5055 23.8219Z" fill="url(#paint11_linear_1213_11489)" />
	</g>
	<defs>
		<linearGradient id="paint0_linear_1213_11489" x1="57.4372" y1="10.2371" x2="4.25062" y2="61.5522" gradientUnits="userSpaceOnUse">
			<stop offset="0.048" stop-color="#FFF44F" />
			<stop offset="0.111" stop-color="#FFE847" />
			<stop offset="0.225" stop-color="#FFC830" />
			<stop offset="0.368" stop-color="#FF980E" />
			<stop offset="0.401" stop-color="#FF8B16" />
			<stop offset="0.462" stop-color="#FF672A" />
			<stop offset="0.534" stop-color="#FF3647" />
			<stop offset="0.705" stop-color="#E31587" />
		</linearGradient>
		<radialGradient id="paint1_radial_1213_11489" cx="0" cy="0" r="1" gradientUnits="userSpaceOnUse" gradientTransform="translate(54.9839 7.3364) scale(66.7918)">
			<stop offset="0.129" stop-color="#FFBD4F" />
			<stop offset="0.186" stop-color="#FFAC31" />
			<stop offset="0.247" stop-color="#FF9D17" />
			<stop offset="0.283" stop-color="#FF980E" />
			<stop offset="0.403" stop-color="#FF563B" />
			<stop offset="0.467" stop-color="#FF3750" />
			<stop offset="0.71" stop-color="#F5156C" />
			<stop offset="0.782" stop-color="#EB0878" />
			<stop offset="0.86" stop-color="#E50080" />
		</radialGradient>
		<radialGradient id="paint2_radial_1213_11489" cx="0" cy="0" r="1" gradientUnits="userSpaceOnUse" gradientTransform="translate(30.5776 34.6429) scale(66.7918)">
			<stop offset="0.3" stop-color="#960E18" />
			<stop offset="0.351" stop-color="#B11927" stop-opacity="0.74" />
			<stop offset="0.435" stop-color="#DB293D" stop-opacity="0.343" />
			<stop offset="0.497" stop-color="#F5334B" stop-opacity="0.094" />
			<stop offset="0.53" stop-color="#FF3750" stop-opacity="0" />
		</radialGradient>
		<radialGradient id="paint3_radial_1213_11489" cx="0" cy="0" r="1" gradientUnits="userSpaceOnUse" gradientTransform="translate(38.6305 -7.8212) scale(48.3865 48.3865)">
			<stop offset="0.132" stop-color="#FFF44F" />
			<stop offset="0.252" stop-color="#FFDC3E" />
			<stop offset="0.506" stop-color="#FF9D12" />
			<stop offset="0.526" stop-color="#FF980E" />
		</radialGradient>
		<radialGradient id="paint4_radial_1213_11489" cx="0" cy="0" r="1" gradientUnits="userSpaceOnUse" gradientTransform="translate(23.1897 52.0896) scale(31.8025)">
			<stop offset="0.353" stop-color="#3A8EE6" />
			<stop offset="0.472" stop-color="#5C79F0" />
			<stop offset="0.669" stop-color="#9059FF" />
			<stop offset="1" stop-color="#C139E6" />
		</radialGradient>
		<radialGradient id="paint5_radial_1213_11489" cx="0" cy="0" r="1" gradientUnits="userSpaceOnUse" gradientTransform="translate(34.2271 29.1692) rotate(-13.5916) scale(16.8615 19.7406)">
			<stop offset="0.206" stop-color="#9059FF" stop-opacity="0" />
			<stop offset="0.278" stop-color="#8C4FF3" stop-opacity="0.064" />
			<stop offset="0.747" stop-color="#7716A8" stop-opacity="0.45" />
			<stop offset="0.975" stop-color="#6E008B" stop-opacity="0.6" />
		</radialGradient>
		<radialGradient id="paint6_radial_1213_11489" cx="0" cy="0" r="1" gradientUnits="userSpaceOnUse" gradientTransform="translate(29.7345 4.60386) scale(22.8787)">
			<stop stop-color="#FFE226" />
			<stop offset="0.121" stop-color="#FFDB27" />
			<stop offset="0.295" stop-color="#FFC82A" />
			<stop offset="0.502" stop-color="#FFA930" />
			<stop offset="0.732" stop-color="#FF7E37" />
			<stop offset="0.792" stop-color="#FF7139" />
		</radialGradient>
		<radialGradient id="paint7_radial_1213_11489" cx="0" cy="0" r="1" gradientUnits="userSpaceOnUse" gradientTransform="translate(47.7177 -9.90759) scale(97.6131 97.6131)">
			<stop offset="0.113" stop-color="#FFF44F" />
			<stop offset="0.456" stop-color="#FF980E" />
			<stop offset="0.622" stop-color="#FF5634" />
			<stop offset="0.716" stop-color="#FF3647" />
			<stop offset="0.904" stop-color="#E31587" />
		</radialGradient>
		<radialGradient id="paint8_radial_1213_11489" cx="0" cy="0" r="1" gradientUnits="userSpaceOnUse" gradientTransform="translate(39.4903 -4.48072) rotate(83.976) scale(71.543 46.953)">
			<stop stop-color="#FFF44F" />
			<stop offset="0.06" stop-color="#FFE847" />
			<stop offset="0.168" stop-color="#FFC830" />
			<stop offset="0.304" stop-color="#FF980E" />
			<stop offset="0.356" stop-color="#FF8B16" />
			<stop offset="0.455" stop-color="#FF672A" />
			<stop offset="0.57" stop-color="#FF3647" />
			<stop offset="0.737" stop-color="#E31587" />
		</radialGradient>
		<radialGradient id="paint9_radial_1213_11489" cx="0" cy="0" r="1" gradientUnits="userSpaceOnUse" gradientTransform="translate(29.1955 13.078) scale(60.9415 60.9415)">
			<stop offset="0.137" stop-color="#FFF44F" />
			<stop offset="0.48" stop-color="#FF980E" />
			<stop offset="0.592" stop-color="#FF5634" />
			<stop offset="0.655" stop-color="#FF3647" />
			<stop offset="0.904" stop-color="#E31587" />
		</radialGradient>
		<radialGradient id="paint10_radial_1213_11489" cx="0" cy="0" r="1" gradientUnits="userSpaceOnUse" gradientTransform="translate(45.2822 16.6448) scale(66.7 66.7)">
			<stop offset="0.094" stop-color="#FFF44F" />
			<stop offset="0.231" stop-color="#FFE141" />
			<stop offset="0.509" stop-color="#FFAF1E" />
			<stop offset="0.626" stop-color="#FF980E" />
		</radialGradient>
		<linearGradient id="paint11_linear_1213_11489" x1="56.7989" y1="9.96352" x2="11.5424" y2="55.2191" gradientUnits="userSpaceOnUse">
			<stop offset="0.167" stop-color="#FFF44F" stop-opacity="0.8" />
			<stop offset="0.266" stop-color="#FFF44F" stop-opacity="0.634" />
			<stop offset="0.489" stop-color="#FFF44F" stop-opacity="0.217" />
			<stop offset="0.6" stop-color="#FFF44F" stop-opacity="0" />
		</linearGradient>
		<clipPath id="clip0_1213_11489">
			<rect width="64" height="66.1055" fill="white" />
		</clipPath>
	</defs>
</svg>
