<svg width="201" height="201" viewBox="0 0 201 201" fill="#F06E8E" xmlns="http://www.w3.org/2000/svg">
	<path d="M111.555 189.32C124.325 189.05 137.511 166.654 140.769 150.365C129.093 150.365 105.129 125.345 100.959 119.09C96.7885 125.345 72.7998 150.365 61.1238 150.365C65.2938 171.215 85.7268 202.073 100.739 183.725C100.812 183.635 100.87 183.531 100.942 183.44C101.015 183.532 101.079 183.634 101.154 183.725C104.438 187.738 107.979 189.396 111.555 189.32Z" />
	<path d="M15.1105 134.672C19.3139 146.733 44.6882 152.354 61.1868 150.418C57.5789 139.314 73.9687 108.791 78.6291 102.892C71.3917 100.859 40.1833 85.7754 36.5752 74.6711C18.0343 85.0799 -4.99933 114.048 17.0896 122.656C17.198 122.698 17.3145 122.721 17.4237 122.762C17.3582 122.86 17.2817 122.952 17.218 123.051C14.4156 127.415 13.9336 131.294 15.1105 134.672Z" />
	<path d="M186.655 134.672C182.452 146.733 157.077 152.354 140.579 150.418C144.187 139.314 127.797 108.791 123.136 102.892C130.374 100.859 161.582 85.7754 165.19 74.6711C183.731 85.0799 206.765 114.048 184.676 122.656C184.567 122.698 184.451 122.721 184.342 122.762C184.407 122.86 184.484 122.952 184.547 123.051C187.35 127.415 187.832 131.294 186.655 134.672Z" />
	<path d="M37.3051 26.0276C27.1326 33.7526 29.6286 59.6217 36.5674 74.715C46.0135 67.852 80.1074 74.0073 87.1577 76.6169C86.8549 69.1055 91.5558 34.7635 101.002 27.9005C85.3729 13.4836 50.7044 0.529161 49.3441 24.1968C49.3374 24.3129 49.3516 24.4308 49.347 24.5471C49.2332 24.5152 49.1223 24.4709 49.008 24.441C43.9923 23.1241 40.1534 23.8646 37.3051 26.0276Z" />
	<path d="M147.304 13.5575C136.814 6.27001 112.982 16.6379 100.772 27.9011C110.218 34.7641 114.899 69.0918 114.596 76.6032C121.646 73.994 155.76 67.8524 165.206 74.7154C174.088 55.3967 175.695 18.4216 152.766 24.4416C152.653 24.4711 152.546 24.5211 152.433 24.5525C152.428 24.4346 152.436 24.3151 152.43 24.1975C152.132 19.0202 150.242 15.598 147.304 13.5575Z" />
</svg>
