<svg enable-background="new 0 0 1000 1000" version="1.1" viewBox="0 0 1e3 1e3" xml:space="preserve" xmlns="http://www.w3.org/2000/svg">
	<g transform="translate(0 502) scale(.1 -.1)">
		<path d="m4562.8 4806.4c-387-34.5-888.9-145.6-1241.4-275.9-300.8-111.1-743.3-337.2-1023-523-739.4-490.3-1312.2-1143.6-1695.3-1929-298.8-613-442.5-1149.4-492.3-1844.8-46-641.7 57.5-1377.4 281.6-1988.5 105.4-289.3 352.5-777.8 517.2-1023 484.7-724.1 1109.2-1279.7 1877.4-1668.6 260.5-130.3 739.5-323.8 804.6-323.8 15.3 0 74.7 86.2 134.1 191.6 245.2 436.8 544.1 720.3 906.1 858.2 113 44 157.1 49.8 358.2 49.8s245.2-5.8 358.2-49.8c203.1-76.6 335.2-164.7 515.3-341 166.7-162.8 321.8-381.2 434.9-607.3l59.4-116.9 82.4 24.9c505.7 155.2 1072.8 440.6 1482.7 749 231.8 174.3 272 208.8 521.1 455.9 408 400.4 689.6 789.3 942.5 1304.6 310.4 630.3 452.1 1159 501.9 1871.6 95.8 1346.7-404.2 2704.9-1364 3701.1-1032.6 1071.1-2486.5 1615.2-3961.6 1484.9zm659-1431c159-80.5 260.5-245.2 264.4-425.3 1.9-151.3-49.8-270.1-160.9-369.7-136-122.6-304.6-159-482.7-105.4-86.2 24.9-233.7 147.5-273.9 226-139.8 270.1-13.4 595.8 270.1 701.2 99.4 36.4 283.3 24.9 383-26.8zm-2092-856.3c302.7-145.6 371.6-547.9 134.1-785.4-239.5-237.5-636-170.5-785.4 136-44.1 91.9-49.8 120.7-42.1 237.5 15.3 208.8 124.5 358.2 314.2 431 97.6 36.4 283.5 26.9 379.2-19.1zm4113 19.1c193.5-69 304.6-218.4 319.9-431 7.7-116.9 1.9-145.6-42.1-237.5-228-465.5-931-306.5-931 208.8 0 333.3 337.1 570.8 653.2 459.7zm-4952-2113c145.6-74.7 235.6-214.6 251-390.8 13.4-137.9-28.7-256.7-124.5-364-105.4-116.8-199.3-157-358.3-157-162.8 0-256.7 42.1-367.8 168.6-128.3 145.6-157.1 342.9-74.7 519.1 118.7 256.7 419.5 356.3 674.3 224.1zm5842.8 24.9c300.8-122.6 390.8-547.9 164.8-781.6-113-116.9-203.1-155.2-358.2-155.2-159 0-252.9 40.2-358.2 157.1-260.5 289.3-101.5 747.1 281.6 808.4 89.9 15.4 187.6 3.9 270-28.7z"/>
	</g>
</svg>
