<svg version="1.1" xmlns="http://www.w3.org/2000/svg" xmlns:xlink="http://www.w3.org/1999/xlink" viewBox="0 0 256 256">
	<path d="M153.3,182.2v0.4h0.4C153.5,182.6,153.3,182.4,153.3,182.2z" />
	<path d="M186.6,182.6h0.4v-0.4C187,182.4,186.8,182.6,186.6,182.6z" />
	<path d="M153.7,136.5h-0.4v0.4C153.3,136.6,153.5,136.5,153.7,136.5z" />
	<path d="M195.4,10H60.6C32.7,10,10,32.7,10,60.6v134.9c0,27.9,22.7,50.6,50.6,50.6h134.9c27.9,0,50.6-22.7,50.6-50.6V60.6C246,32.7,223.3,10,195.4,10z M123.7,199.2c0,2.6-2.1,4.7-4.7,4.7h-1.7c-0.2,0-0.4,0-0.5,0v0.1c-12.3-2.3-25-9.3-32.6-18.8c-0.2-0.2-0.4-0.2-0.6,0c-7.5,9.4-20.3,16.4-32.6,18.8v-0.1c-0.2,0-0.4,0-0.5,0h0c-3.6,0-6.6-3-6.6-6.6v-11.5c0-2.4,1.7-4.3,4-4.7l2-0.9c12-3.3,22.6-13.2,23.4-26V86.8l0,0v1.5c0,0,0,0.1,0,0.2V84c0-1.3,1.1-2.3,2.3-2.3h16.4c1.3,0,2.3,1.1,2.3,2.3v4.3v2.8V154c0.7,13,12.1,23.8,24.2,27.1v0.2c2.3,0.4,5.3,1.6,5.3,4.7L123.7,199.2L123.7,199.2L123.7,199.2z M118.6,161.7h-10.7c-2.8,0-5.2-2.3-5.2-5.2V80.1h-0.2c0-0.2,0.1-0.3,0.1-0.4v-3.2c0-1.8-1.5-3.3-3.3-3.3H68c-1.8,0-3.3,1.5-3.3,3.3v3.2c0,0.2,0,0.3,0.1,0.4h0v76.5c0,2.8-2.3,5.2-5.2,5.2H48.9c-2.8,0-5.2-2.3-5.2-5.2V74.9v-8.2v-9.4c0-2.8,2.3-5.2,5.2-5.2h70.1c2.6,0,4.7,2.1,4.7,4.7l0,9.6c0,0,0,0.1,0,0.2v5.8v2.8c0,0,0,0,0,0.1l0,81.1C123.8,159.4,121.5,161.7,118.6,161.7z M208,131.3L208,131.3v56.5v11c0,2.8-2.3,5.2-5.2,5.2h-10.7h-44h-10.7c-2.8,0-5.2-2.3-5.2-5.2v-11v-56.4v0v-10.7c0-2.8,2.3-5.2,5.2-5.2h3.2V80.8V70V57.4c0-2.8,2.3-5.2,5.2-5.2h10.8c2.8,0,5.2,2.3,5.2,5.2v7.4h41.1c2.8,0,5.2,2.3,5.2,5.2v10.8c0,2.8-2.3,5.2-5.2,5.2h-41.1v29.5h41.2c2.8,0,5.2,2.3,5.2,5.2L208,131.3L208,131.3L208,131.3z" />
	<path d="M183.7,136.5h-27.2c-1.8,0-3.3,1.5-3.3,3.3v39.6c0,1.8,1.5,3.3,3.3,3.3h27.2c1.8,0,3.3-1.5,3.3-3.3v-39.6C187,137.9,185.5,136.5,183.7,136.5z" />
	<path d="M187,136.9v-0.4h-0.4C186.8,136.5,187,136.6,187,136.9z" />
</svg>
