<svg version="1.1" viewBox="0 0 71.412 50" xml:space="preserve" xmlns="http://www.w3.org/2000/svg">
	<g transform="scale(.58824)">
		<path transform="scale(1.7)" d="m35.707 0s-22.353 1.0312e-4 -27.941 1.4707c-3 0.82354-5.4714 3.2947-6.2949 6.3535-1.4706 5.5883-1.4707 17.176-1.4707 17.176s1.0312e-4 11.648 1.4707 17.178c0.82354 3.0588 3.2361 5.4694 6.2949 6.293 5.6471 1.5294 27.941 1.5293 27.941 1.5293s22.353-1.03e-4 27.941-1.4707c3.0588-0.82354 5.4694-3.2341 6.293-6.293 1.4706-5.5883 1.4707-17.178 1.4707-17.178s0.058721-11.646-1.4707-17.234c-0.82354-3.0588-3.2341-5.4714-6.293-6.2949-5.5883-1.5294-27.941-1.5293-27.941-1.5293zm-7.1191 14.295 18.59 10.705-18.59 10.707v-21.412z" stroke-width=".58824"/>
	</g>
</svg>
