<svg width="256" height="256" viewBox="0 0 256 256" fill="none" xmlns="http://www.w3.org/2000/svg">
	<path d="M57.3303 226L33.2396 40.8417C33.0877 39.6738 33.4581 38.4982 34.2522 37.6285L52.8104 17.3029C53.5682 16.4729 54.6403 16 55.7643 16H200.236C201.36 16 202.432 16.4729 203.19 17.3029L221.748 37.6285C222.542 38.4982 222.912 39.6738 222.76 40.8417L198.661 226.059L57.3303 226Z" fill="#C9D1D7" fill-opacity="0.5" />
	<mask id="mask0_1638_15467" style="mask-type:alpha" maskUnits="userSpaceOnUse" x="33" y="16" width="190" height="211">
		<path d="M57.3303 226L33.2396 40.8417C33.0877 39.6738 33.4581 38.4982 34.2522 37.6285L52.8104 17.3029C53.5682 16.4729 54.6403 16 55.7643 16H200.236C201.36 16 202.432 16.4729 203.19 17.3029L221.748 37.6285C222.542 38.4982 222.912 39.6738 222.76 40.8417L198.661 226.059L57.3303 226Z" fill="white" />
	</mask>
	<g mask="url(#mask0_1638_15467)">
		<path d="M55.6475 226L29.2121 8.68678C29.0769 7.5754 29.4137 6.45822 30.1406 5.60671L52 -20H53.3409C55.3823 -20 57.0961 -18.4628 57.3173 -16.4334L81.5714 206.086L55.6475 226Z" fill="url(#paint0_linear_1638_15467)" />
		<rect x="36.4219" y="39.7715" width="5.46621" height="185.8" transform="rotate(-7.56748 36.4219 39.7715)" fill="white" fill-opacity="0.125" />
		<path d="M200.353 226L226.788 8.68678C226.923 7.5754 226.586 6.45822 225.859 5.60671L204 -20H202.659C200.618 -20 198.904 -18.4628 198.683 -16.4334L174.429 206.086L200.353 226Z" fill="url(#paint1_linear_1638_15467)" />
		<rect width="5.46621" height="185.8" transform="matrix(-0.99129 -0.131694 -0.131694 0.99129 219.578 39.7715)" fill="white" fill-opacity="0.125" />
		<g filter="url(#filter0_b_1638_15467)">
			<path d="M57.3303 226L33.2396 40.8417C33.0877 39.6738 33.4581 38.4982 34.2522 37.6285L52.8104 17.3029C53.5682 16.4729 54.6403 16 55.7643 16H200.236C201.36 16 202.432 16.4729 203.19 17.3029L221.748 37.6285C222.542 38.4982 222.912 39.6738 222.76 40.8417L198.661 226.059L57.3303 226Z" fill="white" fill-opacity="0.01" />
		</g>
	</g>
	<mask id="mask1_1638_15467" style="mask-type:alpha" maskUnits="userSpaceOnUse" x="33" y="15" width="190" height="24">
		<rect x="33" y="15" width="190" height="24" fill="#D9D9D9" />
	</mask>
	<g mask="url(#mask1_1638_15467)">
		<path d="M34.0731 37.8171L53.1107 17.4513C53.678 16.8445 54.4715 16.5 55.3023 16.5H200.718C201.537 16.5 202.32 16.8347 202.886 17.4263L222.382 37.8088C222.991 38.4449 222.54 39.5 221.66 39.5H34.8037C33.9289 39.5 33.4758 38.4561 34.0731 37.8171Z" stroke="url(#paint2_linear_1638_15467)" />
	</g>
	<defs>
		<filter id="filter0_b_1638_15467" x="29.2061" y="12" width="197.588" height="218.059" filterUnits="userSpaceOnUse" color-interpolation-filters="sRGB">
			<feFlood flood-opacity="0" result="BackgroundImageFix" />
			<feGaussianBlur in="BackgroundImageFix" stdDeviation="2" />
			<feComposite in2="SourceAlpha" operator="in" result="effect1_backgroundBlur_1638_15467" />
			<feBlend mode="normal" in="SourceGraphic" in2="effect1_backgroundBlur_1638_15467" result="shape" />
		</filter>
		<linearGradient id="paint0_linear_1638_15467" x1="39.4048" y1="4.01428" x2="56.9478" y2="2.47659" gradientUnits="userSpaceOnUse">
			<stop stop-color="#C0C8CF" stop-opacity="0.65" />
			<stop offset="0.663894" stop-color="#B7C0C6" stop-opacity="0.6" />
			<stop offset="1" stop-color="#B7C0C6" stop-opacity="0" />
		</linearGradient>
		<linearGradient id="paint1_linear_1638_15467" x1="216.595" y1="4.01428" x2="199.052" y2="2.47659" gradientUnits="userSpaceOnUse">
			<stop stop-color="#C0C8CF" stop-opacity="0.65" />
			<stop offset="0.663894" stop-color="#B7C0C6" stop-opacity="0.6" />
			<stop offset="1" stop-color="#B7C0C6" stop-opacity="0" />
		</linearGradient>
		<linearGradient id="paint2_linear_1638_15467" x1="128.25" y1="16.5" x2="128.25" y2="39.5" gradientUnits="userSpaceOnUse">
			<stop stop-color="#CBD2DA" />
			<stop offset="0.5" stop-color="#E7EBED" stop-opacity="0.976" />
			<stop offset="1" stop-color="white" />
		</linearGradient>
	</defs>
</svg>
