<svg width="24" height="24" viewBox="0 0 24 24" xmlns="http://www.w3.org/2000/svg">
	<path d="M4 5C4 5.55 4.45 6 5 6H9V8H6C5.45 8 5 8.45 5 9C5 9.55 5.45 10 6 10H9V12H5C4.45 12 4 12.45 4 13C4 13.55 4.45 14 5 14H9C10.1 14 11 13.1 11 12V10.5C11 9.67 10.83 9 10 9C10.83 9 11 8.33 11 7.5V6C11 4.9 10.1 4 9 4H5C4.45 4 4 4.45 4 5ZM18 4C19.1 4 20 4.9 20 6V12C20 13.1 19.1 14 18 14H15C13.9 14 13 13.1 13 12V6C13 4.9 13.9 4 15 4H18ZM18 6H15V12H18V6ZM4 22C3.45 22 3 21.55 3 21V18C3 17.45 3.45 17 4 17C4.55 17 5 17.45 5 18V21C5 21.55 4.55 22 4 22ZM8 22C7.45 22 7 21.55 7 21V18C7 17.45 7.45 17 8 17C8.55 17 9 17.45 9 18V21C9 21.55 8.55 22 8 22ZM12 22C11.45 22 11 21.55 11 21V18C11 17.45 11.45 17 12 17C12.55 17 13 17.45 13 18V21C13 21.55 12.55 22 12 22ZM20 22H16C15.45 22 15 21.55 15 21V18C15 17.45 15.45 17 16 17H20C20.55 17 21 17.45 21 18V21C21 21.55 20.55 22 20 22Z"/>
</svg>
