<svg width="32" height="24" viewBox="0 0 32 24" xmlns="http://www.w3.org/2000/svg">
	<path d="M5.7532 8.6894C4.53681 9.2976 3.69849 10.5469 3.69849 12.0016C3.69849 13.4563 4.53681 14.7056 5.7532 15.3056V8.6894Z"/>
	<path d="M5.7532 5.96074V5.79636C5.7532 5.27858 5.23542 4.90873 4.75872 5.09776C1.97253 6.15799 0 8.84556 0 12.0016C0 15.1576 1.97253 17.8452 4.75872 18.9054C5.23542 19.0863 5.7532 18.7246 5.7532 18.2068V18.0425C5.7532 17.7302 5.55595 17.4589 5.26007 17.3439C3.13961 16.4973 1.64377 14.418 1.64377 12.0016C1.64377 9.58526 3.13961 7.50589 5.26007 6.65934C5.54773 6.54428 5.7532 6.27306 5.7532 5.96074Z"/>
	<path d="M26.241 8.6894C27.4586 9.2976 28.2978 10.5469 28.2978 12.0016C28.2978 13.4563 27.4586 14.7056 26.241 15.3056V8.6894Z"/>
	<path d="M26.241 5.96074V5.79636C26.241 5.27858 26.7593 4.90873 27.2365 5.09776C30.0255 6.15799 32 8.84556 32 12.0016C32 15.1576 30.0255 17.8452 27.2365 18.9055C26.7593 19.0863 26.241 18.7246 26.241 18.2068V18.0425C26.241 17.7302 26.4385 17.4589 26.7347 17.3439C28.8572 16.4973 30.3546 14.418 30.3546 12.0016C30.3546 9.58526 28.8572 7.50589 26.7347 6.65935C26.4467 6.54428 26.241 6.27306 26.241 5.96074Z"/>
	<path d="M9.81639 14.1814C9.22013 14.1814 8.72568 14.6758 8.72568 15.2721C8.72568 15.8684 9.22013 16.3628 9.81639 16.3628H13.8157C14.6155 16.3628 15.2699 15.7084 15.2699 14.9085V12.7271C15.2699 11.9273 14.6155 11.2728 13.8157 11.2728H10.9071V9.81855H14.1792C14.7755 9.81855 15.2699 9.32409 15.2699 8.72784C15.2699 8.13158 14.7755 7.63713 14.1792 7.63713H10.18C9.3801 7.63713 8.72568 8.29155 8.72568 9.09141V11.2728C8.72568 12.0727 9.3801 12.7271 10.18 12.7271H13.0885V14.1814H9.81639Z"/>
	<path d="M21.8142 7.63713H19.9963C19.4001 7.63713 18.9056 8.13158 18.9056 8.72784C18.9056 9.32409 19.4001 9.81855 19.9963 9.81855H21.087V15.2721C21.087 15.8684 21.5815 16.3628 22.1778 16.3628C22.774 16.3628 23.2685 15.8684 23.2685 15.2721V9.09141C23.2685 8.29155 22.614 7.63713 21.8142 7.63713Z"/>
	<path d="M18.5902 15.3626C18.5902 15.9149 18.1425 16.3626 17.5902 16.3626C17.0379 16.3626 16.5902 15.9149 16.5902 15.3626C16.5902 14.8103 17.0379 14.3626 17.5902 14.3626C18.1425 14.3626 18.5902 14.8103 18.5902 15.3626Z"/>
</svg>
