<svg width="24" height="24" viewBox="0 0 24 24" xmlns="http://www.w3.org/2000/svg">
	<path d="M18 6V12H15V6H18ZM18 4H15C13.9 4 13 4.9 13 6V12C13 13.1 13.9 14 15 14H18C19.1 14 20 13.1 20 12V6C20 4.9 19.1 4 18 4ZM11 5C11 4.45 10.55 4 10 4H6C4.9 4 4 4.9 4 6V12C4 13.1 4.9 14 6 14H9C10.1 14 11 13.1 11 12V10C11 8.9 10.1 8 9 8H6V6H10C10.55 6 11 5.55 11 5ZM9 10V12H6V10H9ZM4 22C3.45 22 3 21.55 3 21V18C3 17.45 3.45 17 4 17C4.55 17 5 17.45 5 18V21C5 21.55 4.55 22 4 22ZM8 22C7.45 22 7 21.55 7 21V18C7 17.45 7.45 17 8 17C8.55 17 9 17.45 9 18V21C9 21.55 8.55 22 8 22ZM12 22C11.45 22 11 21.55 11 21V18C11 17.45 11.45 17 12 17C12.55 17 13 17.45 13 18V21C13 21.55 12.55 22 12 22ZM20 22H16C15.45 22 15 21.55 15 21V18C15 17.45 15.45 17 16 17H20C20.55 17 21 17.45 21 18V21C21 21.55 20.55 22 20 22Z"/>
</svg>
