<svg width="24" height="24" viewBox="0 0 24 24" xmlns="http://www.w3.org/2000/svg">
	<path d="M12.718 2.02568C6.62667 1.59559 1.59559 6.62667 2.02568 12.718C2.38576 18.0091 7.00676 22 12.3079 22H15.9987C16.5488 22 16.9989 21.5499 16.9989 20.9998C16.9989 20.4497 16.5488 19.9996 15.9987 19.9996H12.3279C8.5971 19.9996 5.17636 17.579 4.24616 13.9683C2.75584 8.16701 8.157 2.75584 13.9583 4.25616C17.579 5.17636 19.9996 8.5971 19.9996 12.3279V13.4281C19.9996 14.2183 19.2894 14.9985 18.4992 14.9985C17.7091 14.9985 16.9989 14.2183 16.9989 13.4281V12.1779C16.9989 9.66733 15.2185 7.40684 12.738 7.05677C9.33726 6.56666 6.46664 9.5073 7.07677 12.928C7.41685 14.8385 8.90717 16.4188 10.7976 16.8689C12.638 17.299 14.3884 16.7089 15.5386 15.5386C16.4288 16.7589 18.2092 17.399 19.8395 16.7489C21.1798 16.2187 22 14.8485 22 13.4081V12.3179C22 7.00676 18.0091 2.38576 12.718 2.02568ZM11.9978 14.9985C10.3375 14.9985 8.99719 13.6582 8.99719 11.9978C8.99719 10.3375 10.3375 8.99719 11.9978 8.99719C13.6582 8.99719 14.9985 10.3375 14.9985 11.9978C14.9985 13.6582 13.6582 14.9985 11.9978 14.9985Z" />
</svg>
