<svg width="24" height="24" viewBox="0 0 24 24" xmlns="http://www.w3.org/2000/svg">
	<path
		d="M21.863 9.67707C22.003 10.2971 21.513 10.8871 20.873 10.8871C20.413 10.8871 20.003 10.5871 19.903 10.1471C19.703 9.22707 19.343 8.37707 18.853 7.60707C18.613 7.22707 18.693 6.71707 19.013 6.39707C19.463 5.94707 20.223 6.02707 20.563 6.55707C21.163 7.49707 21.603 8.55707 21.863 9.67707Z" />
	<path
		d="M17.433 3.43707C17.973 3.77707 18.043 4.52707 17.593 4.98707C17.273 5.30707 16.763 5.38706 16.373 5.12706C15.613 4.64706 14.753 4.27706 13.843 4.07706C13.403 3.98706 13.103 3.56706 13.103 3.11706C13.103 2.47706 13.693 1.99706 14.313 2.13707C15.433 2.39707 16.493 2.83706 17.433 3.43707Z" />
	<path
		d="M9.89299 2.12706C10.513 1.98706 11.103 2.47706 11.103 3.11706C11.103 3.57706 10.803 3.98706 10.353 4.07706C9.43299 4.27706 8.58299 4.63706 7.82299 5.12706C7.44299 5.37706 6.93299 5.29707 6.61299 4.97707C6.16299 4.52707 6.23299 3.76706 6.77299 3.42706C7.72299 2.82706 8.77299 2.38706 9.89299 2.12706Z" />
	<path
		d="M2.35299 9.67706C2.61299 8.55706 3.05299 7.50706 3.65299 6.55707C3.99299 6.01706 4.74299 5.94706 5.18299 6.40706C5.51299 6.72706 5.58299 7.22706 5.34299 7.61706C4.86299 8.37706 4.49299 9.23706 4.29299 10.1471C4.20299 10.5871 3.78299 10.8871 3.33299 10.8871C2.70299 10.8871 2.21299 10.2971 2.35299 9.67706Z" />
	<path
		d="M2.41865 18.7316C2.58471 18.9653 2.94511 19.0338 3.18376 18.7952L4.16461 17.8143C5.7405 19.9602 8.1627 21.4765 11.0052 21.8255C15.7 22.4019 20.0525 19.6116 21.6147 15.3401C21.8391 14.743 21.4259 14.0878 20.7907 14.0098C20.3341 13.9537 19.8894 14.2114 19.7365 14.636C18.49 18.0596 15.0107 20.3023 11.249 19.8404C8.86406 19.5476 6.85231 18.2274 5.60201 16.3769L7.12949 14.8494C7.44768 14.5312 7.22279 13.993 6.77731 14.0001L2.83024 14.0001C2.5474 14.0001 2.32892 14.2186 2.32892 14.5014V18.4485C2.32892 18.5581 2.3633 18.6537 2.41865 18.7316Z" />
	<path
		d="M9.52539 15.3515V8.64752C9.52539 8.13631 10.1134 7.8257 10.5663 8.10396L16.0682 11.4495C16.4873 11.7083 16.4873 12.2907 16.0682 12.5431L10.5663 15.8951C10.1134 16.1733 9.52539 15.8627 9.52539 15.3515Z" />
</svg>
