<svg width="24" height="24" viewBox="0 0 24 24" xmlns="http://www.w3.org/2000/svg">
	<path
		d="M20.873 10.8871C21.513 10.8871 22.003 10.2971 21.863 9.67707C21.603 8.55707 21.163 7.49707 20.563 6.55707C20.223 6.02707 19.463 5.94707 19.013 6.39707C18.693 6.71707 18.613 7.22707 18.853 7.60707C19.343 8.37707 19.703 9.22707 19.903 10.1471C20.003 10.5871 20.413 10.8871 20.873 10.8871ZM17.593 4.98707C18.043 4.52707 17.973 3.77707 17.433 3.43707C16.493 2.83707 15.433 2.39707 14.313 2.13707C13.693 1.99706 13.103 2.47706 13.103 3.11706C13.103 3.56706 13.403 3.98706 13.843 4.07706C14.753 4.27707 15.613 4.64706 16.373 5.12706C16.763 5.38706 17.273 5.30707 17.593 4.98707ZM11.103 3.11706C11.103 2.47706 10.513 1.98706 9.89297 2.12706C8.77297 2.38706 7.72297 2.82706 6.77297 3.42706C6.23297 3.76706 6.16297 4.52706 6.61297 4.97706C6.93297 5.29706 7.44297 5.37706 7.82297 5.12706C8.58297 4.63706 9.43297 4.27706 10.353 4.07706C10.803 3.98706 11.103 3.57706 11.103 3.11706ZM3.65297 6.55706C3.05297 7.50706 2.61297 8.55706 2.35297 9.67706C2.21297 10.2971 2.70297 10.8871 3.33297 10.8871C3.78297 10.8871 4.20297 10.5871 4.29297 10.1471C4.49297 9.23707 4.86297 8.37706 5.34297 7.61706C5.58297 7.22706 5.51297 6.72706 5.18297 6.40706C4.74297 5.94706 3.99297 6.01706 3.65297 6.55706Z" />
	<path
		d="M3.18378 18.7951C2.94513 19.0337 2.58473 18.9652 2.41867 18.7316C2.36331 18.6537 2.32894 18.558 2.32894 18.4484L2.32894 14.5013C2.32894 14.2185 2.54742 14 2.83026 14L6.77733 14C7.22281 13.9929 7.4477 14.5312 7.1295 14.8494L3.18378 18.7951Z" />
	<path
		d="M19.7365 14.6359C18.49 18.0595 15.0107 20.3022 11.249 19.8403C8.0595 19.4487 5.53743 17.2197 4.61152 14.3419L2.67525 14.8714C3.81162 18.5087 6.98885 21.3323 11.0053 21.8254C15.7 22.4019 20.0525 19.6115 21.6147 15.34C21.8391 14.743 21.4259 14.0877 20.7907 14.0097C20.3341 13.9537 19.8894 14.2114 19.7365 14.6359Z" />
	<path
		d="M9.52539 8.64746V15.3514C9.52539 15.8626 10.1134 16.1733 10.5663 15.895L16.0682 12.543C16.4873 12.2906 16.4873 11.7083 16.0682 11.4494L10.5663 8.10389C10.1134 7.82564 9.52539 8.13625 9.52539 8.64746Z" />
</svg>
