<svg width="24" height="24" viewBox="0 0 24 24" xmlns="http://www.w3.org/2000/svg">
	<path d="M13.0111 6.19879C13.7111 5.95879 14.2311 5.29879 14.3111 4.55879C14.3611 4.08879 14.2611 3.64879 14.0311 3.28879L12.7511 1.06879C12.5611 0.738789 12.0811 0.738789 11.8811 1.06879L10.6011 3.28879C10.4311 3.58879 10.3311 3.93879 10.3311 4.31879C10.3311 5.63879 11.6311 6.66879 13.0111 6.19879ZM16.8611 16.2388L15.8611 15.2388L14.7811 16.3088C13.4811 17.6088 11.2011 17.6188 9.89106 16.3088L8.82105 15.2388L7.73105 16.3088C7.08105 16.9588 6.21105 17.3188 5.29105 17.3188C4.56105 17.3188 3.89105 17.0888 3.33105 16.7088V20.3188C3.33105 21.4188 4.23105 22.3188 5.33105 22.3188H19.3311C20.4311 22.3188 21.3311 21.4188 21.3311 20.3188V16.7088C20.5811 17.2188 19.6211 17.4588 18.5911 17.2288C17.9311 17.0888 17.3411 16.7188 16.8611 16.2388ZM18.3311 9.31879H13.3311V8.31879C13.3311 7.76879 12.8811 7.31879 12.3311 7.31879C11.7811 7.31879 11.3311 7.76879 11.3311 8.31879V9.31879H6.33105C4.67105 9.31879 3.33105 10.6588 3.33105 12.3188V13.7788C3.33105 14.6288 3.83105 15.4488 4.64105 15.7188C5.37105 15.9588 6.16105 15.7788 6.67105 15.2588L8.81105 13.1288L10.9411 15.2588C11.7011 16.0188 12.9511 16.0188 13.7111 15.2588L15.8511 13.1288L17.9811 15.2588C18.4111 15.6888 19.0111 15.8888 19.6311 15.8088C20.6211 15.6788 21.3211 14.7488 21.3211 13.7488V12.3288C21.3311 10.6588 19.9911 9.31879 18.3311 9.31879Z"/>
</svg>
