<svg width="25" height="24" viewBox="0 0 25 24" xmlns="http://www.w3.org/2000/svg">
	<path d="M15.2755 11.79C16.2455 11.12 16.9255 10.02 16.9255 9C16.9255 6.74 15.1755 5 12.9255 5H7.67551C7.12551 5 6.67551 5.45 6.67551 6V18C6.67551 18.55 7.12551 19 7.67551 19H13.4555C15.5255 19 17.4155 17.31 17.4255 15.23C17.4355 13.7 16.5755 12.39 15.2755 11.79ZM9.67551 7.5H12.6755C13.5055 7.5 14.1755 8.17 14.1755 9C14.1755 9.83 13.5055 10.5 12.6755 10.5H9.67551V7.5ZM13.1755 16.5H9.67551V13.5H13.1755C14.0055 13.5 14.6755 14.17 14.6755 15C14.6755 15.83 14.0055 16.5 13.1755 16.5Z" />
</svg>
