<svg width="24" height="24" viewBox="0 0 24 24" xmlns="http://www.w3.org/2000/svg">
	<path d="M10 6C10 7.30622 9.16519 8.41746 8 8.82929V14.9672C9.90156 14.8337 10.6613 14.3163 11.0061 13.8461C11.4637 13.2221 11.5 12.338 11.5 11L11.4999 10.8721C11.4986 9.72152 11.4969 8.17686 12.3811 6.97114C12.9676 6.17131 13.8497 5.62056 15.0801 5.30859C15.3923 3.98505 16.5811 3 18 3C19.6569 3 21 4.34315 21 6C21 7.65685 19.6569 9 18 9C16.8174 9 15.7947 8.31576 15.306 7.3216C14.5877 7.54714 14.2096 7.85975 13.9939 8.15386C13.5363 8.77786 13.5 9.66199 13.5 11L13.5001 11.1279C13.5014 12.2785 13.5031 13.8231 12.6189 15.0289C11.9093 15.9966 10.767 16.5997 9.09877 16.8564C9.6549 17.4009 10 18.1602 10 19C10 20.6569 8.65685 22 7 22C5.34315 22 4 20.6569 4 19C4 17.6938 4.83481 16.5825 6 16.1707V8.82929C4.83481 8.41746 4 7.30622 4 6C4 4.34315 5.34315 3 7 3C8.65685 3 10 4.34315 10 6Z" />
</svg>
