<svg width="24" height="24" viewBox="0 0 24 24" xmlns="http://www.w3.org/2000/svg">
	<path fill-rule="evenodd" clip-rule="evenodd" d="M12 2C6.48 2 2 6.48 2 12C2 17.52 6.48 22 12 22C17.52 22 22 17.52 22 12C22 6.48 17.52 2 12 2ZM16.54 15.85L15.85 16.54C15.46 16.93 14.83 16.93 14.44 16.54L11.39 13.49C10.17 13.92 8.75 13.66 7.77 12.68C6.66 11.57 6.47 9.89 7.18 8.58L9.53 10.93L10.94 9.52L8.58 7.17C9.9 6.46 11.57 6.65 12.68 7.76C13.66 8.74 13.92 10.16 13.49 11.38L16.54 14.43C16.93 14.82 16.93 15.46 16.54 15.85Z" />
</svg>
