<svg width="24" height="24" viewBox="0 0 24 24" xmlns="http://www.w3.org/2000/svg">
	<path d="M21.27 10.8999C20.06 10.5699 18.96 9.4399 18.98 8.0099C18.99 7.4499 18.58 6.9899 18.02 6.9999C15.83 7.0299 14 5.2199 14 3.0199C14 2.5299 13.65 2.1199 13.16 2.0599C6.53 1.2199 2 6.8099 2 11.9999C2 17.5199 6.48 21.9999 12 21.9999C17.61 21.9999 22.11 17.3799 22 11.8199C21.99 11.3799 21.69 11.0099 21.27 10.8999ZM8.5 14.9999C7.67 14.9999 7 14.3299 7 13.4999C7 12.6699 7.67 11.9999 8.5 11.9999C9.33 11.9999 10 12.6699 10 13.4999C10 14.3299 9.33 14.9999 8.5 14.9999ZM10.5 9.9999C9.67 9.9999 9 9.3299 9 8.4999C9 7.6699 9.67 6.9999 10.5 6.9999C11.33 6.9999 12 7.6699 12 8.4999C12 9.3299 11.33 9.9999 10.5 9.9999ZM15 15.9999C14.45 15.9999 14 15.5499 14 14.9999C14 14.4499 14.45 13.9999 15 13.9999C15.55 13.9999 16 14.4499 16 14.9999C16 15.5499 15.55 15.9999 15 15.9999Z"/>
</svg>
