<svg width="24" height="24" viewBox="0 0 24 24" xmlns="http://www.w3.org/2000/svg">
	<path d="M9.63999 7.63992C9.92999 7.01992 10.06 6.30992 9.97999 5.54992C9.78999 3.81992 8.43999 2.34992 6.71999 2.05992C3.94999 1.57992 1.57999 3.94992 2.05999 6.70992C2.35999 8.42992 3.81999 9.77992 5.54999 9.96992C6.30999 10.0499 7.00999 9.91992 7.63999 9.62992L9.99999 11.9999L7.63999 14.3599C7.01999 14.0699 6.30999 13.9399 5.54999 14.0199C3.81999 14.2099 2.34999 15.5599 2.05999 17.2799C1.57999 20.0499 3.94999 22.4099 6.70999 21.9299C8.42999 21.6299 9.77999 20.1699 9.96999 18.4399C10.05 17.6799 9.91999 16.9799 9.62999 16.3499L12 13.9999L19.59 21.5899C20.48 22.4799 22 21.8499 22 20.5899V20.5799C22 20.2099 21.85 19.8499 21.59 19.5799L9.63999 7.63992ZM5.99999 7.99992C4.89999 7.99992 3.99999 7.10992 3.99999 5.99992C3.99999 4.88992 4.89999 3.99992 5.99999 3.99992C7.09999 3.99992 7.99999 4.88992 7.99999 5.99992C7.99999 7.10992 7.09999 7.99992 5.99999 7.99992ZM5.99999 19.9999C4.89999 19.9999 3.99999 19.1099 3.99999 17.9999C3.99999 16.8899 4.89999 15.9999 5.99999 15.9999C7.09999 15.9999 7.99999 16.8899 7.99999 17.9999C7.99999 19.1099 7.09999 19.9999 5.99999 19.9999ZM12 12.4999C11.72 12.4999 11.5 12.2799 11.5 11.9999C11.5 11.7199 11.72 11.4999 12 11.4999C12.28 11.4999 12.5 11.7199 12.5 11.9999C12.5 12.2799 12.28 12.4999 12 12.4999ZM19.59 2.40992L13 8.99992L15 10.9999L21.59 4.40992C21.85 4.14992 22 3.78992 22 3.40992V3.39992C22 2.14992 20.48 1.51992 19.59 2.40992Z" />
</svg>
