<svg width="24" height="24" viewBox="0 0 24 24" xmlns="http://www.w3.org/2000/svg">
	<path d="M10 13H20C20.55 13 21 12.55 21 12C21 11.45 20.55 11 20 11H10C9.45 11 9 11.45 9 12C9 12.55 9.45 13 10 13ZM7 17H13C13.55 17 14 16.55 14 16C14 15.45 13.55 15 13 15H7C6.45 15 6 15.45 6 16C6 16.55 6.45 17 7 17ZM3 8C3 8.55 3.45 9 4 9H16C16.55 9 17 8.55 17 8C17 7.45 16.55 7 16 7H4C3.45 7 3 7.45 3 8Z" />
	<path d="M18.21 9.20997C18.21 8.87247 18.5133 8.66607 18.796 8.71388C18.8902 8.72982 18.9821 8.77315 19.0596 8.85065L21.8506 11.6417C22.0506 11.8417 22.0506 12.1506 21.8506 12.3506L19.0596 15.1416C18.7496 15.4616 18.21 15.2401 18.21 14.7901V12.001V9.20997Z" />
</svg>
