<svg width="24" height="24" viewBox="0 0 24 24" xmlns="http://www.w3.org/2000/svg">
	<path d="M14 13H4C3.45 13 3 12.55 3 12C3 11.45 3.45 11 4 11H14C14.55 11 15 11.45 15 12C15 12.55 14.55 13 14 13ZM17 17H11C10.45 17 10 16.55 10 16C10 15.45 10.45 15 11 15H17C17.55 15 18 15.45 18 16C18 16.55 17.55 17 17 17ZM21 8C21 8.55 20.55 9 20 9H8C7.45 9 7 8.55 7 8C7 7.45 7.45 7 8 7H20C20.55 7 21 7.45 21 8Z" />
	<path d="M5.78876 9.20997C5.78876 8.87247 5.48548 8.66607 5.20282 8.71388C5.1086 8.72982 5.01665 8.77315 4.93915 8.85065L2.14815 11.6417C1.94815 11.8417 1.94815 12.1506 2.14815 12.3506L4.93915 15.1416C5.24915 15.4616 5.78876 15.2401 5.78876 14.7901V12.001V9.20997Z" />
</svg>
