<svg width="24" height="24" viewBox="0 0 24 24" xmlns="http://www.w3.org/2000/svg">
	<path
		d="M6.11885 4.05461C5.72833 3.66409 5.09516 3.66409 4.70464 4.05461C4.31411 4.44513 4.31411 5.0783 4.70463 5.46882L6.2358 7H4C3.45 7 3 7.45 3 8C3 8.55 3.45 9 4 9H8.2358L10.2358 11H10C9.45 11 9 11.45 9 12C9 12.55 9.45 13 10 13H12.2358L19.271 20.0352C19.6615 20.4258 20.2947 20.4258 20.6852 20.0352C21.0757 19.6447 21.0757 19.0115 20.6852 18.621L6.11885 4.05461Z" />
	<path d="M20 11H15.8925L17.8924 13H20C20.55 13 21 12.55 21 12C21 11.45 20.55 11 20 11Z" />
	<path d="M16 7H11.8925L13.8925 9H16C16.55 9 17 8.55 17 8C17 7.45 16.55 7 16 7Z" />
	<path d="M13 17C13.55 17 14 16.55 14 16C14 15.45 13.55 15 13 15H7C6.45 15 6 15.45 6 16C6 16.55 6.45 17 7 17H13Z" />
</svg>
