<svg width="24" height="24" viewBox="0 0 24 24" xmlns="http://www.w3.org/2000/svg">
	<path d="M3 18C2.71667 18 2.47933 17.904 2.288 17.712C2.096 17.5207 2 17.2833 2 17C2 16.7167 2.096 16.4793 2.288 16.288C2.47933 16.096 2.71667 16 3 16H21C21.2833 16 21.5207 16.096 21.712 16.288C21.904 16.4793 22 16.7167 22 17C22 17.2833 21.904 17.5207 21.712 17.712C21.5207 17.904 21.2833 18 21 18H3ZM3 13C2.71667 13 2.47933 12.904 2.288 12.712C2.096 12.5207 2 12.2833 2 12C2 11.7167 2.096 11.479 2.288 11.287C2.47933 11.0957 2.71667 11 3 11H21C21.2833 11 21.5207 11.0957 21.712 11.287C21.904 11.479 22 11.7167 22 12C22 12.2833 21.904 12.5207 21.712 12.712C21.5207 12.904 21.2833 13 21 13H3ZM3 8C2.71667 8 2.47933 7.90433 2.288 7.713C2.096 7.521 2 7.28333 2 7C2 6.71667 2.096 6.479 2.288 6.287C2.47933 6.09567 2.71667 6 3 6H21C21.2833 6 21.5207 6.09567 21.712 6.287C21.904 6.479 22 6.71667 22 7C22 7.28333 21.904 7.521 21.712 7.713C21.5207 7.90433 21.2833 8 21 8H3Z" />
</svg>
