<svg width="24" height="24" viewBox="0 0 24 24" xmlns="http://www.w3.org/2000/svg">
	<path d="M16.14 8.66615C19.9288 8.77117 23.0922 11.9345 23.1972 15.7233C23.3102 19.833 20.0079 23.2 15.9303 23.2C14.2434 23.2 12.7006 22.6268 11.4731 21.658C11.0042 21.2977 10.9813 20.5991 11.3917 20.1888C11.7467 19.8338 12.2997 19.8052 12.6921 20.1093L12.6934 20.1103C13.5857 20.8136 14.7123 21.2295 15.9303 21.2295C18.881 21.2295 21.2647 18.816 21.2269 15.8571C21.189 13.0445 18.8188 10.6743 16.0062 10.6365C13.1069 10.5995 10.7433 12.8752 10.6375 15.733H11.8393C12.369 15.733 12.6341 16.371 12.2636 16.7418L10.0729 18.9402C9.83778 19.1754 9.46748 19.1756 9.23233 18.9405L7.04246 16.7428C6.66188 16.3719 6.92852 15.733 7.45782 15.733H8.66606C8.774 11.748 12.0977 8.55497 16.14 8.66615Z"/>
	<path d="M15.427 17.1175C15.1322 16.9406 14.9451 16.617 14.9451 16.2707V13.3811C14.9451 12.9487 15.3016 12.5922 15.734 12.5922C16.1647 12.5922 16.5229 12.9469 16.5229 13.3732V15.9291L18.6865 17.2137C19.0556 17.4352 19.1811 17.9184 18.9613 18.2952L18.96 18.2974C18.7385 18.6665 18.2557 18.7912 17.879 18.5714L17.8777 18.5706L15.427 17.1175Z"/>
	<path d="M4 19C2.9 19 2 18.1 2 17V7C2 5.9 2.9 5 4 5H12C13.1 5 14 5.9 14 7V7.07028C10.5562 7.81924 7.84157 10.5258 7.07867 13.9615C5.2191 14.2462 4.32995 16.5965 5.77469 18.0206L6.75063 19H4Z"/>
	<path d="M11.5 2H14C14.55 2 15 2.45 15 3C15 3.55 14.55 4 14 4H2C1.45 4 1 3.55 1 3C1 2.45 1.45 2 2 2H4.5L5.21 1.29C5.39 1.11 5.65 1 5.91 1H10.09C10.35 1 10.61 1.11 10.79 1.29L11.5 2Z"/>
</svg>
