<svg width="24" height="24" viewBox="0 0 24 24" xmlns="http://www.w3.org/2000/svg">
	<path d="M16.24 11.5102L17.81 9.94017L14.06 6.19017L12.49 7.76017L8.35 3.63017C7.57 2.85017 6.3 2.85017 5.52 3.63017L3.62 5.53017C2.84 6.31017 2.84 7.58017 3.62 8.36017L7.75 12.4902L3.15 17.1002C3.05 17.2002 3 17.3202 3 17.4602V20.5002C3 20.7802 3.22 21.0002 3.5 21.0002H6.54C6.67 21.0002 6.8 20.9502 6.89 20.8502L11.51 16.2302L15.64 20.3602C16.96 21.6802 18.4 20.4302 18.47 20.3602L20.37 18.4602C21.15 17.6802 21.15 16.4102 20.37 15.6302L16.24 11.5102ZM9.18 11.0702L5.04 6.94017L6.93 5.04017L8.2 6.31017L7.73 6.80017C7.34 7.19017 7.34 7.82017 7.73 8.21017C8.12 8.60017 8.75 8.60017 9.14 8.21017L9.62 7.73017L11.07 9.18017L9.18 11.0702ZM17.06 18.9602L12.93 14.8302L14.83 12.9302L16.28 14.3802L15.8 14.8602C15.41 15.2502 15.41 15.8802 15.8 16.2702C16.19 16.6602 16.82 16.6602 17.21 16.2702L17.69 15.7902L18.96 17.0602L17.06 18.9602Z" />
	<path d="M20.71 7.04011C21.1 6.65011 21.1 6.02011 20.71 5.63011L18.37 3.29011C17.9 2.82011 17.25 3.00011 16.96 3.29011L15.13 5.12011L18.88 8.87011L20.71 7.04011Z" />
</svg>
