<svg width="24" height="24" viewBox="0 0 24 24" xmlns="http://www.w3.org/2000/svg">
	<path d="M11.5 22C17.2996 22 22 17.2996 22 11.5C22 5.70039 17.2996 1 11.5 1C5.70039 1 1 5.70039 1 11.5C1 17.2996 5.70039 22 11.5 22ZM9.85938 14.7812H10.8438V12.1562H9.85938C9.31387 12.1562 8.875 11.7174 8.875 11.1719C8.875 10.6264 9.31387 10.1875 9.85938 10.1875H11.8281C12.3736 10.1875 12.8125 10.6264 12.8125 11.1719V14.7812H13.1406C13.6861 14.7812 14.125 15.2201 14.125 15.7656C14.125 16.3111 13.6861 16.75 13.1406 16.75H9.85938C9.31387 16.75 8.875 16.3111 8.875 15.7656C8.875 15.2201 9.31387 14.7812 9.85938 14.7812ZM11.5 8.875C10.774 8.875 10.1875 8.28848 10.1875 7.5625C10.1875 6.83652 10.774 6.25 11.5 6.25C12.226 6.25 12.8125 6.83652 12.8125 7.5625C12.8125 8.28848 12.226 8.875 11.5 8.875Z" />
</svg>
