<svg width="24" height="18" viewBox="0 0 24 18" xmlns="http://www.w3.org/2000/svg">
	<path d="M19.2134 7.28247H3.99951V10.8936H19.2134V7.28247Z" opacity="0.9" />
	<path d="M19.2188 14.3823C13.2367 14.3236 12.7596 13.671 11.9125 11.6189C10.9393 9.26083 8.88865 7.68848 3.99951 7.68848V11.2996C6.42511 11.3653 7.43842 10.8891 9.64882 15.0235C11.1497 17.8309 15.0475 18.0475 19.2188 17.9935V14.3823Z" opacity="0.9" />
	<path d="M19.379 4.41584C13.8778 4.5186 12.8663 6.17181 11.6065 7.93221C10.4126 9.60073 8.88865 10.8938 3.99951 10.8938V7.28263C6.42511 7.21695 8.26693 6.52702 9.77734 4.17868C11.4984 1.50247 15.2077 0.750646 19.379 0.804678V4.41583V4.41584Z" />
	<path d="M3.20706 12.3469C4.8127 12.3469 6.11432 11.0357 6.11432 9.4183C6.11432 7.80091 4.8127 6.48975 3.20706 6.48975C1.60143 6.48975 0.299805 7.80091 0.299805 9.4183C0.299805 11.0357 1.60143 12.3469 3.20706 12.3469Z" />
	<path d="M19.0728 0L23.6998 2.61434L19.0728 5.21261V0Z" />
</svg>
