<svg width="24" height="25" viewBox="0 0 24 24" xmlns="http://www.w3.org/2000/svg">
	<path d="M17.8102 4.74002C17.7302 4.74002 17.6502 4.72002 17.5802 4.68002C15.6602 3.69002 14.0002 3.27002 12.0102 3.27002C10.0302 3.27002 8.15023 3.74002 6.44023 4.68002C6.20023 4.81002 5.90023 4.72002 5.76023 4.48002C5.63023 4.24002 5.72023 3.93002 5.96023 3.80002C7.82023 2.79002 9.86023 2.27002 12.0102 2.27002C14.1402 2.27002 16.0002 2.74002 18.0402 3.79002C18.2902 3.92002 18.3802 4.22002 18.2502 4.46002C18.1602 4.64002 17.9902 4.74002 17.8102 4.74002ZM3.50023 9.99002C3.40023 9.99002 3.30023 9.96002 3.21023 9.90002C2.98023 9.74002 2.93023 9.43002 3.09023 9.20002C4.08023 7.80002 5.34023 6.70002 6.84023 5.93002C9.98023 4.31002 14.0002 4.30002 17.1502 5.92002C18.6502 6.69002 19.9102 7.78002 20.9002 9.17002C21.0602 9.39002 21.0102 9.71002 20.7802 9.87002C20.5502 10.03 20.2402 9.98002 20.0802 9.75002C19.1802 8.49002 18.0402 7.50002 16.6902 6.81002C13.8202 5.34002 10.1502 5.34002 7.29023 6.82002C5.93023 7.52002 4.79023 8.52002 3.89023 9.78002C3.81023 9.92002 3.66023 9.99002 3.50023 9.99002ZM9.75023 22.06C9.62023 22.06 9.49023 22.01 9.40023 21.91C8.53023 21.04 8.06023 20.48 7.39023 19.27C6.70023 18.04 6.34023 16.54 6.34023 14.93C6.34023 11.96 8.88023 9.54002 12.0002 9.54002C15.1202 9.54002 17.6602 11.96 17.6602 14.93C17.6602 15.21 17.4402 15.43 17.1602 15.43C16.8802 15.43 16.6602 15.21 16.6602 14.93C16.6602 12.51 14.5702 10.54 12.0002 10.54C9.43023 10.54 7.34023 12.51 7.34023 14.93C7.34023 16.37 7.66023 17.7 8.27023 18.78C8.91023 19.93 9.35023 20.42 10.1202 21.2C10.3102 21.4 10.3102 21.71 10.1202 21.91C10.0102 22.01 9.88023 22.06 9.75023 22.06ZM16.9202 20.21C15.7302 20.21 14.6802 19.91 13.8202 19.32C12.3302 18.31 11.4402 16.67 11.4402 14.93C11.4402 14.65 11.6602 14.43 11.9402 14.43C12.2202 14.43 12.4402 14.65 12.4402 14.93C12.4402 16.34 13.1602 17.67 14.3802 18.49C15.0902 18.97 15.9202 19.2 16.9202 19.2C17.1602 19.2 17.5602 19.17 17.9602 19.1C18.2302 19.05 18.4902 19.23 18.5402 19.51C18.5902 19.78 18.4102 20.04 18.1302 20.09C17.5602 20.2 17.0602 20.21 16.9202 20.21ZM14.9102 22.27C14.8702 22.27 14.8202 22.26 14.7802 22.25C13.1902 21.81 12.1502 21.22 11.0602 20.15C9.66023 18.76 8.89023 16.91 8.89023 14.93C8.89023 13.31 10.2702 11.99 11.9702 11.99C13.6702 11.99 15.0502 13.31 15.0502 14.93C15.0502 16 15.9802 16.87 17.1302 16.87C18.2802 16.87 19.2102 16 19.2102 14.93C19.2102 11.16 15.9602 8.10002 11.9602 8.10002C9.12023 8.10002 6.52023 9.68002 5.35023 12.13C4.96023 12.94 4.76023 13.89 4.76023 14.93C4.76023 15.71 4.83023 16.94 5.43023 18.54C5.53023 18.8 5.40023 19.09 5.14023 19.18C4.88023 19.28 4.59023 19.14 4.50023 18.89C4.01023 17.58 3.77023 16.28 3.77023 14.93C3.77023 13.73 4.00023 12.64 4.45023 11.69C5.78023 8.90002 8.73023 7.09002 11.9602 7.09002C16.5102 7.09002 20.2102 10.6 20.2102 14.92C20.2102 16.54 18.8302 17.86 17.1302 17.86C15.4302 17.86 14.0502 16.54 14.0502 14.92C14.0502 13.85 13.1202 12.98 11.9702 12.98C10.8202 12.98 9.89023 13.85 9.89023 14.92C9.89023 16.63 10.5502 18.23 11.7602 19.43C12.7102 20.37 13.6202 20.89 15.0302 21.28C15.3002 21.35 15.4502 21.63 15.3802 21.89C15.3302 22.12 15.1202 22.27 14.9102 22.27Z"/>
</svg>
