<svg width="24" height="24" viewBox="0 0 24 24" xmlns="http://www.w3.org/2000/svg">
	<path d="M15 21H17V19H15V21ZM19 9H21V7H19V9ZM3 5V19C3 20.1 3.9 21 5 21H8C8.55 21 9 20.55 9 20C9 19.45 8.55 19 8 19H6C5.45 19 5 18.55 5 18V6C5 5.45 5.45 5 6 5H8C8.55 5 9 4.55 9 4C9 3.45 8.55 3 8 3H5C3.9 3 3 3.9 3 5ZM19 3V5H21C21 3.9 20.1 3 19 3ZM12 23C12.55 23 13 22.55 13 22V2C13 1.45 12.55 1 12 1C11.45 1 11 1.45 11 2V22C11 22.55 11.45 23 12 23ZM19 17H21V15H19V17ZM15 5H17V3H15V5ZM19 13H21V11H19V13ZM19 21C20.1 21 21 20.1 21 19H19V21Z"/>
</svg>
