<svg width="24" height="24" viewBox="0 0 24 24" xmlns="http://www.w3.org/2000/svg">
	<path d="M3 15L3 17L5 17L5 15L3 15ZM15 19L15 21L17 21L17 19L15 19ZM19 3L5 3C3.9 3 3 3.9 3 5L3 8C3 8.55 3.45 9 4 9C4.55 9 5 8.55 5 8L5 6C5 5.45 5.45 5 6 5L18 5C18.55 5 19 5.45 19 6L19 8C19 8.55 19.45 9 20 9C20.55 9 21 8.55 21 8L21 5C21 3.9 20.1 3 19 3ZM21 19L19 19L19 21C20.1 21 21 20.1 21 19ZM1 12C1 12.55 1.45 13 2 13L22 13C22.55 13 23 12.55 23 12C23 11.45 22.55 11 22 11L2 11C1.45 11 1 11.45 1 12ZM7 19L7 21L9 21L9 19L7 19ZM19 15L19 17L21 17L21 15L19 15ZM11 19L11 21L13 21L13 19L11 19ZM3 19C3 20.1 3.9 21 5 21L5 19L3 19Z"/>
</svg>
