<svg width="24" height="24" viewBox="0 0 24 24" xmlns="http://www.w3.org/2000/svg">
	<path d="M6 14C5.45 14 5 14.45 5 15V18C5 18.55 5.45 19 6 19H9C9.55 19 10 18.55 10 18C10 17.45 9.55 17 9 17H7V15C7 14.45 6.55 14 6 14ZM6 10C6.55 10 7 9.55 7 9V7H9C9.55 7 10 6.55 10 6C10 5.45 9.55 5 9 5H6C5.45 5 5 5.45 5 6V9C5 9.55 5.45 10 6 10ZM17 17H15C14.45 17 14 17.45 14 18C14 18.55 14.45 19 15 19H18C18.55 19 19 18.55 19 18V15C19 14.45 18.55 14 18 14C17.45 14 17 14.45 17 15V17ZM14 6C14 6.55 14.45 7 15 7H17V9C17 9.55 17.45 10 18 10C18.55 10 19 9.55 19 9V6C19 5.45 18.55 5 18 5H15C14.45 5 14 5.45 14 6Z" />
</svg>
