<svg width="24" height="24" viewBox="0 0 24 24" xmlns="http://www.w3.org/2000/svg">
	<path d="M18 13C17.45 13 17 13.45 17 14V15H15C14.45 15 14 15.45 14 16C14 16.55 14.45 17 15 17H18C18.55 17 19 16.55 19 16V14C19 13.45 18.55 13 18 13Z" />
	<path d="M7 9H9C9.55 9 10 8.55 10 8C10 7.45 9.55 7 9 7H6C5.45 7 5 7.45 5 8V10C5 10.55 5.45 11 6 11C6.55 11 7 10.55 7 10V9Z" />
	<path d="M9 15H7V14C7 13.45 6.55 13 6 13C5.45 13 5 13.45 5 14V16C5 16.55 5.45 17 6 17H9C9.55 17 10 16.55 10 16C10 15.45 9.55 15 9 15Z" />
	<path d="M17 9H15C14.45 9 14 8.55 14 8C14 7.45 14.45 7 15 7H18C18.55 7 19 7.45 19 8V10C19 10.55 18.55 11 18 11C17.45 11 17 10.55 17 10V9Z" />
	<path fill-rule="evenodd" clip-rule="evenodd" d="M21 3H3C1.9 3 1 3.9 1 5V19C1 20.1 1.9 21 3 21H21C22.1 21 23 20.1 23 19V5C23 3.9 22.1 3 21 3ZM20 19.01H4C3.45 19.01 3 18.56 3 18.01V5.99C3 5.44 3.45 4.99 4 4.99H20C20.55 4.99 21 5.44 21 5.99V18.01C21 18.56 20.55 19.01 20 19.01Z" />
</svg>
