<svg width="24" height="24" viewBox="0 0 24 24" xmlns="http://www.w3.org/2000/svg">
	<path d="M19.2185 5.36612C19.2185 5.64111 19.1643 5.89945 19.0559 6.14111C18.9559 6.38278 18.8143 6.59112 18.6309 6.76612C18.4476 6.94111 18.2351 7.08278 17.9934 7.19112C17.7601 7.29112 17.5059 7.34112 17.2309 7.34112C16.9559 7.34112 16.6976 7.29112 16.4559 7.19112C16.2226 7.08278 16.0143 6.94111 15.8309 6.76612C15.6559 6.58278 15.5142 6.37445 15.406 6.14111C15.3059 5.89945 15.2559 5.64111 15.2559 5.36612C15.2559 5.09112 15.3059 4.83695 15.406 4.60361C15.5142 4.36194 15.6559 4.15361 15.8309 3.97861C16.0143 3.79527 16.2226 3.65361 16.4559 3.55361C16.6976 3.44528 16.9559 3.39111 17.2309 3.39111C17.5059 3.39111 17.7601 3.44528 17.9934 3.55361C18.2351 3.65361 18.4476 3.79111 18.6309 3.96611C18.8143 4.14111 18.9559 4.34944 19.0559 4.59112C19.1643 4.83278 19.2185 5.09112 19.2185 5.36612ZM22.0684 12.6161C22.0684 12.8411 21.9934 13.0287 21.8434 13.1786C21.6934 13.3286 21.5059 13.4036 21.281 13.4036C21.1059 13.4036 20.9518 13.3578 20.8185 13.2661C20.6934 13.1662 20.5975 13.037 20.5309 12.8786C20.4893 12.7703 20.4559 12.6536 20.4309 12.5286C20.4059 12.4036 20.3767 12.2869 20.3435 12.1786C20.2434 11.8036 20.1476 11.437 20.0559 11.0786C19.9643 10.712 19.8601 10.3453 19.7435 9.97864C19.7184 9.90365 19.6726 9.83698 19.6059 9.77864C19.5476 9.72029 19.4725 9.69117 19.3809 9.69117C19.2726 9.69117 19.1809 9.72861 19.1059 9.8036C19.0309 9.87858 18.9934 9.97032 18.9934 10.0786C18.9934 10.1286 18.9975 10.162 19.006 10.1786C19.0309 10.2703 19.081 10.4619 19.1559 10.7537C19.2393 11.037 19.335 11.3703 19.4434 11.7536C19.5518 12.1369 19.6601 12.5411 19.7684 12.9662C19.8851 13.3911 19.9934 13.787 20.0934 14.1536C20.1934 14.5203 20.2725 14.8328 20.3309 15.0912C20.3975 15.3411 20.4309 15.4828 20.4309 15.5161C20.4309 15.7161 20.3684 15.8453 20.2434 15.9037C20.1184 15.962 19.9809 15.9953 19.8309 16.0036C19.681 16.0036 19.5435 16.0036 19.4185 16.0036C19.2934 15.9953 19.2309 16.0287 19.2309 16.1037V19.9411C19.2309 20.1745 19.1476 20.3662 18.9809 20.5162C18.8226 20.6661 18.6309 20.7411 18.4059 20.7411C18.1892 20.7411 18.0101 20.6578 17.8684 20.4912C17.7267 20.3162 17.6559 20.1286 17.6559 19.9286V16.3911C17.6559 16.2828 17.6143 16.1911 17.5309 16.1161C17.4559 16.0412 17.3643 16.0036 17.2559 16.0036C17.1476 16.0036 17.0517 16.0412 16.9684 16.1161C16.8934 16.1911 16.8559 16.2828 16.8559 16.3911V19.9411C16.8559 20.1745 16.7726 20.3662 16.606 20.5162C16.4476 20.6661 16.2559 20.7411 16.0309 20.7411C15.8143 20.7411 15.6351 20.6578 15.4934 20.4912C15.3518 20.3162 15.281 20.1286 15.281 19.9286V16.1037C15.281 16.0453 15.2476 16.0161 15.1809 16.0161C15.081 16.0161 14.9684 16.0202 14.8434 16.0287C14.7267 16.0287 14.6143 16.0202 14.5059 16.0036C14.4059 15.9786 14.3184 15.9328 14.2434 15.8661C14.1684 15.7911 14.1309 15.6786 14.1309 15.5286C14.1309 15.4953 14.1601 15.3536 14.2185 15.1037C14.2851 14.8453 14.3684 14.5328 14.4684 14.1662C14.5684 13.7994 14.6725 13.4036 14.7809 12.9786C14.8976 12.5453 15.0101 12.1369 15.1184 11.7536C15.2268 11.3703 15.3184 11.037 15.3934 10.7537C15.4768 10.4619 15.5309 10.2703 15.5559 10.1786C15.5643 10.1536 15.5684 10.1203 15.5684 10.0786C15.5684 9.97864 15.5309 9.89117 15.4559 9.81608C15.3892 9.73277 15.3018 9.69117 15.1934 9.69117C15.1018 9.69117 15.0226 9.72029 14.9559 9.77864C14.8893 9.82866 14.8434 9.89533 14.8185 9.97864C14.7018 10.3286 14.5975 10.6869 14.5059 11.0536C14.4226 11.4119 14.3309 11.7703 14.2309 12.1286C14.1975 12.2453 14.1643 12.3703 14.1309 12.5037C14.1059 12.637 14.0726 12.762 14.0309 12.8786C13.9643 13.037 13.8642 13.1662 13.7309 13.2661C13.5975 13.3578 13.4476 13.4036 13.281 13.4036C13.0559 13.4036 12.8684 13.3286 12.7184 13.1786C12.5684 13.0203 12.4934 12.8328 12.4934 12.6161C12.4934 12.5662 12.4976 12.5203 12.5059 12.4786C12.5142 12.4287 12.5267 12.3828 12.5435 12.3411L13.4185 9.11613C13.4601 8.95783 13.5309 8.81607 13.6309 8.69117C13.7392 8.55783 13.8601 8.4453 13.9934 8.35367C14.135 8.26194 14.2851 8.19112 14.4434 8.14112C14.6017 8.09112 14.7559 8.06612 14.9059 8.06612H19.6559C19.806 8.06612 19.9601 8.09112 20.1184 8.14112C20.2768 8.19112 20.4226 8.2661 20.5559 8.36615C20.6976 8.45778 20.8185 8.57031 20.9184 8.70365C21.0268 8.82866 21.1018 8.96615 21.1435 9.11613L22.0185 12.3411C22.0351 12.3828 22.0476 12.4287 22.0559 12.4786C22.0642 12.5203 22.0684 12.5662 22.0684 12.6161ZM8.78507 8.06612C9.01845 8.06612 9.24341 8.11196 9.46005 8.20361C9.6768 8.29533 9.86837 8.4245 10.0351 8.59111C10.2017 8.74941 10.3309 8.93693 10.4226 9.15367C10.5226 9.36199 10.5726 9.58695 10.5726 9.82866V13.0536C10.5726 13.2536 10.4976 13.4411 10.3476 13.6161C10.206 13.7828 10.0268 13.8661 9.81013 13.8661C9.58507 13.8661 9.38923 13.7953 9.22261 13.6536C9.06421 13.5037 8.98507 13.312 8.98507 13.0786V10.3161C8.98507 10.2078 8.94763 10.1161 8.87264 10.0411C8.79755 9.95784 8.70592 9.91613 8.59759 9.91613C8.48926 9.91613 8.39342 9.95784 8.31009 10.0411C8.23508 10.1161 8.19759 10.2078 8.19759 10.3161V19.9411C8.19759 20.1745 8.11425 20.3662 7.94759 20.5162C7.78925 20.6661 7.59759 20.7411 7.37259 20.7411C7.15593 20.7411 6.97259 20.6578 6.82259 20.4912C6.68092 20.3245 6.61009 20.1369 6.61009 19.9286V14.7411C6.61009 14.6328 6.57259 14.5411 6.49759 14.4661C6.42259 14.3828 6.33092 14.3411 6.22259 14.3411C6.11425 14.3411 6.01842 14.3828 5.93508 14.4661C5.86009 14.5411 5.82259 14.6328 5.82259 14.7411V19.9537C5.82259 20.1536 5.74759 20.337 5.59759 20.5037C5.45592 20.662 5.28092 20.7411 5.07259 20.7411C4.83926 20.7411 4.64343 20.6703 4.48509 20.5286C4.32675 20.3787 4.24759 20.1828 4.24759 19.9411V10.3161C4.24759 10.2078 4.20592 10.1161 4.12258 10.0411C4.04759 9.95784 3.95593 9.91613 3.84759 9.91613C3.73926 9.91613 3.64343 9.95784 3.56009 10.0411C3.48509 10.1161 3.44759 10.2078 3.44759 10.3161V13.0786C3.44759 13.312 3.36426 13.5037 3.19759 13.6536C3.03926 13.7953 2.84759 13.8661 2.62259 13.8661C2.40592 13.8661 2.22675 13.7828 2.08509 13.6161C1.94343 13.4411 1.87259 13.2536 1.87259 13.0536V9.82866C1.87259 9.58695 1.91842 9.35783 2.01009 9.14109C2.10175 8.92445 2.22675 8.73693 2.38509 8.57863C2.54343 8.42023 2.73093 8.29533 2.94759 8.20361C3.16426 8.11196 3.39342 8.06612 3.63508 8.06612H8.78507ZM6.16009 7.34112C5.88509 7.34112 5.62675 7.29112 5.38509 7.19112C5.15176 7.08278 4.94343 6.94111 4.76009 6.76612C4.58509 6.58278 4.44343 6.37445 4.33508 6.14111C4.23508 5.89945 4.18509 5.64111 4.18509 5.36612C4.18509 5.09112 4.23508 4.83695 4.33508 4.60361C4.44343 4.36194 4.58509 4.15361 4.76009 3.97861C4.94343 3.79527 5.15176 3.65361 5.38509 3.55361C5.62675 3.44528 5.88509 3.39111 6.16009 3.39111C6.43508 3.39111 6.68926 3.44528 6.92258 3.55361C7.16426 3.65361 7.37676 3.79111 7.56009 3.96611C7.74343 4.14111 7.88509 4.34944 7.98509 4.59112C8.09342 4.83278 8.14758 5.09112 8.14758 5.36612C8.14758 5.64111 8.09342 5.89945 7.98509 6.14111C7.88509 6.38278 7.74343 6.59112 7.56009 6.76612C7.37676 6.94111 7.16426 7.08278 6.92258 7.19112C6.68926 7.29112 6.43508 7.34112 6.16009 7.34112Z"/>
</svg>
