<svg width="24" height="25" viewBox="0 0 24 25" xmlns="http://www.w3.org/2000/svg">
	<path d="M4.5 11.7504H7.5C8.05 11.7504 8.5 11.3004 8.5 10.7504V6.75043C8.5 6.20043 8.05 5.75043 7.5 5.75043H4.5C3.95 5.75043 3.5 6.20043 3.5 6.75043V10.7504C3.5 11.3004 3.95 11.7504 4.5 11.7504ZM4.5 18.7504H7.5C8.05 18.7504 8.5 18.3004 8.5 17.7504V13.7504C8.5 13.2004 8.05 12.7504 7.5 12.7504H4.5C3.95 12.7504 3.5 13.2004 3.5 13.7504V17.7504C3.5 18.3004 3.95 18.7504 4.5 18.7504ZM10.5 18.7504H13.5C14.05 18.7504 14.5 18.3004 14.5 17.7504V13.7504C14.5 13.2004 14.05 12.7504 13.5 12.7504H10.5C9.95 12.7504 9.5 13.2004 9.5 13.7504V17.7504C9.5 18.3004 9.95 18.7504 10.5 18.7504ZM16.5 18.7504H19.5C20.05 18.7504 20.5 18.3004 20.5 17.7504V13.7504C20.5 13.2004 20.05 12.7504 19.5 12.7504H16.5C15.95 12.7504 15.5 13.2004 15.5 13.7504V17.7504C15.5 18.3004 15.95 18.7504 16.5 18.7504ZM10.5 11.7504H13.5C14.05 11.7504 14.5 11.3004 14.5 10.7504V6.75043C14.5 6.20043 14.05 5.75043 13.5 5.75043H10.5C9.95 5.75043 9.5 6.20043 9.5 6.75043V10.7504C9.5 11.3004 9.95 11.7504 10.5 11.7504ZM15.5 6.75043V10.7504C15.5 11.3004 15.95 11.7504 16.5 11.7504H19.5C20.05 11.7504 20.5 11.3004 20.5 10.7504V6.75043C20.5 6.20043 20.05 5.75043 19.5 5.75043H16.5C15.95 5.75043 15.5 6.20043 15.5 6.75043Z" />
</svg>
