<svg width="24" height="24" viewBox="0 0 24 24" xmlns="http://www.w3.org/2000/svg">
	<path d="M7.375 20.666C6.98633 20.666 6.66 20.5343 6.396 20.271C6.132 20.007 6 19.6803 6 19.291V5.375C6 4.98567 6.132 4.65933 6.396 4.396C6.66 4.132 6.98633 4 7.375 4C7.79167 4 8.132 4.132 8.396 4.396C8.66 4.65933 8.792 4.98567 8.792 5.375V10.958H16V5.375C16 4.98567 16.132 4.65933 16.396 4.396C16.66 4.132 16.9863 4 17.375 4C17.7917 4 18.132 4.132 18.396 4.396C18.66 4.65933 18.792 4.98567 18.792 5.375V19.291C18.792 19.6803 18.653 20.007 18.375 20.271C18.0977 20.5343 17.7643 20.666 17.375 20.666C16.9863 20.666 16.66 20.5343 16.396 20.271C16.132 20.007 16 19.6803 16 19.291V13.708H8.792V19.291C8.792 19.6803 8.653 20.007 8.375 20.271C8.09767 20.5343 7.76433 20.666 7.375 20.666Z" />
</svg>
