<svg width="25" height="24" viewBox="0 0 25 24" fill="none" xmlns="http://www.w3.org/2000/svg">
<g clip-path="url(#clip0_287_636)">
<path d="M10.0287 6.5C10.0287 7.33 10.6987 8 11.5287 8H12.2387L8.81875 16H7.52875C6.69875 16 6.02875 16.67 6.02875 17.5C6.02875 18.33 6.69875 19 7.52875 19H12.5287C13.3587 19 14.0287 18.33 14.0287 17.5C14.0287 16.67 13.3587 16 12.5287 16H11.8187L15.2387 8H16.5287C17.3587 8 18.0287 7.33 18.0287 6.5C18.0287 5.67 17.3587 5 16.5287 5H11.5287C10.6987 5 10.0287 5.67 10.0287 6.5Z" fill="#797173"/>
</g>
<defs>
<clipPath id="clip0_287_636">
<rect width="24" height="24" fill="white" transform="translate(0.0287476)"/>
</clipPath>
</defs>
</svg>
