<svg width="24" height="24" viewBox="0 0 24 24" xmlns="http://www.w3.org/2000/svg">
	<path d="M7.25662 11.9762C7.25662 12.9494 6.46768 13.7383 5.49446 13.7383C4.52125 13.7383 3.7323 12.9494 3.7323 11.9762C3.7323 11.003 4.52125 10.214 5.49446 10.214C6.46768 10.214 7.25662 11.003 7.25662 11.9762Z" />
	<path d="M20.2677 11.9762C20.2677 12.9494 19.4788 13.7383 18.5055 13.7383C17.5323 13.7383 16.7434 12.9494 16.7434 11.9762C16.7434 11.003 17.5323 10.214 18.5055 10.214C19.4788 10.214 20.2677 11.003 20.2677 11.9762Z" />
	<path d="M9.10732 14.4066L9.10628 14.4054C8.72341 13.943 8.55731 13.336 8.55731 12.6353C8.55731 11.9012 8.72134 11.1165 9.03518 10.2854C9.15001 9.98129 9.44099 9.7915 9.75385 9.7915C10.3244 9.7915 10.6724 10.3694 10.4847 10.8656C10.23 11.5391 10.1102 12.136 10.1102 12.6609C10.1102 13.0676 10.1897 13.3134 10.291 13.4546C10.3811 13.5801 10.4919 13.6407 10.6722 13.6407C10.8754 13.6407 10.9799 13.5744 11.0555 13.4606C11.1514 13.3164 11.23 13.0466 11.23 12.5885V11.7317C11.23 11.3052 11.5757 10.9595 12.0022 10.9595C12.4287 10.9595 12.7744 11.3052 12.7744 11.7317V12.5885C12.7744 13.0469 12.8527 13.317 12.9482 13.4613C13.0235 13.5751 13.1269 13.6407 13.3279 13.6407C13.4994 13.6407 13.6088 13.5825 13.7006 13.4546L13.7025 13.4519C13.8051 13.3112 13.8856 13.0665 13.8856 12.6609C13.8856 12.1349 13.7663 11.537 13.5127 10.8624C13.3265 10.3669 13.6743 9.7915 14.2431 9.7915C14.5551 9.7915 14.8453 9.9805 14.9604 10.2834C15.277 11.1171 15.4428 11.9026 15.4428 12.6353C15.4428 13.3386 15.2754 13.947 14.8879 14.4074C14.4935 14.8794 13.9442 15.0998 13.298 15.0998C12.9434 15.0998 12.6134 15.0155 12.3233 14.8337C12.2034 14.7587 12.0945 14.6696 11.9958 14.5681C11.8959 14.6699 11.7859 14.7592 11.6652 14.8343C11.3742 15.0155 11.044 15.0998 10.6893 15.0998C10.0469 15.0998 9.50084 14.8781 9.10732 14.4066Z" />
	<path fill-rule="evenodd" clip-rule="evenodd" d="M3.07176 7.52597C3.39107 7.86657 3.37381 8.40153 3.03322 8.72084C2.19798 9.50388 1.74202 10.723 1.74202 12.0001C1.74202 13.2772 2.19798 14.4962 3.03322 15.2793C3.37381 15.5986 3.39107 16.1336 3.07176 16.4742C2.75245 16.8148 2.21749 16.832 1.87689 16.5127C0.634298 15.3478 0.0513383 13.6449 0.0513382 12.0001C0.0513381 10.3552 0.634298 8.65235 1.87689 7.48743C2.21749 7.16811 2.75245 7.18537 3.07176 7.52597Z" />
	<path fill-rule="evenodd" clip-rule="evenodd" d="M20.9282 7.52597C20.6089 7.86657 20.6262 8.40153 20.9668 8.72084C21.802 9.50388 22.258 10.723 22.258 12.0001C22.258 13.2772 21.802 14.4962 20.9668 15.2793C20.6262 15.5986 20.6089 16.1336 20.9282 16.4742C21.2476 16.8148 21.7825 16.832 22.1231 16.5127C23.3657 15.3478 23.9487 13.6449 23.9487 12.0001C23.9487 10.3552 23.3657 8.65235 22.1231 7.48743C21.7825 7.16811 21.2476 7.18537 20.9282 7.52597Z" />
</svg>