<svg width="37" height="36" viewBox="0 0 37 36" fill="none" xmlns="http://www.w3.org/2000/svg">
<circle cx="11.2596" cy="18.0416" r="1.66465" fill="#797173"/>
<circle cx="24.8415" cy="18.0416" r="1.66465" fill="#797173"/>
<path d="M15.432 20.241L15.4327 20.2418C15.7718 20.6481 16.2428 20.843 16.8125 20.843C17.1232 20.843 17.4071 20.7693 17.6555 20.6147C17.8031 20.5228 17.9333 20.4054 18.0472 20.2653C18.1597 20.4052 18.2887 20.5225 18.4353 20.6144C18.6827 20.7694 18.9662 20.843 19.2769 20.843C19.8507 20.843 20.3247 20.6489 20.6644 20.2422C21.0009 19.8425 21.1537 19.3059 21.1537 18.6642C21.1537 17.9943 21.0021 17.2705 20.7077 16.4954C20.6217 16.2692 20.4045 16.127 20.1696 16.127C19.7435 16.127 19.4777 16.5598 19.6194 16.9368C19.8636 17.5862 19.9812 18.1692 19.9812 18.6883C19.9812 19.0878 19.9025 19.355 19.7796 19.5235L19.7784 19.5251C19.6629 19.6861 19.5139 19.7631 19.305 19.7631C19.0713 19.7631 18.9239 19.6809 18.8219 19.5268C18.708 19.3546 18.6329 19.0646 18.6329 18.6199V17.8105C18.6329 17.49 18.3732 17.2303 18.0527 17.2303C17.7323 17.2303 17.4725 17.49 17.4725 17.8105V18.6199C17.4725 19.0645 17.3972 19.3543 17.2828 19.5264C17.1803 19.6805 17.032 19.7631 16.7964 19.7631C16.5803 19.7631 16.4295 19.6847 16.3149 19.5251C16.1938 19.3563 16.1162 19.0884 16.1162 18.6883C16.1162 18.17 16.2343 17.588 16.4796 16.9395C16.6225 16.5617 16.3564 16.127 15.9288 16.127C15.6932 16.127 15.4753 16.2698 15.3896 16.4969C15.0978 17.2695 14.9478 17.9927 14.9478 18.6642C14.9478 19.3034 15.0992 19.8391 15.432 20.241L15.432 20.241Z" fill="#797173" stroke="#797173" stroke-width="0.5"/>
<path d="M7.64058 13.2682C5.11696 15.6341 5.11696 20.3659 7.64059 22.7318" stroke="#797173" stroke-width="2" stroke-linecap="round"/>
<path d="M28.4605 13.2682C30.9841 15.6341 30.9841 20.3659 28.4605 22.7318" stroke="#797173" stroke-width="2" stroke-linecap="round"/>
</svg>
