<svg width="24" height="24" viewBox="0 0 24 24" xmlns="http://www.w3.org/2000/svg">
	<path d="M20.59 10.0001H12.65C11.7 7.31012 8.89 5.50012 5.77 6.12012C3.48 6.58012 1.62 8.42012 1.14 10.7001C0.320001 14.5801 3.26 18.0001 7 18.0001C9.61 18.0001 11.83 16.3301 12.65 14.0001H13L14.29 15.2901C14.68 15.6801 15.31 15.6801 15.7 15.2901L17 14.0001L18.29 15.2901C18.68 15.6801 19.32 15.6801 19.71 15.2901L22.3 12.6801C22.69 12.2901 22.69 11.6501 22.29 11.2601L21.3 10.2901C21.1 10.1001 20.85 10.0001 20.59 10.0001ZM7 15.0001C5.35 15.0001 4 13.6501 4 12.0001C4 10.3501 5.35 9.00012 7 9.00012C8.65 9.00012 10 10.3501 10 12.0001C10 13.6501 8.65 15.0001 7 15.0001Z"/>
</svg>
