<svg width="24" height="24" viewBox="0 0 24 24" xmlns="http://www.w3.org/2000/svg">
	<path d="M12.6 18.06C12.24 18.34 11.73 18.34 11.37 18.06L5.21999 13.28C4.85999 13 4.35999 13 3.99999 13.28C3.48999 13.68 3.48999 14.45 3.99999 14.85L10.76 20.11C11.48 20.67 12.49 20.67 13.22 20.11L19.98 14.85C20.49 14.45 20.49 13.68 19.98 13.28L19.97 13.27C19.61 12.99 19.11 12.99 18.75 13.27L12.6 18.06ZM13.23 15.04L19.99 9.78002C20.5 9.38002 20.5 8.60002 19.99 8.20002L13.23 2.94002C12.51 2.38002 11.5 2.38002 10.77 2.94002L4.00999 8.21002C3.49999 8.61002 3.49999 9.39002 4.00999 9.79002L10.77 15.05C11.49 15.61 12.51 15.61 13.23 15.04Z" />
</svg>
