<svg width="24" height="24" viewBox="0 0 24 24" xmlns="http://www.w3.org/2000/svg">
	<path d="M17 7H14C13.45 7 13 7.45 13 8C13 8.55 13.45 9 14 9H17C18.65 9 20 10.35 20 12C20 13.65 18.65 15 17 15H14C13.45 15 13 15.45 13 16C13 16.55 13.45 17 14 17H17C19.76 17 22 14.76 22 12C22 9.24 19.76 7 17 7ZM8 12C8 12.55 8.45 13 9 13H15C15.55 13 16 12.55 16 12C16 11.45 15.55 11 15 11H9C8.45 11 8 11.45 8 12ZM10 15H7C5.35 15 4 13.65 4 12C4 10.35 5.35 9 7 9H10C10.55 9 11 8.55 11 8C11 7.45 10.55 7 10 7H7C4.24 7 2 9.24 2 12C2 14.76 4.24 17 7 17H10C10.55 17 11 16.55 11 16C11 15.45 10.55 15 10 15Z" />
</svg>
