<svg width="25" height="24" viewBox="0 0 25 24" xmlns="http://www.w3.org/2000/svg">
	<path d="M8.05057 7H20.0506C20.6006 7 21.0506 6.55 21.0506 6C21.0506 5.45 20.6006 5 20.0506 5H8.05057C7.50057 5 7.05057 5.45 7.05057 6C7.05057 6.55 7.50057 7 8.05057 7ZM20.0506 17H8.05057C7.50057 17 7.05057 17.45 7.05057 18C7.05057 18.55 7.50057 19 8.05057 19H20.0506C20.6006 19 21.0506 18.55 21.0506 18C21.0506 17.45 20.6006 17 20.0506 17ZM20.0506 11H8.05057C7.50057 11 7.05057 11.45 7.05057 12C7.05057 12.55 7.50057 13 8.05057 13H20.0506C20.6006 13 21.0506 12.55 21.0506 12C21.0506 11.45 20.6006 11 20.0506 11ZM4.55057 16H2.55057C2.27057 16 2.05057 16.22 2.05057 16.5C2.05057 16.78 2.27057 17 2.55057 17H4.05057V17.5H3.55057C3.27057 17.5 3.05057 17.72 3.05057 18C3.05057 18.28 3.27057 18.5 3.55057 18.5H4.05057V19H2.55057C2.27057 19 2.05057 19.22 2.05057 19.5C2.05057 19.78 2.27057 20 2.55057 20H4.55057C4.83057 20 5.05057 19.78 5.05057 19.5V16.5C5.05057 16.22 4.83057 16 4.55057 16ZM2.55057 5H3.05057V7.5C3.05057 7.78 3.27057 8 3.55057 8C3.83057 8 4.05057 7.78 4.05057 7.5V4.5C4.05057 4.22 3.83057 4 3.55057 4H2.55057C2.27057 4 2.05057 4.22 2.05057 4.5C2.05057 4.78 2.27057 5 2.55057 5ZM4.55057 10H2.55057C2.27057 10 2.05057 10.22 2.05057 10.5C2.05057 10.78 2.27057 11 2.55057 11H3.85057L2.17057 12.96C2.09057 13.05 2.05057 13.17 2.05057 13.28V13.5C2.05057 13.78 2.27057 14 2.55057 14H4.55057C4.83057 14 5.05057 13.78 5.05057 13.5C5.05057 13.22 4.83057 13 4.55057 13H3.25057L4.93057 11.04C5.01057 10.95 5.05057 10.83 5.05057 10.72V10.5C5.05057 10.22 4.83057 10 4.55057 10Z" />
</svg>
