<svg width="24" height="25" viewBox="0 0 24 25" xmlns="http://www.w3.org/2000/svg">
	<path d="M4 13.2504C4.55 13.2504 5 12.8004 5 12.2504C5 11.7004 4.55 11.2504 4 11.2504C3.45 11.2504 3 11.7004 3 12.2504C3 12.8004 3.45 13.2504 4 13.2504ZM4 17.2504C4.55 17.2504 5 16.8004 5 16.2504C5 15.7004 4.55 15.2504 4 15.2504C3.45 15.2504 3 15.7004 3 16.2504C3 16.8004 3.45 17.2504 4 17.2504ZM4 9.25043C4.55 9.25043 5 8.80043 5 8.25043C5 7.70043 4.55 7.25043 4 7.25043C3.45 7.25043 3 7.70043 3 8.25043C3 8.80043 3.45 9.25043 4 9.25043ZM8 13.2504H20C20.55 13.2504 21 12.8004 21 12.2504C21 11.7004 20.55 11.2504 20 11.2504H8C7.45 11.2504 7 11.7004 7 12.2504C7 12.8004 7.45 13.2504 8 13.2504ZM8 17.2504H20C20.55 17.2504 21 16.8004 21 16.2504C21 15.7004 20.55 15.2504 20 15.2504H8C7.45 15.2504 7 15.7004 7 16.2504C7 16.8004 7.45 17.2504 8 17.2504ZM7 8.25043C7 8.80043 7.45 9.25043 8 9.25043H20C20.55 9.25043 21 8.80043 21 8.25043C21 7.70043 20.55 7.25043 20 7.25043H8C7.45 7.25043 7 7.70043 7 8.25043ZM4 13.2504C4.55 13.2504 5 12.8004 5 12.2504C5 11.7004 4.55 11.2504 4 11.2504C3.45 11.2504 3 11.7004 3 12.2504C3 12.8004 3.45 13.2504 4 13.2504ZM4 17.2504C4.55 17.2504 5 16.8004 5 16.2504C5 15.7004 4.55 15.2504 4 15.2504C3.45 15.2504 3 15.7004 3 16.2504C3 16.8004 3.45 17.2504 4 17.2504ZM4 9.25043C4.55 9.25043 5 8.80043 5 8.25043C5 7.70043 4.55 7.25043 4 7.25043C3.45 7.25043 3 7.70043 3 8.25043C3 8.80043 3.45 9.25043 4 9.25043ZM8 13.2504H20C20.55 13.2504 21 12.8004 21 12.2504C21 11.7004 20.55 11.2504 20 11.2504H8C7.45 11.2504 7 11.7004 7 12.2504C7 12.8004 7.45 13.2504 8 13.2504ZM8 17.2504H20C20.55 17.2504 21 16.8004 21 16.2504C21 15.7004 20.55 15.2504 20 15.2504H8C7.45 15.2504 7 15.7004 7 16.2504C7 16.8004 7.45 17.2504 8 17.2504ZM7 8.25043C7 8.80043 7.45 9.25043 8 9.25043H20C20.55 9.25043 21 8.80043 21 8.25043C21 7.70043 20.55 7.25043 20 7.25043H8C7.45 7.25043 7 7.70043 7 8.25043Z" />
</svg>
