<svg width="24" height="24" viewBox="0 0 24 24" xmlns="http://www.w3.org/2000/svg">
	<path d="M12.0048 0.384033C12.1536 0.554433 12.2928 0.720033 12.4296 0.890433C12.8784 1.44963 13.284 2.04003 13.6464 2.65923C14.0928 3.42003 14.4672 4.22163 14.7648 5.05203C14.7696 5.06403 14.7744 5.07603 14.7792 5.08803C14.8008 5.12403 14.7864 5.14563 14.7504 5.16483C14.6208 5.23923 14.4936 5.31843 14.3664 5.39763C13.3272 6.04563 12.3696 6.81603 11.5152 7.69203C11.2416 7.97283 10.9776 8.26083 10.728 8.56563C10.68 8.62803 10.6128 8.67363 10.5408 8.70003C9.8976 8.93043 9.2712 9.20403 8.664 9.52083C8.5896 9.55683 8.5152 9.60003 8.4408 9.63843C8.4 9.66003 8.388 9.65283 8.3904 9.61203C8.4024 9.37203 8.4072 9.13443 8.4264 8.89443C8.4408 8.70963 8.4576 8.52483 8.4768 8.34243C8.5128 8.00403 8.5632 7.66803 8.6256 7.33443C8.76 6.60483 8.9496 5.88483 9.1944 5.18403C9.5448 4.18323 10.0032 3.22563 10.5624 2.32563C10.9368 1.71843 11.3592 1.14003 11.82 0.595233C11.88 0.525633 11.9328 0.453633 12.0048 0.384033Z" />
	<path d="M1.65121 17.9545C1.70401 17.8129 1.75441 17.6785 1.80481 17.5489C2.04481 16.9369 2.32561 16.3441 2.64481 15.7705C3.01201 15.1129 3.43201 14.4841 3.89761 13.8889C4.06801 13.6729 4.24081 13.4593 4.42561 13.2553C4.47121 13.2049 4.47121 13.2049 4.53361 13.2385C5.21761 13.6153 5.93042 13.9393 6.66482 14.2081C7.22402 14.4121 7.79521 14.5849 8.37361 14.7217C8.77921 14.8177 9.18481 14.8993 9.59761 14.9617C9.63601 14.9665 9.66962 14.9833 9.70082 15.0097C9.94802 15.2137 10.2024 15.4105 10.464 15.6001C10.7688 15.8209 11.0808 16.0273 11.4 16.2265C11.4792 16.2769 11.5584 16.3297 11.652 16.3897C10.6416 16.9393 9.57122 17.3689 8.46241 17.6737C7.35841 17.9785 6.22322 18.1537 5.07841 18.1993C3.92881 18.2473 2.77921 18.1657 1.65121 17.9545Z" />
	<path d="M15.96 10.2671C15.984 10.2623 15.9984 10.2815 16.0176 10.2911C16.6176 10.6511 17.1912 11.0519 17.736 11.4935C18.0552 11.7527 18.3624 12.0263 18.66 12.3095C18.8736 12.5111 19.0776 12.7247 19.2792 12.9383C19.5768 13.2551 19.8576 13.5839 20.1216 13.9271C20.5056 14.4215 20.8584 14.9399 21.1776 15.4799C21.6048 16.2047 21.9696 16.9655 22.2648 17.7527C22.284 17.8031 22.3032 17.8535 22.3224 17.9063C22.3368 17.9495 22.332 17.9591 22.2864 17.9687C22.188 17.9879 22.0896 18.0047 21.9888 18.0191C21.8088 18.0455 21.6288 18.0743 21.4488 18.0959C21.2808 18.1175 21.1128 18.1343 20.9448 18.1487C20.7264 18.1679 20.5056 18.1823 20.2848 18.1967C20.2104 18.2015 20.136 18.1991 20.064 18.2015C19.9224 18.2039 19.7808 18.2111 19.6392 18.2111C19.38 18.2135 19.1208 18.2087 18.864 18.1967C18.5808 18.1823 18.3 18.1607 18.0168 18.1343C17.6064 18.0935 17.1984 18.0359 16.7928 17.9591C16.7448 17.9495 16.7352 17.9303 16.7376 17.8895C16.7448 17.7095 16.728 17.5295 16.7208 17.3519C16.7064 17.0447 16.6824 16.7399 16.6464 16.4327C16.6128 16.1495 16.5744 15.8663 16.5264 15.5855C16.4832 15.3263 16.4304 15.0647 16.3728 14.8103C16.2792 14.3879 16.1616 13.9727 16.0296 13.5599C15.9408 13.2791 15.8448 13.0031 15.732 12.7295C15.7176 12.6935 15.7128 12.6503 15.72 12.6119C15.7752 12.3023 15.8208 11.9903 15.8568 11.6759C15.8832 11.4287 15.9048 11.1839 15.9216 10.9367C15.936 10.7255 15.9408 10.5119 15.9504 10.3007C15.9504 10.2887 15.948 10.2767 15.96 10.2671Z" />
	<path d="M23.076 9.98646C23.0736 9.99366 23.0712 10.0033 23.0664 10.0105C22.9056 10.1761 22.752 10.3489 22.5816 10.5073C22.4544 10.6249 22.332 10.7497 22.2024 10.8673C21.7848 11.2489 21.3456 11.6065 20.8872 11.9401C20.4984 12.2209 20.0976 12.4849 19.6848 12.7273C19.596 12.7801 19.5936 12.7825 19.5264 12.7057C19.3128 12.4729 19.0896 12.2497 18.8616 12.0313C18.4416 11.6305 18 11.2561 17.5368 10.9057C17.0424 10.5313 16.524 10.1881 15.9864 9.87606C15.4728 9.57846 14.9424 9.30966 14.3976 9.07446C13.9248 8.87046 13.4448 8.68806 12.9552 8.52966C12.876 8.50326 12.7944 8.47926 12.7152 8.44806C13.8768 8.20086 15.0648 8.09526 16.2504 8.13366C18.6384 8.20086 20.9784 8.83686 23.076 9.98646Z" />
	<path d="M8.40001 13.2961C8.05681 12.9217 7.73521 12.5305 7.43521 12.1249C6.82561 11.3017 6.30481 10.4161 5.88241 9.48251C5.46721 8.57051 5.15041 7.61771 4.93441 6.63851C4.86721 6.33371 4.80721 6.02651 4.76161 5.71691C4.71601 5.40731 4.68001 5.10251 4.65361 4.79291C4.62481 4.47371 4.61281 4.15211 4.59841 3.83051C4.59361 3.72971 4.59841 3.72971 4.69201 3.74891C5.43361 3.91211 6.16081 4.13051 6.87121 4.40171C7.38001 4.59851 7.87681 4.81931 8.35921 5.06891C8.48401 5.13371 8.60881 5.20091 8.73361 5.27051C8.79601 5.30411 8.79601 5.30411 8.77441 5.36891C8.65441 5.73371 8.55121 6.10331 8.46001 6.47531C8.36401 6.87131 8.28481 7.27211 8.22241 7.67531C8.17921 7.96091 8.14321 8.24651 8.11441 8.53211C8.09521 8.70971 8.08561 8.88971 8.07601 9.06971C8.05921 9.33851 8.05441 9.60731 8.04481 9.87851C8.03521 10.2073 8.04961 10.5361 8.07121 10.8649C8.08561 11.0881 8.10481 11.3113 8.12881 11.5321C8.16001 11.8129 8.19841 12.0937 8.24641 12.3721C8.29681 12.6577 8.34961 12.9457 8.41681 13.2289C8.41921 13.2385 8.41921 13.2505 8.42161 13.2601C8.42401 13.2793 8.43121 13.2985 8.40001 13.2961Z" />
	<path d="M14.8728 14.5225C14.8608 14.6233 14.8176 14.7145 14.784 14.8105C14.58 15.3793 14.3424 15.9361 14.0688 16.4737C13.8264 16.9513 13.5576 17.4169 13.2648 17.8657C12.9528 18.3433 12.612 18.8041 12.2472 19.2433C12.072 19.4545 11.8896 19.6609 11.7 19.8625C11.5464 20.0257 11.3928 20.1865 11.2344 20.3425C10.7616 20.8033 10.2624 21.2329 9.73439 21.6289C9.30719 21.9481 8.86319 22.2457 8.40479 22.5193C8.29439 22.5841 8.30879 22.5841 8.27279 22.4713C8.09039 21.8953 7.94399 21.3097 7.83359 20.7169C7.78079 20.4361 7.73759 20.1529 7.70399 19.8697C7.67279 19.6081 7.64639 19.3441 7.62959 19.0825C7.61279 18.8185 7.59839 18.5665 7.59839 18.3073C7.59839 18.2329 7.59839 18.2329 7.67519 18.2137C8.55599 18.0265 9.41999 17.7625 10.2528 17.4241C10.8288 17.1865 11.3928 16.9177 11.94 16.6201C12.6048 16.2649 13.2264 15.8449 13.824 15.3889C14.1624 15.1321 14.4888 14.8585 14.8008 14.5705C14.8176 14.5489 14.844 14.5321 14.8728 14.5225Z" />
	<path d="M9.13441 14.5415C5.91601 13.9007 3.17761 12.3863 0.924011 10.0007C0.943211 9.97673 0.967211 9.95753 0.993611 9.94553C1.55761 9.64073 2.13841 9.37433 2.73361 9.14153C3.35761 8.90153 3.99841 8.70233 4.64881 8.54873C4.77601 8.51753 4.90321 8.48873 5.03041 8.45993C5.09041 8.44553 5.09761 8.45033 5.11921 8.51033C5.23681 8.83433 5.36401 9.15593 5.50561 9.47273C5.69281 9.89513 5.89921 10.3103 6.12481 10.7159C6.30961 11.0495 6.50881 11.3735 6.71761 11.6927C6.92401 12.0071 7.14481 12.3119 7.37521 12.6071C7.64641 12.9575 7.93441 13.2959 8.23681 13.6199C8.40001 13.7951 8.56801 13.9655 8.73361 14.1407C8.85841 14.2703 8.99281 14.3879 9.12481 14.5127C9.13441 14.5199 9.13921 14.5295 9.13441 14.5415Z" />
	<path d="M11.292 8.43353C13.4208 6.04313 16.2576 4.39673 19.3896 3.73193C19.404 3.75353 19.4088 3.77993 19.404 3.80633C19.3992 4.16633 19.3752 4.52393 19.3416 4.88393C19.308 5.24153 19.2624 5.59193 19.2024 5.94473C19.1448 6.28553 19.0752 6.62393 18.9912 6.95993C18.9072 7.30313 18.8112 7.64153 18.7032 7.97273C18.6792 8.04713 18.696 8.05913 18.5832 8.03993C18.276 7.98473 17.9664 7.93913 17.6544 7.90073C17.304 7.85753 16.9488 7.82873 16.5984 7.80953C16.248 7.79033 15.8856 7.78313 15.528 7.79033C15.1632 7.79993 14.7984 7.81673 14.436 7.84793C14.124 7.87433 13.8144 7.91033 13.5048 7.95593C13.068 8.02073 12.636 8.10233 12.2064 8.20313C11.928 8.26793 11.6544 8.34713 11.3784 8.42633C11.3496 8.43833 11.3208 8.44073 11.292 8.43353Z" />
	<path d="M15.588 13.3225C15.624 13.4233 15.6576 13.5193 15.6888 13.6201C15.864 14.1577 16.0056 14.7049 16.1184 15.2593C16.1808 15.5713 16.2336 15.8857 16.2744 16.2001C16.3056 16.4353 16.3272 16.6705 16.3488 16.9057C16.3944 17.4457 16.4064 17.9881 16.392 18.5281C16.3824 18.8353 16.3656 19.1425 16.3344 19.4473C16.3056 19.7209 16.2744 19.9921 16.2336 20.2633C16.1832 20.5969 16.1208 20.9305 16.0464 21.2665C15.9552 21.6745 15.8424 22.0777 15.7176 22.4785C15.7128 22.4953 15.708 22.5097 15.7032 22.5241C15.7008 22.5361 15.6888 22.5457 15.6768 22.5457C15.6696 22.5457 15.6648 22.5433 15.66 22.5385C15.6288 22.5217 15.5976 22.5049 15.5664 22.4857C15.072 22.1881 14.5944 21.8617 14.136 21.5113C13.8504 21.2929 13.5744 21.0625 13.3056 20.8225C12.9768 20.5297 12.6672 20.2201 12.3624 19.9057C12.3336 19.8769 12.3072 19.8457 12.2808 19.8145C12.2448 19.7689 12.2448 19.7689 12.2808 19.7209C12.5064 19.4617 12.7224 19.1953 12.9312 18.9241C13.2024 18.5665 13.4592 18.1969 13.6992 17.8177C13.9416 17.4337 14.1648 17.0377 14.3712 16.6297C14.6088 16.1617 14.8224 15.6817 15.0072 15.1897C15.2328 14.5993 15.4176 13.9969 15.564 13.3825C15.564 13.3633 15.5736 13.3417 15.588 13.3225Z" />
	<path d="M8.3928 10.2695C9.4224 10.9103 10.2768 11.7983 10.8792 12.8519C11.448 13.8407 11.7672 14.9519 11.8152 16.0895C10.404 15.2135 9.3336 13.8863 8.7768 12.3215C8.5464 11.6639 8.3496 10.5983 8.3928 10.2695Z" />
	<path d="M12.1824 16.0704C12.2208 14.9856 12.5112 13.9272 13.0368 12.9768C13.6392 11.868 14.5224 10.9368 15.5976 10.2744C15.5616 11.3328 15.2808 12.3672 14.7816 13.2984C14.1768 14.4384 13.2792 15.396 12.1824 16.0704Z" />
	<path d="M15.4176 9.95282C13.2672 11.0496 10.716 11.0496 8.56561 9.95282C10.716 8.85362 13.2696 8.85362 15.4176 9.95282Z" />
	<path d="M8.39999 13.2961C8.41439 13.2889 8.41439 13.2745 8.41679 13.2625C8.42159 13.2721 8.42639 13.2793 8.43119 13.2889C8.43359 13.2985 8.43599 13.3153 8.42639 13.3177C8.41199 13.3225 8.40479 13.3081 8.39999 13.2961Z" />
	<path d="M14.8728 14.5223L14.8776 14.5151V14.5199C14.8776 14.5199 14.8752 14.5223 14.8728 14.5223Z" />
</svg>
