<svg width="24" height="24" viewBox="0 0 24 24" xmlns="http://www.w3.org/2000/svg">
	<path d="M3 16.9999H21C21.55 16.9999 22 17.4499 22 17.9999C22 18.5499 21.55 18.9999 21 18.9999H3C2.45 18.9999 2 18.5499 2 17.9999C2 17.4499 2.45 16.9999 3 16.9999ZM2.5 12.5699C2.86 12.7799 3.32 12.6499 3.53 12.2899L4 11.4699L4.48 12.2999C4.69 12.6599 5.15 12.7799 5.51 12.5799C5.87 12.3699 5.99 11.9199 5.79 11.5599L5.3 10.7199H6.25C6.66 10.7199 7 10.3799 7 9.96994C7 9.55994 6.66 9.21994 6.25 9.21994H5.3L5.77 8.39994C5.98 8.03994 5.86 7.57994 5.5 7.36994C5.14 7.16994 4.68 7.28994 4.47 7.64994L4 8.46994L3.53 7.64994C3.32 7.28994 2.86 7.16994 2.5 7.36994C2.14 7.57994 2.02 8.03994 2.23 8.39994L2.7 9.21994H1.75C1.34 9.21994 1 9.55994 1 9.96994C1 10.3799 1.34 10.7199 1.75 10.7199H2.7L2.22 11.5499C2.02 11.9099 2.14 12.3699 2.5 12.5699ZM10.5 12.5699C10.86 12.7799 11.32 12.6499 11.53 12.2899L12 11.4699L12.48 12.2999C12.69 12.6599 13.15 12.7799 13.51 12.5799C13.87 12.3699 13.99 11.9199 13.79 11.5599L13.31 10.7299H14.26C14.67 10.7299 15.01 10.3899 15.01 9.97994C15.01 9.56994 14.67 9.22994 14.26 9.22994H13.3L13.77 8.40994C13.98 8.04994 13.85 7.58994 13.5 7.37994C13.14 7.16994 12.68 7.29994 12.48 7.64994L12 8.46994L11.53 7.64994C11.32 7.28994 10.86 7.16994 10.51 7.37994C10.15 7.58994 10.03 8.04994 10.24 8.40994L10.71 9.22994H9.75C9.34 9.21994 9 9.55994 9 9.96994C9 10.3799 9.34 10.7199 9.75 10.7199H10.7L10.22 11.5499C10.02 11.9099 10.14 12.3699 10.5 12.5699ZM23 9.96994C23 9.55994 22.66 9.21994 22.25 9.21994H21.3L21.77 8.39994C21.98 8.03994 21.85 7.57994 21.5 7.36994C21.14 7.15994 20.68 7.28994 20.48 7.63994L20 8.46994L19.53 7.64994C19.32 7.28994 18.86 7.16994 18.51 7.37994C18.15 7.58994 18.03 8.04994 18.24 8.40994L18.71 9.22994H17.76C17.34 9.21994 17 9.55994 17 9.96994C17 10.3799 17.34 10.7199 17.75 10.7199H18.7L18.22 11.5499C18.01 11.9099 18.14 12.3699 18.5 12.5699C18.86 12.7799 19.32 12.6499 19.53 12.2899L20 11.4699L20.48 12.2999C20.69 12.6599 21.15 12.7799 21.51 12.5799C21.87 12.3699 21.99 11.9199 21.79 11.5599L21.31 10.7299H22.26C22.66 10.7199 23 10.3799 23 9.96994Z"/>
</svg>
