<svg width="24" height="24" viewBox="0 0 24 24" xmlns="http://www.w3.org/2000/svg">
	<path d="M15 12C17.21 12 19 10.21 19 8C19 5.79 17.21 4 15 4C12.79 4 11 5.79 11 8C11 10.21 12.79 12 15 12ZM15 14C12.33 14 7 15.34 7 18V19C7 19.55 7.45 20 8 20H22C22.55 20 23 19.55 23 19V18C23 15.34 17.67 14 15 14Z" />
	<path d="M5.10714 14.766C4.76528 15.0788 4.23898 15.0788 3.89711 14.7614L3.84763 14.7161C1.48604 12.5627 -0.0568712 11.1529 0.00160636 9.39392C0.028596 8.62324 0.419946 7.8843 1.0542 7.4491C2.24175 6.63309 3.70818 7.0139 4.49988 7.94777C5.29157 7.0139 6.75801 6.62856 7.94555 7.4491C8.57981 7.8843 8.97116 8.62324 8.99815 9.39392C9.06112 11.1529 7.51372 12.5627 5.15213 14.7252L5.10714 14.766Z" />
</svg>
