<svg width="24" height="24" viewBox="0 0 24 24" xmlns="http://www.w3.org/2000/svg">
	<path d="M19.23 15.26L16.69 14.97C16.08 14.9 15.48 15.11 15.05 15.54L13.21 17.38C10.38 15.94 8.06001 13.63 6.62001 10.79L8.47001 8.94001C8.90001 8.51001 9.11001 7.91001 9.04001 7.30001L8.75001 4.78001C8.63001 3.77001 7.78001 3.01001 6.76001 3.01001H5.03001C3.90001 3.01001 2.96001 3.95001 3.03001 5.08001C3.56001 13.62 10.39 20.44 18.92 20.97C20.05 21.04 20.99 20.1 20.99 18.97V17.24C21 16.23 20.24 15.38 19.23 15.26Z" />
</svg>
