<svg width="24" height="24" viewBox="0 0 24 24" xmlns="http://www.w3.org/2000/svg">
	<path d="M7 11H17C17.55 11 18 11.45 18 12C18 12.55 17.55 13 17 13H7C6.45 13 6 12.55 6 12C6 11.45 6.45 11 7 11ZM7 7H17C17.55 7 18 7.45 18 8C18 8.55 17.55 9 17 9H7C6.45 9 6 8.55 6 8C6 7.45 6.45 7 7 7ZM7 15H13C13.55 15 14 15.45 14 16C14 16.55 13.55 17 13 17H7C6.45 17 6 16.55 6 16C6 15.45 6.45 15 7 15ZM16 15.88V20.11C16 20.5 16.42 20.74 16.76 20.54L20.29 18.42C20.61 18.23 20.61 17.76 20.29 17.56L16.76 15.44C16.42 15.25 16 15.49 16 15.88V15.88Z" />
</svg>
