<svg width="24" height="24" viewBox="0 0 24 24" xmlns="http://www.w3.org/2000/svg">
	<path d="M17.9998 7H15.9998C15.4498 7 14.9998 7.45 14.9998 8V10C14.9998 10.55 15.4498 11 15.9998 11V13H12.9998V5H13.9998C14.4098 5 14.6498 4.53 14.3998 4.2L12.3998 1.53C12.1998 1.26 11.7998 1.26 11.5998 1.53L9.5998 4.2C9.3498 4.53 9.5898 5 9.9998 5H10.9998V13H7.9998V10.93C8.8298 10.49 9.3798 9.57 9.1398 8.5C8.9698 7.73 8.3698 7.1 7.6198 6.89C6.1498 6.48 4.7998 7.59 4.7998 9C4.7998 9.85 5.2998 10.56 5.9998 10.93V13C5.9998 14.1 6.8998 15 7.9998 15H10.9998V18.05C10.1398 18.5 9.6098 19.47 9.8698 20.54C10.0498 21.29 10.6598 21.92 11.4098 22.12C12.8698 22.51 14.2098 21.42 14.2098 20C14.2098 19.15 13.7198 18.42 13.0098 18.05V15H16.0098C17.1098 15 18.0098 14.1 18.0098 13V11C18.5598 11 19.0098 10.55 19.0098 10V8C18.9998 7.45 18.5498 7 17.9998 7Z" />
</svg>
