<svg width="24" height="24" viewBox="0 0 24 24" xmlns="http://www.w3.org/2000/svg">
	<path d="M17.65 6.34999C16.02 4.71999 13.71 3.77999 11.17 4.03999C7.50001 4.40999 4.48001 7.38999 4.07001 11.06C3.52001 15.91 7.27001 20 12 20C15.19 20 17.93 18.13 19.21 15.44C19.53 14.77 19.05 14 18.31 14C17.94 14 17.59 14.2 17.43 14.53C16.3 16.96 13.59 18.5 10.63 17.84C8.41001 17.35 6.62001 15.54 6.15001 13.32C5.31001 9.43999 8.26001 5.99999 12 5.99999C13.66 5.99999 15.14 6.68999 16.22 7.77999L14.71 9.28999C14.08 9.91999 14.52 11 15.41 11H19C19.55 11 20 10.55 20 9.99999V6.40999C20 5.51999 18.92 5.06999 18.29 5.69999L17.65 6.34999Z" />
</svg>
