<svg width="24" height="24" viewBox="0 0 24 24" xmlns="http://www.w3.org/2000/svg">
	<path d="M6.36634 6.34999C7.99634 4.71999 10.3063 3.77999 12.8463 4.03999C16.5163 4.40999 19.5363 7.38999 19.9463 11.06C20.4963 15.91 16.7463 20 12.0163 20C8.82634 20 6.08634 18.13 4.80634 15.44C4.48634 14.77 4.96634 14 5.70634 14C6.07634 14 6.42634 14.2 6.58634 14.53C7.71634 16.96 10.4263 18.5 13.3863 17.84C15.6063 17.35 17.3963 15.54 17.8663 13.32C18.7063 9.43999 15.7563 5.99999 12.0163 5.99999C10.3563 5.99999 8.87634 6.68999 7.79634 7.77999L9.30634 9.28999C9.93634 9.91999 9.49634 11 8.60634 11H5.01634C4.46634 11 4.01634 10.55 4.01634 9.99999V6.40999C4.01634 5.51999 5.09634 5.06999 5.72634 5.69999L6.36634 6.34999Z" />
</svg>
