<svg width="24" height="24" viewBox="0 0 24 24" xmlns="http://www.w3.org/2000/svg">
	<path d="M19.43 12.98C19.47 12.66 19.5 12.34 19.5 12C19.5 11.66 19.47 11.34 19.43 11.02L21.54 9.37C21.73 9.22 21.78 8.95 21.66 8.73L19.66 5.27C19.54 5.05 19.27 4.97 19.05 5.05L16.56 6.05C16.04 5.65 15.48 5.32 14.87 5.07L14.49 2.42C14.46 2.18 14.25 2 14 2H9.99999C9.74999 2 9.53999 2.18 9.50999 2.42L9.12999 5.07C8.51999 5.32 7.95999 5.66 7.43999 6.05L4.94999 5.05C4.71999 4.96 4.45999 5.05 4.33999 5.27L2.33999 8.73C2.20999 8.95 2.26999 9.22 2.45999 9.37L4.56999 11.02C4.52999 11.34 4.49999 11.67 4.49999 12C4.49999 12.33 4.52999 12.66 4.56999 12.98L2.45999 14.63C2.26999 14.78 2.21999 15.05 2.33999 15.27L4.33999 18.73C4.45999 18.95 4.72999 19.03 4.94999 18.95L7.43999 17.95C7.95999 18.35 8.51999 18.68 9.12999 18.93L9.50999 21.58C9.53999 21.82 9.74999 22 9.99999 22H14C14.25 22 14.46 21.82 14.49 21.58L14.87 18.93C15.48 18.68 16.04 18.34 16.56 17.95L19.05 18.95C19.28 19.04 19.54 18.95 19.66 18.73L21.66 15.27C21.78 15.05 21.73 14.78 21.54 14.63L19.43 12.98V12.98ZM12 15.5C10.07 15.5 8.49999 13.93 8.49999 12C8.49999 10.07 10.07 8.5 12 8.5C13.93 8.5 15.5 10.07 15.5 12C15.5 13.93 13.93 15.5 12 15.5Z" />
</svg>
