<svg width="24" height="24" viewBox="0 0 24 24" xmlns="http://www.w3.org/2000/svg">
	<path d="M16.7534 15.8896C16.0285 15.8896 15.38 16.1757 14.884 16.624L8.08331 12.6657C8.131 12.4464 8.16915 12.227 8.16915 11.9981C8.16915 11.7691 8.131 11.5498 8.08331 11.3304L14.8077 7.41023C15.3227 7.88714 15.9999 8.18282 16.7534 8.18282C18.3368 8.18282 19.6149 6.90472 19.6149 5.32139C19.6149 3.73807 18.3368 2.45996 16.7534 2.45996C15.1701 2.45996 13.892 3.73807 13.892 5.32139C13.892 5.55031 13.9302 5.76968 13.9779 5.98906L7.25349 9.90922C6.73843 9.43231 6.06123 9.13663 5.30772 9.13663C3.72439 9.13663 2.44629 10.4147 2.44629 11.9981C2.44629 13.5814 3.72439 14.8595 5.30772 14.8595C6.06123 14.8595 6.73843 14.5638 7.25349 14.0869L14.0446 18.0548C13.9969 18.2551 13.9683 18.4649 13.9683 18.6747C13.9683 20.2104 15.2178 21.4599 16.7534 21.4599C18.2891 21.4599 19.5386 20.2104 19.5386 18.6747C19.5386 17.1391 18.2891 15.8896 16.7534 15.8896Z" />
</svg>
