<svg width="24" height="25" viewBox="0 0 24 25" xmlns="http://www.w3.org/2000/svg">
	<path d="M4 18.2504H8C8.55 18.2504 9 17.8004 9 17.2504C9 16.7004 8.55 16.2504 8 16.2504H4C3.45 16.2504 3 16.7004 3 17.2504C3 17.8004 3.45 18.2504 4 18.2504ZM3 7.25043C3 7.80043 3.45 8.25043 4 8.25043H20C20.55 8.25043 21 7.80043 21 7.25043C21 6.70043 20.55 6.25043 20 6.25043H4C3.45 6.25043 3 6.70043 3 7.25043ZM4 13.2504H14C14.55 13.2504 15 12.8004 15 12.2504C15 11.7004 14.55 11.2504 14 11.2504H4C3.45 11.2504 3 11.7004 3 12.2504C3 12.8004 3.45 13.2504 4 13.2504Z" />
</svg>
