<svg width="24" height="24" viewBox="0 0 24 24" xmlns="http://www.w3.org/2000/svg">
	<path d="M10.45 15.5C10.85 15.9 11.3667 16.0957 12 16.087C12.6333 16.079 13.1 15.85 13.4 15.4L17.625 9.075C17.775 8.84167 17.754 8.62933 17.562 8.438C17.3707 8.246 17.1583 8.225 16.925 8.375L10.6 12.6C10.15 12.9 9.91267 13.3583 9.888 13.975C9.86267 14.5917 10.05 15.1 10.45 15.5ZM5.1 20C4.75 20 4.41667 19.9167 4.1 19.75C3.78333 19.5833 3.53333 19.35 3.35 19.05C2.91667 18.3 2.58333 17.5043 2.35 16.663C2.11667 15.821 2 14.9333 2 14C2 12.6167 2.26267 11.3207 2.788 10.112C3.31267 8.904 4.02933 7.84567 4.938 6.937C5.846 6.029 6.90833 5.31233 8.125 4.787C9.34167 4.26233 10.6333 4 12 4C13.3833 4 14.679 4.26233 15.887 4.787C17.0957 5.31233 18.154 6.029 19.062 6.937C19.9707 7.84567 20.6873 8.904 21.212 10.112C21.7373 11.3207 22 12.6167 22 14C22 14.9333 21.8877 15.8123 21.663 16.637C21.4377 17.4623 21.1 18.2667 20.65 19.05C20.4667 19.35 20.2167 19.5833 19.9 19.75C19.5833 19.9167 19.25 20 18.9 20H5.1Z"/>
</svg>
