<svg width="25" height="24" viewBox="0 0 25 24" fill="none" xmlns="http://www.w3.org/2000/svg">
<g clip-path="url(#clip0_287_639)">
<path d="M15.5086 9.015C15.0292 9.015 14.6626 8.61247 14.4905 8.165C14.4005 7.895 14.2505 7.67499 14.0505 7.48499C13.8505 7.29499 13.6005 7.155 13.3005 7.045C13.0005 6.945 12.6405 6.88499 12.2405 6.88499C11.8505 6.88499 11.5005 6.925 11.2105 7.015C10.9205 7.105 10.6805 7.225 10.4905 7.375C10.3005 7.535 10.1505 7.71499 10.0505 7.92499C9.95054 8.13499 9.90054 8.355 9.90054 8.585C9.90054 9.065 10.1505 9.465 10.6405 9.795C10.8894 9.9587 10.7694 10.495 10.4716 10.495H7.7322C7.55076 10.495 7.37168 10.4073 7.29054 10.245C7.03054 9.765 6.90054 9.21499 6.90054 8.575C6.90054 7.96499 7.03054 7.41499 7.30054 6.90499C7.56054 6.40499 7.93054 5.975 8.41054 5.615C8.89054 5.26499 9.46054 4.985 10.1105 4.785C10.7705 4.595 11.5005 4.495 12.2905 4.495C13.1005 4.495 13.8305 4.605 14.5005 4.835C15.1605 5.055 15.7305 5.375 16.1905 5.775C16.6605 6.175 17.0205 6.655 17.2705 7.205C17.32 7.31388 17.3648 7.42473 17.4048 7.53762C17.6825 8.32106 16.9767 9.015 16.1455 9.015H15.5086ZM20.0505 11.495H4.05054C3.50054 11.495 3.05054 11.945 3.05054 12.495C3.05054 13.045 3.50054 13.495 4.05054 13.495H12.0853C12.4721 13.495 12.8614 13.5513 13.2205 13.695C13.5905 13.865 13.8805 14.035 14.0905 14.205C14.3005 14.375 14.4405 14.565 14.5205 14.775C14.5905 14.975 14.6305 15.205 14.6305 15.465C14.6305 15.695 14.5805 15.915 14.4905 16.125C14.4005 16.325 14.2605 16.505 14.0705 16.655C13.8805 16.805 13.6505 16.915 13.3605 17.005C13.0705 17.085 12.7305 17.135 12.3505 17.135C11.9205 17.135 11.5205 17.095 11.1705 17.005C10.8205 16.915 10.5105 16.775 10.2605 16.585C10.0105 16.395 9.81054 16.145 9.67054 15.835C9.38774 15.2088 8.86355 14.625 8.17647 14.625H7.93554C7.11539 14.625 6.40822 15.308 6.65252 16.0909C6.66465 16.1298 6.67732 16.1678 6.69054 16.205C6.85054 16.655 7.06054 17.055 7.34054 17.415C7.62054 17.765 7.94054 18.075 8.32054 18.335C8.69054 18.595 9.10054 18.815 9.54054 18.985C9.98054 19.155 10.4405 19.285 10.9205 19.375C11.4005 19.455 11.8805 19.505 12.3605 19.505C13.1605 19.505 13.8905 19.415 14.5405 19.225C15.1905 19.035 15.7505 18.775 16.2105 18.435C16.6705 18.095 17.0305 17.665 17.2805 17.165C17.5305 16.665 17.6605 16.095 17.6605 15.455C17.6605 14.855 17.5605 14.315 17.3505 13.845C17.2829 13.6962 17.3885 13.515 17.5519 13.515H20.0505C20.6005 13.515 21.0505 13.065 21.0505 12.515V12.495C21.0505 11.945 20.6005 11.495 20.0505 11.495Z" fill="#797173"/>
</g>
<defs>
<clipPath id="clip0_287_639">
<rect width="24" height="24" fill="white" transform="translate(0.0505371)"/>
</clipPath>
</defs>
</svg>
