<svg width="24" height="24" viewBox="0 0 24 24" xmlns="http://www.w3.org/2000/svg">
	<path d="M6.05 4.13999L5.66 3.74999C5.27 3.35999 4.64 3.36999 4.26 3.74999L4.25 3.75999C3.86 4.14999 3.86 4.77999 4.25 5.15999L4.64 5.54999C5.03 5.93999 5.65 5.93999 6.04 5.54999L6.05 5.53999C6.44 5.15999 6.44 4.51999 6.05 4.13999ZM3.01 10.5H1.99C1.44 10.5 1 10.94 1 11.49V11.5C1 12.05 1.44 12.49 1.99 12.49H3C3.56 12.5 4 12.06 4 11.51V11.5C4 10.94 3.56 10.5 3.01 10.5ZM12.01 0.549988H12C11.44 0.549988 11 0.989988 11 1.53999V2.49999C11 3.04999 11.44 3.48999 11.99 3.48999H12C12.56 3.49999 13 3.05999 13 2.50999V1.53999C13 0.989988 12.56 0.549988 12.01 0.549988ZM19.75 3.75999C19.36 3.36999 18.73 3.36999 18.34 3.74999L17.95 4.13999C17.56 4.52999 17.56 5.15999 17.95 5.53999L17.96 5.54999C18.35 5.93999 18.98 5.93999 19.36 5.54999L19.75 5.15999C20.14 4.76999 20.14 4.14999 19.75 3.75999ZM17.94 18.86L18.33 19.25C18.72 19.64 19.35 19.64 19.74 19.25C20.13 18.86 20.13 18.23 19.74 17.84L19.35 17.45C18.96 17.06 18.33 17.07 17.95 17.45C17.55 17.85 17.55 18.47 17.94 18.86ZM20 11.49V11.5C20 12.05 20.44 12.49 20.99 12.49H22C22.55 12.49 22.99 12.05 22.99 11.5V11.49C22.99 10.94 22.55 10.5 22 10.5H20.99C20.44 10.5 20 10.94 20 11.49ZM12 5.49999C8.69 5.49999 6 8.18999 6 11.5C6 14.81 8.69 17.5 12 17.5C15.31 17.5 18 14.81 18 11.5C18 8.18999 15.31 5.49999 12 5.49999ZM11.99 22.45H12C12.55 22.45 12.99 22.01 12.99 21.46V20.5C12.99 19.95 12.55 19.51 12 19.51H11.99C11.44 19.51 11 19.95 11 20.5V21.46C11 22.01 11.44 22.45 11.99 22.45ZM4.25 19.24C4.64 19.63 5.27 19.63 5.66 19.24L6.05 18.85C6.44 18.46 6.43 17.83 6.05 17.45L6.04 17.44C5.65 17.05 5.02 17.05 4.63 17.44L4.24 17.83C3.86 18.23 3.86 18.85 4.25 19.24Z" />
</svg>
