<svg width="24" height="24" viewBox="0 0 24 24" xmlns="http://www.w3.org/2000/svg">
	<path d="M3 5.12501V10.9649C3 11.6289 3.2692 12.2656 3.75134 12.7344L10.8228 19.6094C11.8272 20.586 13.4545 20.586 14.4589 19.6094L19.8228 14.3945C20.8272 13.418 20.8272 11.836 19.8228 10.8594L12.7513 3.98439C12.2692 3.51564 11.6143 3.25392 10.9312 3.25392H4.92857C3.86384 3.25001 3 4.08986 3 5.12501ZM7.5 8.87501C6.78884 8.87501 6.21429 8.31642 6.21429 7.62501C6.21429 6.93361 6.78884 6.37501 7.5 6.37501C8.21116 6.37501 8.78571 6.93361 8.78571 7.62501C8.78571 8.31642 8.21116 8.87501 7.5 8.87501Z" />
</svg>
