<svg width="24" height="25" viewBox="0 0 24 25" xmlns="http://www.w3.org/2000/svg">
	<path d="M20 2.25043H4C2.9 2.25043 2 3.15043 2 4.25043V20.2504C2 21.3504 2.9 22.2504 4 22.2504H20C21.1 22.2504 22 21.3504 22 20.2504V4.25043C22 3.15043 21.1 2.25043 20 2.25043ZM8 20.2504H5C4.45 20.2504 4 19.8004 4 19.2504V16.2504H8V20.2504ZM8 14.2504H4V10.2504H8V14.2504ZM8 8.25043H4V5.25043C4 4.70043 4.45 4.25043 5 4.25043H8V8.25043ZM14 20.2504H10V16.2504H14V20.2504ZM14 14.2504H10V10.2504H14V14.2504ZM14 8.25043H10V4.25043H14V8.25043ZM19 20.2504H16V16.2504H20V19.2504C20 19.8004 19.55 20.2504 19 20.2504ZM20 14.2504H16V10.2504H20V14.2504ZM20 8.25043H16V4.25043H19C19.55 4.25043 20 4.70043 20 5.25043V8.25043Z" />
</svg>
