<svg width="20" height="22" viewBox="0 0 20 22" xmlns="http://www.w3.org/2000/svg">
	<path fill-rule="evenodd" clip-rule="evenodd" d="M11.2786 14.7505L11.2806 14.7539C11.0784 14.851 10.9074 15.0029 10.7872 15.1923C10.6669 15.3816 10.6021 15.6009 10.6002 15.8253L10.6 17.7606C10.603 17.8803 10.6331 17.9978 10.6877 18.1044C10.7422 18.211 10.82 18.304 10.9153 18.3765L10.9128 18.379C11.1133 18.5234 11.2765 18.7134 11.3891 18.9334C11.5016 19.1533 11.5602 19.3969 11.56 19.644C11.56 20.5056 10.8616 21.204 10 21.204C9.1384 21.204 8.44 20.5056 8.44 19.644C8.4398 19.4001 8.49692 19.1595 8.60673 18.9416C8.71655 18.7238 8.876 18.5348 9.07224 18.3899L9.0704 18.3871C9.17012 18.3147 9.25174 18.2202 9.30888 18.1111C9.36602 18.0019 9.39712 17.881 9.39976 17.7578L9.4 15.8154C9.39616 15.5906 9.32904 15.3715 9.20672 15.1828C9.08441 14.9942 8.91158 14.8437 8.70792 14.7485L8.71016 14.7451C7.69888 14.2628 7 13.231 7 12.036V1.43594C7 1.27681 7.06321 1.1242 7.17574 1.01167C7.28826 0.899152 7.44087 0.835938 7.6 0.835938C7.75913 0.835938 7.91174 0.899152 8.02426 1.01167C8.13679 1.1242 8.2 1.27681 8.2 1.43594V12.036C8.2 13.0301 9.00592 13.836 10 13.836C10.9941 13.836 11.8 13.0301 11.8 12.036V1.43594C11.8 1.27681 11.8632 1.1242 11.9757 1.01167C12.0883 0.899152 12.2409 0.835938 12.4 0.835938C12.5591 0.835938 12.7117 0.899152 12.8243 1.01167C12.9368 1.1242 13 1.27681 13 1.43594V12.036C13 13.2355 12.296 14.2705 11.2786 14.7505ZM10.0001 19.1641C9.90515 19.1641 9.81234 19.1922 9.73341 19.245C9.65447 19.2977 9.59295 19.3727 9.55662 19.4604C9.52029 19.5481 9.51078 19.6446 9.5293 19.7377C9.54782 19.8308 9.59354 19.9164 9.66067 19.9835C9.7278 20.0506 9.81333 20.0963 9.90644 20.1149C9.99955 20.1334 10.0961 20.1239 10.1838 20.0875C10.2715 20.0512 10.3464 19.9897 10.3992 19.9108C10.4519 19.8318 10.4801 19.739 10.4801 19.6441C10.4801 19.5168 10.4295 19.3947 10.3395 19.3047C10.2495 19.2146 10.1274 19.1641 10.0001 19.1641Z" />
</svg>
