<svg width="24" height="24" viewBox="0 0 24 24" xmlns="http://www.w3.org/2000/svg">
	<path d="M6 21C5.71667 21 5.479 20.904 5.287 20.712C5.09567 20.5207 5 20.2833 5 20C5 19.7167 5.09567 19.4793 5.287 19.288C5.479 19.096 5.71667 19 6 19H18C18.2833 19 18.5207 19.096 18.712 19.288C18.904 19.4793 19 19.7167 19 20C19 20.2833 18.904 20.5207 18.712 20.712C18.5207 20.904 18.2833 21 18 21H6ZM12 17C10.3167 17 8.89567 16.4207 7.737 15.262C6.579 14.104 6 12.6833 6 11V4.25C6 3.9 6.121 3.604 6.363 3.362C6.60433 3.12067 6.9 3 7.25 3C7.6 3 7.89567 3.12067 8.137 3.362C8.379 3.604 8.5 3.9 8.5 4.25V11C8.5 11.9833 8.83733 12.8127 9.512 13.488C10.1873 14.1627 11.0167 14.5 12 14.5C12.9833 14.5 13.8127 14.1627 14.488 13.488C15.1627 12.8127 15.5 11.9833 15.5 11V4.25C15.5 3.9 15.621 3.604 15.863 3.362C16.1043 3.12067 16.4 3 16.75 3C17.1 3 17.396 3.12067 17.638 3.362C17.8793 3.604 18 3.9 18 4.25V11C18 12.6833 17.4207 14.104 16.262 15.262C15.104 16.4207 13.6833 17 12 17Z" />
</svg>
