<svg width="24" height="24" viewBox="0 0 24 24" xmlns="http://www.w3.org/2000/svg">
	<path d="M8 6.88037V6.87874L15.1169 14H15.1109L20.6019 19.4977C20.9919 19.8877 20.9919 20.5177 20.6019 20.9077C20.2119 21.2977 19.5819 21.2977 19.1919 20.9077L12.982 14.694L13 21C13 21.55 12.55 22 12 22C11.45 22 11 21.55 11 21L10.98 14H6C5.45 14 5 13.55 5 13V12.87C5 12.4 5.34 12.02 5.8 11.89C6.86765 11.5958 7.69502 10.7291 7.93156 9.64048L2.87192 4.57774C2.48192 4.18774 2.48192 3.55774 2.87192 3.16774C3.26192 2.77774 3.90192 2.77774 4.29192 3.16774L8 6.88037Z" />
	<path d="M18 14H17.9859L8 4.00185V4H7.99815L6.29387 2.29363C6.47511 2.11245 6.72506 2 7 2H17C17.55 2 18 2.45 18 3C18 3.55 17.55 4 17 4H16V9C16 10.38 16.93 11.54 18.2 11.89C18.66 12.02 19 12.4 19 12.87V13C19 13.55 18.55 14 18 14Z" />
</svg>