<svg width="24" height="24" viewBox="0 0 24 24" xmlns="http://www.w3.org/2000/svg">
	<path d="M13.05 13.5L17.2 10.85C17.5167 10.65 17.675 10.3667 17.675 10C17.675 9.63333 17.5167 9.35 17.2 9.15L13.05 6.5C12.7167 6.26667 12.375 6.25 12.025 6.45C11.675 6.65 11.5 6.94167 11.5 7.325V12.675C11.5 13.0583 11.675 13.35 12.025 13.55C12.375 13.75 12.7167 13.7333 13.05 13.5ZM8.00003 18C7.45003 18 6.97936 17.8043 6.58803 17.413C6.19603 17.021 6.00003 16.55 6.00003 16V4C6.00003 3.45 6.19603 2.979 6.58803 2.587C6.97936 2.19567 7.45003 2 8.00003 2H20C20.55 2 21.021 2.19567 21.413 2.587C21.8044 2.979 22 3.45 22 4V16C22 16.55 21.8044 17.021 21.413 17.413C21.021 17.8043 20.55 18 20 18H8.00003ZM4.00003 22C3.45003 22 2.97936 21.8043 2.58803 21.413C2.19603 21.021 2.00003 20.55 2.00003 20V7C2.00003 6.71667 2.09603 6.479 2.28803 6.287C2.47936 6.09567 2.7167 6 3.00003 6C3.28336 6 3.52103 6.09567 3.71303 6.287C3.90436 6.479 4.00003 6.71667 4.00003 7V20H17C17.2834 20 17.5207 20.096 17.712 20.288C17.904 20.4793 18 20.7167 18 21C18 21.2833 17.904 21.5207 17.712 21.712C17.5207 21.904 17.2834 22 17 22H4.00003Z" />
</svg>
