<svg width="24" height="24" viewBox="0 0 24 24" xmlns="http://www.w3.org/2000/svg">
	<path d="M3 10V14C3 14.55 3.45 15 4 15H7L10.29 18.29C10.92 18.92 12 18.47 12 17.58V6.41002C12 5.52002 10.92 5.07002 10.29 5.70002L7 9.00002H4C3.45 9.00002 3 9.45002 3 10Z" />
	<path d="M14.1716 9.17157C14.5621 8.78105 15.1953 8.78105 15.5858 9.17157L19.8284 13.4142C20.219 13.8047 20.219 14.4379 19.8284 14.8284C19.4379 15.219 18.8047 15.219 18.4142 14.8284L14.1716 10.5858C13.781 10.1953 13.781 9.5621 14.1716 9.17157Z" />
	<path d="M19.8284 9.17157C20.219 9.5621 20.219 10.1953 19.8284 10.5858L15.5858 14.8284C15.1953 15.219 14.5621 15.219 14.1716 14.8284C13.781 14.4379 13.781 13.8047 14.1716 13.4142L18.4142 9.17157C18.8047 8.78105 19.4379 8.78105 19.8284 9.17157Z" />
</svg>
