<svg width="24" height="24" viewBox="0 0 24 24" xmlns="http://www.w3.org/2000/svg">
	<path d="M3 14V10C3 9.45002 3.45 9.00002 4 9.00002H7L10.29 5.70002C10.92 5.07002 12 5.52002 12 6.41002V17.58C12 18.47 10.92 18.92 10.29 18.29L7 15H4C3.45 15 3 14.55 3 14Z" />
	<path d="M15.5858 9.17156C15.1953 8.78103 14.5621 8.78103 14.1716 9.17156C13.781 9.56208 13.781 10.1952 14.1716 10.5858L15.5858 12L14.1716 13.4142C13.781 13.8047 13.781 14.4379 14.1716 14.8284C14.5621 15.2189 15.1953 15.2189 15.5858 14.8284L17 13.4142L18.4142 14.8284C18.8047 15.2189 19.4379 15.2189 19.8284 14.8284C20.2189 14.4379 20.2189 13.8047 19.8284 13.4142L18.4142 12L19.8284 10.5858C20.2189 10.1952 20.219 9.56208 19.8284 9.17156C19.4379 8.78103 18.8047 8.78103 18.4142 9.17156L17 10.5858L15.5858 9.17156Z" />
</svg>
