<svg width="24" height="24" viewBox="0 0 24 24" xmlns="http://www.w3.org/2000/svg">
	<path fill-rule="evenodd" clip-rule="evenodd" d="M3 12C3 7.36001 6.51 3.54001 11.01 3.05001C11.9 2.98001 12.39 3.94001 11.94 4.61001C11.41 5.44001 11.1 6.44001 11.1 7.50001C11.1 10.48 13.52 12.9 16.5 12.9C17.57 12.9 18.57 12.59 19.41 12.05C20.17 11.58 21.04 12.21 20.95 13C20.45 17.5 16.63 21 12 21C7.03 21 3 16.97 3 12ZM9.277 12.666C9.17452 12.4196 8.82548 12.4196 8.723 12.666L8.27686 13.7386C8.23366 13.8425 8.13597 13.9135 8.02384 13.9225L6.86581 14.0153C6.59981 14.0366 6.49196 14.3686 6.69462 14.5422L7.57691 15.298C7.66235 15.3712 7.69966 15.486 7.67356 15.5954L7.404 16.7254C7.34209 16.985 7.62446 17.1902 7.85219 17.0511L8.84362 16.4455C8.93963 16.3869 9.06037 16.3869 9.15638 16.4455L10.1478 17.0511C10.3755 17.1902 10.6579 16.985 10.596 16.7254L10.3264 15.5954C10.3003 15.486 10.3377 15.3712 10.4231 15.298L11.3054 14.5422C11.508 14.3686 11.4002 14.0366 11.1342 14.0153L9.97616 13.9225C9.86403 13.9135 9.76634 13.8425 9.72314 13.7386L9.277 12.666Z" />
</svg>
