<svg width="24" height="24" viewBox="0 0 24 24" xmlns="http://www.w3.org/2000/svg">
	<path fill-rule="evenodd" clip-rule="evenodd" d="M16.4444 5.88889C18.4098 5.88889 20.1585 6.81667 21.2764 8.25816C19.795 4.58905 16.1998 2 12 2C6.47715 2 2 6.47715 2 12C2 17.5228 6.47715 22 12 22C16.1998 22 19.795 19.411 21.2764 15.7418C20.1585 17.1833 18.4098 18.1111 16.4444 18.1111C13.0694 18.1111 10.3333 15.3751 10.3333 12C10.3333 8.62493 13.0694 5.88889 16.4444 5.88889ZM7.04029 10.9887L6.30556 9.22222L5.57082 10.9887L3.66373 11.1416L5.11673 12.3863L4.67282 14.2473L6.30556 13.25L7.93829 14.2473L7.49438 12.3863L8.94738 11.1416L7.04029 10.9887Z" />
</svg>
